<svg width="180" height="40" viewBox="0 0 180 40" fill="none" xmlns="http://www.w3.org/2000/svg">
<g clip-path="url(#clip0_5983_996)">
<path d="M109.221 15.7926C107.704 15.7926 106.322 16.2815 105.296 17.0708V16.0931H103.499V27.2727H105.296V23.8307C106.322 24.6201 107.7 25.1089 109.221 25.1089C112.376 25.1089 114.94 23.0213 114.94 20.4528C114.94 17.8843 112.376 15.7926 109.221 15.7926ZM109.221 23.3058C107.057 23.3058 105.296 22.0235 105.296 20.4528C105.296 18.882 107.057 17.5998 109.221 17.5998C111.386 17.5998 113.143 18.882 113.143 20.4528C113.143 22.0235 111.386 23.3058 109.221 23.3058Z" fill="#1D1D1B"/>
<path d="M95.3838 15.7926C93.8663 15.7926 92.4845 16.2815 91.4582 17.0708V16.0931H89.6611V27.2727H91.4582V23.8307C92.4845 24.6201 93.8623 25.1089 95.3838 25.1089C98.5387 25.1089 101.102 23.0213 101.102 20.4528C101.102 17.8843 98.5387 15.7926 95.3838 15.7926ZM95.3838 23.3058C93.2193 23.3058 91.4582 22.0235 91.4582 20.4528C91.4582 18.882 93.2193 17.5998 95.3838 17.5998C97.5483 17.5998 99.3054 18.882 99.3054 20.4528C99.3054 22.0235 97.5483 23.3058 95.3838 23.3058Z" fill="#1D1D1B"/>
<path d="M176.611 19.4109H174.039C173.197 19.4109 172.61 18.9261 172.61 18.4933C172.61 18.0566 173.197 17.5717 174.039 17.5717H178.919V15.7926H174.039C172.27 15.7926 170.833 17.0027 170.833 18.4933C170.833 19.9799 172.27 21.19 174.039 21.19H176.611C177.458 21.19 178.045 21.6749 178.045 22.1077C178.045 22.5404 177.458 23.0253 176.611 23.0253H171.436V24.8084H176.611C178.38 24.8084 179.822 23.5983 179.822 22.1077C179.818 20.6211 178.38 19.4109 176.611 19.4109Z" fill="#1D1D1B"/>
<path d="M140.689 25.1089C137.535 25.1089 134.967 23.0213 134.967 20.4528C134.967 17.8843 137.535 15.7966 140.689 15.7966C143.844 15.7966 146.408 17.8843 146.408 20.4528C146.408 23.0213 143.844 25.1089 140.689 25.1089ZM140.689 17.5958C138.525 17.5958 136.764 18.878 136.764 20.4488C136.764 22.0195 138.525 23.3018 140.689 23.3018C142.854 23.3018 144.611 22.0195 144.611 20.4488C144.611 18.878 142.854 17.5958 140.689 17.5958Z" fill="#1D1D1B"/>
<path d="M132.775 13.6289H130.978V24.8085H132.775V13.6289Z" fill="#1D1D1B"/>
<path d="M156.448 22.7808C155.805 23.1094 155.026 23.3058 154.18 23.3058C152.015 23.3058 150.254 22.0235 150.254 20.4528C150.254 18.882 152.015 17.5998 154.18 17.5998C155.026 17.5998 155.805 17.7961 156.448 18.1287V18.1247L158.173 17.1229C157.143 16.3015 155.733 15.7926 154.18 15.7926C151.025 15.7926 148.457 17.8803 148.457 20.4488C148.457 23.0172 151.025 25.1049 154.18 25.1049C155.733 25.1049 157.143 24.596 158.173 23.7746L156.448 22.7808Z" fill="#1D1D1B"/>
<path d="M128.781 20.4528C128.781 17.8844 126.213 15.7967 123.063 15.7967C121.545 15.7967 120.163 16.2856 119.137 17.0749V13.6289H117.34V24.8085H119.137V23.8308C120.163 24.6201 121.541 25.109 123.063 25.109C126.213 25.109 128.781 23.0213 128.781 20.4528ZM126.984 20.4528C126.984 22.0276 125.223 23.3058 123.063 23.3058C120.898 23.3058 119.137 22.0236 119.137 20.4528C119.137 18.8821 120.898 17.5999 123.063 17.5999C125.223 17.5958 126.984 18.8781 126.984 20.4528Z" fill="#1D1D1B"/>
<path d="M168.967 16.0932H166.427L163.648 18.8781L162.374 20.1523L162.067 20.4609V13.6289H160.27V24.8085H162.067V23.0133L163.648 21.4306L167.015 24.8085H169.554L164.918 20.1523L168.967 16.0932Z" fill="#1D1D1B"/>
<path d="M81.2946 16.9066L85.2322 24.8084H87.3128L81.2946 12.7273L75.2725 24.8084H77.3531L81.2946 16.9066Z" fill="#1D1D1B"/>
</g>
<g clip-path="url(#clip1_5983_996)">
<path d="M38.7601 0L31.5601 4.16V14.2L41.6401 20L31.5601 25.84V35.88L38.7601 40.04L64.7201 25.04V15L38.7601 0ZM33.1601 13.28V6L42.2801 11.28H42.3201L49.5601 15.44L43.2801 19.08L33.1601 13.28ZM37.9601 37.68L33.1601 34.92V27.68L37.9601 30.44V37.68ZM33.9601 26.28L52.7201 15.44L33.9601 4.64L38.7601 1.88L62.3201 15.48L38.7601 29.08L33.9601 26.28ZM63.1201 24.08L39.5601 37.68V30.44L63.1201 16.84V24.08Z" fill="#D453B5"/>
<path d="M33.16 14.2V4.16L25.96 0L0 15V25.04L25.96 40L33.16 35.84V25.8L23.08 20L33.16 14.2ZM25.16 37.68L1.6 24.08V16.84L25.16 30.44V37.68ZM31.56 34.92L26.76 37.68V30.44L31.56 27.68V34.92ZM25.96 29.04L2.4 15.44L25.96 1.84L30.76 4.6L12 15.44L30.76 26.28L25.96 29.04ZM15.2 15.44L22.44 11.28H22.48L31.52 6.04L31.56 6V13.24L21.48 19.08L15.2 15.44Z" fill="#5E5EDE"/>
</g>
<defs>
<clipPath id="clip0_5983_996">
<rect width="105" height="14" fill="white" transform="translate(75 13)"/>
</clipPath>
<clipPath id="clip1_5983_996">
<rect width="65.5207" height="40" fill="white"/>
</clipPath>
</defs>
</svg>
