<svg width="650" height="450" viewBox="0 0 650 450" fill="none" xmlns="http://www.w3.org/2000/svg">
<rect y="50" width="100" height="400" fill="#24292E"/>
<mask id="path-2-inside-1_9483_41793" fill="white">
<path d="M200 0H300V250H200V0Z"/>
</mask>
<path d="M200 0H300V250H200V0Z" fill="#24292E"/>
<path d="M298 0V250H302V0H298Z" fill="white" mask="url(#path-2-inside-1_9483_41793)"/>
<mask id="path-4-inside-2_9483_41793" fill="white">
<path d="M200 350H300V450H200V350Z"/>
</mask>
<path d="M200 350H300V450H200V350Z" fill="#24292E"/>
<path d="M298 350V450H302V350H298Z" fill="white" mask="url(#path-4-inside-2_9483_41793)"/>
<rect x="450" y="350" width="100" height="100" fill="#6F42C1"/>
<rect x="550" y="150" width="100" height="300" fill="#6F42C1"/>
<rect x="450" y="150" width="100" height="100" fill="#6F42C1"/>
<rect x="100" y="150" width="100" height="100" transform="rotate(-90 100 150)" fill="#24292E"/>
<rect x="300" y="250" width="100" height="50" transform="rotate(-90 300 250)" fill="#6F42C1"/>
<rect x="350" y="450" width="450" height="100" transform="rotate(-90 350 450)" fill="#6F42C1"/>
<rect x="300" y="450" width="100" height="50" transform="rotate(-90 300 450)" fill="#6F42C1"/>
<mask id="path-13-inside-3_9483_41793" fill="white">
<path d="M100 350L100 250L350 250L350 350L100 350Z"/>
</mask>
<path d="M100 350L100 250L350 250L350 350L100 350Z" fill="#24292E"/>
<path d="M348 250L348 350L352 350L352 250L348 250Z" fill="white" mask="url(#path-13-inside-3_9483_41793)"/>
</svg>
