<svg width="590" height="378" viewBox="0 0 590 378" fill="none" xmlns="http://www.w3.org/2000/svg">
<rect x="1" y="-52" width="90.214" height="258.605" rx="11" stroke="#B392F0" stroke-width="2"/>
<rect x="1.00012" y="224.642" width="90.214" height="152.358" rx="11" stroke="#B392F0" stroke-width="2"/>
<rect x="109.251" y="68.3103" width="90.214" height="212.466" rx="11" stroke="#B392F0" stroke-width="2" stroke-dasharray="6 6"/>
<rect x="125" y="96" width="58" height="51" rx="11" stroke="#B392F0" stroke-width="2"/>
<rect x="125" y="228" width="58" height="30" rx="11" stroke="#B392F0" stroke-width="2"/>
<rect x="125" y="192" width="58" height="30" rx="11" stroke="#B392F0" stroke-width="2"/>
<rect x="125" y="156" width="58" height="30" rx="11" stroke="#B392F0" stroke-width="2"/>
<rect x="109.251" y="-52" width="90.214" height="105.233" rx="11" stroke="#B392F0" stroke-width="2"/>
<rect x="210" y="10" width="206" height="43" rx="11" stroke="#B392F0" stroke-width="2"/>
<rect x="325.753" y="68.3105" width="90.214" height="212.466" rx="11" stroke="#B392F0" stroke-width="2"/>
<rect x="337" y="80" width="67" height="167" rx="7" fill="#29134E" stroke="#B392F0" stroke-width="2"/>
<rect x="308" y="213" width="90" height="145" rx="11" transform="rotate(-180 308 213)" stroke="#B392F0" stroke-width="2"/>
<rect x="308" y="281" width="90" height="53" rx="11" transform="rotate(-180 308 281)" stroke="#B392F0" stroke-width="2"/>
<rect x="434.005" y="-49.9954" width="170.4" height="158.372" rx="11" stroke="#B392F0" stroke-width="2"/>
<rect x="434.047" y="126.047" width="154.907" height="154.907" rx="11.5133" stroke="#B392F0" stroke-width="2.09333"/>
<path d="M456.513 140C451.811 140 448 143.811 448 148.513V258.487C448 263.189 451.811 267 456.513 267H481C485.702 267 489.513 263.189 489.513 258.487V201.502C489.513 195.426 494.439 190.501 500.515 190.502L566.487 190.513C571.189 190.513 575 191.202 575 186.5V148.513C575 143.811 571.189 140 566.487 140H456.513Z" fill="#29134E" stroke="#B392F0" stroke-width="2.12822" stroke-linejoin="round"/>
<rect x="508.064" y="209.064" width="59.8718" height="56.8718" rx="7.44878" stroke="#B392F0" stroke-width="2.12822"/>
<rect x="514" y="297" width="90" height="80" rx="11" stroke="#B392F0" stroke-width="2"/>
<rect x="109.251" y="296.809" width="388.907" height="80.1907" rx="11" stroke="#B392F0" stroke-width="2"/>
</svg>
