<svg width="184" height="153" viewBox="0 0 184 153" fill="none" xmlns="http://www.w3.org/2000/svg">
<path d="M164.818 41.2178H18.9929V138.762H164.818V41.2178Z" fill="#E0E0E0"/>
<path d="M163.76 42.4097H20.0549V137.574H163.76V42.4097Z" fill="#263238"/>
<path d="M183.807 146.077H0V152.773H183.807V146.077Z" fill="#E0E0E0"/>
<path d="M0 146.077L18.993 138.762H164.818L183.811 146.077H0Z" fill="#DCDCDC"/>
<path d="M20.6892 143.483L32.9476 138.762H150.863L163.122 143.483H20.6892Z" fill="#263238"/>
<path d="M155.638 49.6371H28.1763V130.342H155.638V49.6371Z" fill="white"/>
<path d="M155.635 49.6371H28.0657V52.7427H155.635V49.6371Z" fill="#6F42C1"/>
<path d="M29.7655 51.9635C30.1917 51.9635 30.5372 51.618 30.5372 51.1918C30.5372 50.7657 30.1917 50.4202 29.7655 50.4202C29.3394 50.4202 28.9939 50.7657 28.9939 51.1918C28.9939 51.618 29.3394 51.9635 29.7655 51.9635Z" fill="#C7C7C7"/>
<path d="M32.9093 51.9635C33.3355 51.9635 33.681 51.618 33.681 51.1918C33.681 50.7657 33.3355 50.4202 32.9093 50.4202C32.4832 50.4202 32.1377 50.7657 32.1377 51.1918C32.1377 51.618 32.4832 51.9635 32.9093 51.9635Z" fill="white"/>
<path d="M36.0531 51.9635C36.4793 51.9635 36.8248 51.618 36.8248 51.1918C36.8248 50.7657 36.4793 50.4202 36.0531 50.4202C35.627 50.4202 35.2815 50.7657 35.2815 51.1918C35.2815 51.618 35.627 51.9635 36.0531 51.9635Z" fill="#6F42C1"/>
<path opacity="0.6" d="M117.14 120.082C117.14 120.343 117.062 120.599 116.917 120.816C116.772 121.033 116.566 121.203 116.324 121.303C116.083 121.403 115.817 121.429 115.56 121.378C115.304 121.327 115.069 121.201 114.884 121.016C114.699 120.831 114.573 120.596 114.522 120.34C114.471 120.083 114.497 119.817 114.597 119.576C114.697 119.334 114.867 119.128 115.084 118.983C115.301 118.837 115.557 118.76 115.818 118.76C116.169 118.76 116.505 118.899 116.753 119.147C117.001 119.395 117.14 119.731 117.14 120.082Z" fill="#6F42C1"/>
<path opacity="0.6" d="M143.586 132.138C143.587 132.399 143.51 132.655 143.365 132.873C143.22 133.091 143.014 133.261 142.773 133.361C142.531 133.462 142.265 133.489 142.009 133.438C141.752 133.388 141.516 133.262 141.331 133.077C141.146 132.893 141.019 132.657 140.968 132.401C140.917 132.144 140.943 131.878 141.043 131.636C141.143 131.395 141.312 131.188 141.529 131.043C141.747 130.897 142.003 130.82 142.264 130.82C142.614 130.82 142.95 130.958 143.197 131.205C143.445 131.452 143.585 131.788 143.586 132.138Z" fill="#6F42C1"/>
<path opacity="0.6" d="M141.561 136C141.56 136.417 141.394 136.816 141.099 137.111C140.804 137.406 140.405 137.572 139.988 137.573H41.7906C41.3732 137.573 40.9729 137.408 40.6778 137.112C40.3826 136.817 40.2168 136.417 40.2168 136C40.2168 135.582 40.3826 135.182 40.6778 134.887C40.9729 134.592 41.3732 134.426 41.7906 134.426C41.9191 134.425 42.0473 134.439 42.1726 134.468C42.1732 133.851 42.3574 133.248 42.7018 132.736C43.0462 132.225 43.5352 131.827 44.1064 131.594C44.6777 131.362 45.3053 131.304 45.9093 131.43C46.5132 131.555 47.0662 131.857 47.4977 132.298H47.5283C47.5283 132.107 47.4977 131.916 47.4977 131.717C47.4985 130.724 47.7516 129.746 48.2333 128.877C48.715 128.008 49.4096 127.276 50.2518 126.748C51.0941 126.221 52.0564 125.916 53.0487 125.863C54.0409 125.809 55.0305 126.009 55.9246 126.442C55.9913 125.494 56.3775 124.596 57.0203 123.895C57.6631 123.195 58.5245 122.733 59.4637 122.585C60.4029 122.438 61.3644 122.613 62.1911 123.082C63.0178 123.552 63.661 124.288 64.0154 125.17C64.5437 124.33 65.2764 123.639 66.145 123.16C67.0135 122.681 67.9895 122.43 68.9814 122.431C69.3583 122.431 69.7343 122.467 70.1045 122.538C70.0243 122.087 69.9846 121.629 69.9861 121.17C69.9853 119.651 70.4209 118.164 71.241 116.885C72.0611 115.606 73.2312 114.59 74.6122 113.957C75.9931 113.324 77.5269 113.101 79.0309 113.315C80.5349 113.528 81.946 114.169 83.0963 115.161C83.2279 114.904 83.4281 114.688 83.6748 114.537C83.9215 114.386 84.2052 114.306 84.4944 114.306C84.7016 114.307 84.9066 114.348 85.098 114.428L86.5725 75.0515H95.221L96.6955 114.428C97.0614 114.272 97.4732 114.26 97.8471 114.397C98.221 114.533 98.529 114.806 98.7086 115.161C99.8589 114.169 101.27 113.528 102.774 113.315C104.278 113.101 105.812 113.324 107.193 113.957C108.574 114.59 109.744 115.606 110.564 116.885C111.384 118.164 111.82 119.651 111.819 121.17C111.82 121.629 111.781 122.087 111.7 122.538C112.069 122.467 112.444 122.432 112.82 122.431C113.812 122.43 114.788 122.681 115.656 123.16C116.525 123.639 117.257 124.33 117.786 125.17C118.154 124.312 118.799 123.601 119.617 123.149C120.435 122.698 121.38 122.532 122.303 122.678C123.225 122.824 124.073 123.273 124.712 123.955C125.351 124.637 125.745 125.512 125.831 126.442C126.725 126.005 127.715 125.803 128.708 125.855C129.702 125.906 130.666 126.209 131.51 126.735C132.354 127.262 133.05 127.994 133.534 128.864C134.017 129.733 134.271 130.711 134.273 131.706C134.273 131.901 134.273 132.088 134.242 132.287H134.273C134.704 131.846 135.257 131.543 135.861 131.418C136.465 131.293 137.093 131.35 137.664 131.583C138.235 131.816 138.724 132.213 139.069 132.725C139.413 133.237 139.597 133.839 139.598 134.456C139.723 134.428 139.851 134.414 139.98 134.414C140.188 134.413 140.395 134.454 140.587 134.533C140.78 134.612 140.955 134.729 141.102 134.877C141.249 135.024 141.365 135.199 141.444 135.392C141.523 135.585 141.563 135.791 141.561 136V136Z" fill="#8A63D2"/>
<path d="M116.666 123.038L114.627 123.413L114.168 125.567L113.714 123.413L111.67 123.035L113.702 122.538L114.168 120.506L114.634 122.538L116.666 123.038Z" fill="#FCFCFC"/>
<path d="M96.8061 105.776L94.7624 106.154L94.3079 108.305L93.8533 106.154L91.8096 105.776L93.8418 105.279L94.3079 103.243L94.7739 105.279L96.8061 105.776Z" fill="#FCFCFC"/>
<path d="M67.1325 127.137L65.9903 127.347L65.7344 128.551L65.4823 127.347L64.3401 127.133L65.4746 126.858L65.7344 125.72L65.9941 126.858L67.1325 127.137Z" fill="#FCFCFC"/>
<path d="M128.539 130.724L127.397 130.934L127.145 132.138L126.889 130.934L125.747 130.724L126.881 130.445L127.145 129.311L127.404 130.445L128.539 130.724Z" fill="#FCFCFC"/>
<path d="M51.4245 134.941L50.2861 135.152L50.0302 136.355L49.7743 135.152L48.6321 134.941L49.7704 134.663L50.0302 133.524L50.29 134.663L51.4245 134.941Z" fill="#FCFCFC"/>
<path d="M101.069 133.941L99.9271 134.151L99.6712 135.354L99.419 134.151L98.2769 133.941L99.4114 133.662L99.6712 132.523L99.9309 133.662L101.069 133.941Z" fill="#FCFCFC"/>
<path d="M92.715 102.502L91.5729 102.712L91.3169 103.915L91.061 102.712L89.9226 102.502L91.0571 102.223L91.3169 101.089L91.5767 102.223L92.715 102.502Z" fill="#FCFCFC"/>
<path d="M131.24 133.326C131.158 133.334 131.083 133.373 131.028 133.434C130.973 133.495 130.943 133.574 130.943 133.656C130.943 133.738 130.973 133.817 131.028 133.878C131.083 133.939 131.158 133.978 131.24 133.986C131.321 133.978 131.397 133.939 131.451 133.878C131.506 133.817 131.536 133.738 131.536 133.656C131.536 133.574 131.506 133.495 131.451 133.434C131.397 133.373 131.321 133.334 131.24 133.326V133.326Z" fill="#FCFCFC"/>
<path d="M88.2953 98.3306C88.2138 98.3394 88.1384 98.378 88.0836 98.439C88.0288 98.5 87.9985 98.5791 87.9985 98.6611C87.9985 98.743 88.0288 98.8221 88.0836 98.8831C88.1384 98.9441 88.2138 98.9827 88.2953 98.9915C88.3768 98.9827 88.4522 98.9441 88.507 98.8831C88.5618 98.8221 88.5921 98.743 88.5921 98.6611C88.5921 98.5791 88.5618 98.5 88.507 98.439C88.4522 98.378 88.3768 98.3394 88.2953 98.3306V98.3306Z" fill="#FCFCFC"/>
<path d="M60.0731 134.941C59.9916 134.95 59.9162 134.989 59.8615 135.05C59.8067 135.111 59.7764 135.19 59.7764 135.272C59.7764 135.354 59.8067 135.433 59.8615 135.494C59.9162 135.555 59.9916 135.594 60.0731 135.602C60.1546 135.594 60.23 135.555 60.2848 135.494C60.3396 135.433 60.3699 135.354 60.3699 135.272C60.3699 135.19 60.3396 135.111 60.2848 135.05C60.23 134.989 60.1546 134.95 60.0731 134.941V134.941Z" fill="#FCFCFC"/>
<path d="M81.0411 130.392C80.9529 130.392 80.8684 130.427 80.8061 130.489C80.7438 130.552 80.7087 130.636 80.7087 130.724C80.7087 130.812 80.7438 130.897 80.8061 130.959C80.8684 131.022 80.9529 131.057 81.0411 131.057C81.1292 131.057 81.2137 131.022 81.2761 130.959C81.3384 130.897 81.3734 130.812 81.3734 130.724C81.3734 130.636 81.3384 130.552 81.2761 130.489C81.2137 130.427 81.1292 130.392 81.0411 130.392V130.392Z" fill="#FCFCFC"/>
<path d="M122.95 127.378C122.888 127.378 122.829 127.402 122.786 127.446C122.742 127.49 122.717 127.549 122.717 127.611C122.717 127.673 122.742 127.732 122.786 127.776C122.829 127.819 122.888 127.844 122.95 127.844C123.012 127.844 123.071 127.819 123.115 127.776C123.159 127.732 123.183 127.673 123.183 127.611C123.183 127.549 123.159 127.49 123.115 127.446C123.071 127.402 123.012 127.378 122.95 127.378Z" fill="#FCFCFC"/>
<path d="M94.033 123.867C93.9759 123.875 93.9233 123.903 93.8853 123.946C93.8472 123.989 93.8262 124.045 93.8262 124.102C93.8262 124.16 93.8472 124.216 93.8853 124.259C93.9233 124.302 93.9759 124.33 94.033 124.337C94.0902 124.33 94.1427 124.302 94.1808 124.259C94.2188 124.216 94.2398 124.16 94.2398 124.102C94.2398 124.045 94.2188 123.989 94.1808 123.946C94.1427 123.903 94.0902 123.875 94.033 123.867V123.867Z" fill="#FCFCFC"/>
<path d="M72.8624 119.295C72.8006 119.295 72.7413 119.319 72.6976 119.363C72.6539 119.407 72.6294 119.466 72.6294 119.528C72.6294 119.59 72.6539 119.649 72.6976 119.693C72.7413 119.736 72.8006 119.761 72.8624 119.761C72.9242 119.761 72.9835 119.736 73.0272 119.693C73.0709 119.649 73.0954 119.59 73.0954 119.528C73.0954 119.466 73.0709 119.407 73.0272 119.363C72.9835 119.319 72.9242 119.295 72.8624 119.295Z" fill="#FCFCFC"/>
<path d="M109.08 120.25C108.911 120.25 108.75 120.317 108.631 120.436C108.512 120.554 108.446 120.716 108.446 120.884C108.446 121.052 108.512 121.213 108.631 121.332C108.75 121.451 108.911 121.518 109.08 121.518C109.248 121.518 109.409 121.451 109.528 121.332C109.647 121.213 109.714 121.052 109.714 120.884C109.714 120.716 109.647 120.554 109.528 120.436C109.409 120.317 109.248 120.25 109.08 120.25V120.25Z" fill="#FCFCFC"/>
<path d="M75.8612 117.148C75.693 117.148 75.5317 117.215 75.4128 117.334C75.2939 117.453 75.2271 117.614 75.2271 117.782C75.2271 117.95 75.2939 118.112 75.4128 118.23C75.5317 118.349 75.693 118.416 75.8612 118.416C76.0294 118.416 76.1906 118.349 76.3096 118.23C76.4285 118.112 76.4953 117.95 76.4953 117.782C76.4953 117.614 76.4285 117.453 76.3096 117.334C76.1906 117.215 76.0294 117.148 75.8612 117.148V117.148Z" fill="#FCFCFC"/>
<path d="M76.1705 43.9262C75.8611 43.9262 64.3285 49.2513 63.6371 62.3692C63.0106 74.4251 71.3458 85.8774 72.4231 85.1173C73.741 84.189 71.4987 76.6789 74.0619 68.0839C74.971 65.0279 78.9438 62.331 78.9438 62.331L76.1705 43.9262Z" fill="#6F42C1"/>
<path opacity="0.1" d="M78.9477 62.3309C77.7864 63.1594 76.7262 64.1209 75.7885 65.1959C74.0734 61.3759 70.8722 54.2134 68.8018 49.5759C72.1825 45.6681 75.9948 43.9453 76.1705 43.9453L78.9477 62.3309Z" fill="white"/>
<path d="M105.539 43.9491C105.848 43.9491 117.381 49.2971 118.046 62.4073C118.657 74.4671 110.302 85.9042 109.225 85.144C107.911 84.2157 110.161 76.7056 107.613 68.1068C106.708 65.0508 102.739 62.3501 102.739 62.3501L105.539 43.9491Z" fill="#6F42C1"/>
<path opacity="0.1" d="M112.942 49.6371C110.852 54.3089 107.647 61.4791 105.951 65.2609C105 64.1666 103.921 63.1895 102.739 62.35L105.539 43.9453C105.715 43.9453 109.561 45.691 112.942 49.6371Z" fill="white"/>
<path d="M99.5794 74.1003H82.1716C82.1716 74.1003 73.9701 59.4354 74.9404 41.9512C75.4293 33.2225 77.7099 24.4327 80.4564 17.1632C84.2344 7.12047 88.9063 -0.00383372 90.9309 -1.37233e-05C92.9555 0.00380628 97.6159 7.13193 101.382 17.1632C104.11 24.4212 106.379 33.2302 106.856 41.9589C107.804 59.443 99.5794 74.1003 99.5794 74.1003Z" fill="#EBEBEB"/>
<path d="M101.321 39.6936C101.321 41.6801 100.731 43.6217 99.6265 45.2728C98.5222 46.924 96.953 48.2106 95.1174 48.9699C93.2818 49.7292 91.2623 49.9271 89.3142 49.5386C87.3662 49.15 85.5771 48.1925 84.1733 46.7871C82.7694 45.3816 81.8139 43.5915 81.4276 41.643C81.0413 39.6944 81.2415 37.6751 82.0029 35.8404C82.7643 34.0057 84.0527 32.438 85.7051 31.3356C87.3576 30.2331 89.2998 29.6455 91.2863 29.647C93.9491 29.649 96.5022 30.7085 98.384 32.5925C100.266 34.4765 101.322 37.0308 101.321 39.6936V39.6936Z" fill="#C7C7C7"/>
<path d="M100.966 38.6699C100.965 40.6563 100.376 42.5979 99.2713 44.2491C98.167 45.9003 96.5978 47.1869 94.7622 47.9462C92.9266 48.7055 90.9071 48.9034 88.959 48.5148C87.0109 48.1263 85.2218 47.1687 83.818 45.7633C82.4142 44.3579 81.4587 42.5677 81.0724 40.6192C80.686 38.6707 80.8862 36.6514 81.6476 34.8167C82.409 32.9819 83.6974 31.4142 85.3499 30.3118C87.0023 29.2094 88.9446 28.6218 90.931 28.6233C93.5939 28.6253 96.1469 29.6848 98.0288 31.5688C99.9106 33.4528 100.967 36.007 100.966 38.6699V38.6699Z" fill="#6F42C1"/>
<path d="M97.8872 38.666C97.8872 40.0433 97.4788 41.3897 96.7136 42.5349C95.9484 43.6801 94.8608 44.5727 93.5883 45.0998C92.3158 45.6269 90.9156 45.7648 89.5648 45.4961C88.2139 45.2274 86.973 44.5641 85.9991 43.5902C85.0252 42.6163 84.362 41.3754 84.0933 40.0246C83.8246 38.6737 83.9625 37.2735 84.4896 36.0011C85.0166 34.7286 85.9092 33.641 87.0544 32.8758C88.1996 32.1106 89.546 31.7021 90.9233 31.7021C91.8378 31.7021 92.7434 31.8823 93.5883 32.2322C94.4332 32.5822 95.2009 33.0952 95.8475 33.7418C96.4942 34.3885 97.0071 35.1562 97.3571 36.0011C97.7071 36.846 97.8872 37.7515 97.8872 38.666Z" fill="white"/>
<path d="M97.8912 38.6622C97.892 39.526 97.7314 40.3824 97.4176 41.1872L93.4486 45.1562C92.6451 45.4695 91.7898 45.6289 90.9274 45.6261C90.2972 45.6273 89.6698 45.5411 89.0632 45.3701L97.6353 36.8019C97.8045 37.4075 97.8906 38.0334 97.8912 38.6622V38.6622Z" fill="#EBEBEB"/>
<path d="M91.9471 31.7786L84.0359 39.686C83.9851 39.3483 83.9596 39.0074 83.9595 38.666C83.9606 37.6658 84.1773 36.6776 84.5947 35.7687C85.0122 34.8598 85.6207 34.0515 86.3788 33.399C87.1368 32.7464 88.0266 32.2649 88.9875 31.9873C89.9484 31.7096 90.9578 31.6423 91.9471 31.79V31.7786Z" fill="#EBEBEB"/>
<path d="M97.0203 35.293L87.5543 44.7551C87.37 44.6557 87.1915 44.5461 87.0195 44.4266L96.6918 34.7582C96.7987 34.9301 96.9133 35.1096 97.0203 35.293Z" fill="#EBEBEB"/>
<path d="M101.383 17.1632H80.4529C84.2309 7.12047 88.9027 -0.00383372 90.9273 -1.37233e-05C92.9519 0.00380628 97.6161 7.13193 101.383 17.1632Z" fill="#6F42C1"/>
<path d="M84.0589 14.9896C84.0559 15.1045 84.019 15.216 83.953 15.3101C83.887 15.4042 83.7947 15.4767 83.6877 15.5186C83.5806 15.5605 83.4637 15.5699 83.3513 15.5457C83.239 15.5214 83.1362 15.4646 83.056 15.3823C82.9758 15.3 82.9216 15.1958 82.9003 15.0829C82.879 14.9699 82.8914 14.8532 82.936 14.7473C82.9807 14.6414 83.0556 14.551 83.1513 14.4874C83.2471 14.4239 83.3595 14.3899 83.4744 14.3899C83.5525 14.3899 83.6297 14.4055 83.7017 14.4358C83.7736 14.4661 83.8387 14.5106 83.8932 14.5665C83.9477 14.6224 83.9904 14.6886 84.0188 14.7613C84.0473 14.834 84.0609 14.9116 84.0589 14.9896V14.9896Z" fill="white"/>
<path d="M87.7834 14.9897C87.7811 15.1057 87.7446 15.2184 87.6784 15.3137C87.6123 15.409 87.5194 15.4826 87.4115 15.5253C87.3036 15.5679 87.1855 15.5777 87.0721 15.5534C86.9586 15.5291 86.8549 15.4719 86.7739 15.3888C86.6929 15.3057 86.6383 15.2005 86.617 15.0865C86.5956 14.9724 86.6085 14.8546 86.6539 14.7479C86.6993 14.6411 86.7753 14.5502 86.8723 14.4865C86.9693 14.4228 87.0829 14.3892 87.1989 14.3899C87.2768 14.3904 87.3539 14.4064 87.4255 14.4369C87.4972 14.4674 87.5622 14.5118 87.6165 14.5676C87.6709 14.6234 87.7136 14.6894 87.7423 14.7619C87.7709 14.8343 87.7849 14.9118 87.7834 14.9897V14.9897Z" fill="white"/>
<path d="M91.5078 14.9935C91.5086 15.1101 91.4746 15.2244 91.4103 15.3217C91.3459 15.4191 91.2541 15.495 91.1465 15.54C91.0388 15.585 90.9202 15.597 90.8057 15.5744C90.6913 15.5519 90.5861 15.4958 90.5036 15.4133C90.4211 15.3307 90.365 15.2256 90.3424 15.1111C90.3198 14.9966 90.3318 14.878 90.3768 14.7704C90.4218 14.6627 90.4978 14.5709 90.5951 14.5066C90.6924 14.4422 90.8067 14.4083 90.9234 14.409C91.0784 14.409 91.2271 14.4706 91.3367 14.5802C91.4463 14.6898 91.5078 14.8385 91.5078 14.9935V14.9935Z" fill="white"/>
<path d="M95.2325 14.9973C95.2325 15.1136 95.198 15.2274 95.1333 15.3241C95.0687 15.4209 94.9768 15.4963 94.8693 15.5408C94.7618 15.5853 94.6435 15.597 94.5294 15.5743C94.4153 15.5516 94.3105 15.4955 94.2282 15.4133C94.1459 15.331 94.0899 15.2262 94.0672 15.1121C94.0445 14.9979 94.0562 14.8797 94.1007 14.7722C94.1452 14.6647 94.2206 14.5728 94.3174 14.5082C94.4141 14.4435 94.5278 14.409 94.6442 14.409C94.7216 14.4085 94.7983 14.4234 94.8699 14.4528C94.9415 14.4821 95.0066 14.5255 95.0613 14.5802C95.116 14.6349 95.1593 14.7 95.1887 14.7716C95.2181 14.8432 95.233 14.9199 95.2325 14.9973V14.9973Z" fill="white"/>
<path d="M98.9529 14.9973C98.9537 15.114 98.9197 15.2282 98.8554 15.3256C98.791 15.4229 98.6992 15.4989 98.5915 15.5439C98.4839 15.5889 98.3653 15.6008 98.2508 15.5783C98.1363 15.5557 98.0312 15.4996 97.9487 15.4171C97.8662 15.3346 97.8101 15.2294 97.7875 15.1149C97.7649 15.0005 97.7769 14.8819 97.8219 14.7742C97.8669 14.6666 97.9429 14.5747 98.0402 14.5104C98.1375 14.446 98.2518 14.4121 98.3684 14.4128C98.5231 14.4138 98.6712 14.4757 98.7806 14.5851C98.89 14.6945 98.9519 14.8426 98.9529 14.9973V14.9973Z" fill="white"/>
<path d="M84.0359 71.4111C84.0359 71.5276 84.0013 71.6415 83.9365 71.7383C83.8717 71.8351 83.7796 71.9105 83.6719 71.9549C83.5642 71.9994 83.4457 72.0108 83.3315 71.9878C83.2172 71.9648 83.1124 71.9083 83.0303 71.8257C82.9482 71.743 82.8925 71.6379 82.8702 71.5235C82.848 71.4091 82.8601 71.2907 82.9053 71.1833C82.9504 71.0759 83.0264 70.9843 83.1236 70.9201C83.2209 70.8559 83.335 70.822 83.4515 70.8228C83.6068 70.8238 83.7555 70.8862 83.865 70.9965C83.9745 71.1067 84.0359 71.2557 84.0359 71.4111V71.4111Z" fill="#C7C7C7"/>
<path d="M87.7605 71.4111C87.7613 71.5276 87.7274 71.6417 87.6632 71.739C87.5991 71.8362 87.5075 71.9122 87.4 71.9573C87.2926 72.0024 87.1742 72.0146 87.0598 71.9923C86.9455 71.9701 86.8403 71.9144 86.7576 71.8322C86.675 71.7501 86.6186 71.6453 86.5956 71.5311C86.5726 71.4169 86.584 71.2984 86.6284 71.1907C86.6728 71.083 86.7482 70.9909 86.845 70.926C86.9418 70.8612 87.0557 70.8266 87.1722 70.8266C87.3276 70.8266 87.4767 70.8881 87.5869 70.9976C87.6971 71.1071 87.7595 71.2557 87.7605 71.4111Z" fill="#C7C7C7"/>
<path d="M91.4849 71.4149C91.4849 71.5313 91.4504 71.645 91.3858 71.7417C91.3211 71.8385 91.2293 71.9139 91.1218 71.9584C91.0143 72.0029 90.896 72.0146 90.7819 71.9919C90.6678 71.9692 90.5629 71.9132 90.4807 71.8309C90.3984 71.7486 90.3424 71.6438 90.3197 71.5297C90.297 71.4156 90.3086 71.2973 90.3531 71.1898C90.3977 71.0823 90.4731 70.9904 90.5698 70.9258C90.6665 70.8611 90.7803 70.8266 90.8966 70.8266C90.9739 70.8266 91.0504 70.8418 91.1218 70.8714C91.1931 70.901 91.258 70.9443 91.3126 70.9989C91.3672 71.0536 91.4106 71.1184 91.4401 71.1898C91.4697 71.2612 91.4849 71.3377 91.4849 71.4149V71.4149Z" fill="#C7C7C7"/>
<path d="M95.2056 71.4187C95.2056 71.5352 95.171 71.6491 95.1062 71.7459C95.0414 71.8427 94.9493 71.9181 94.8416 71.9626C94.7339 72.007 94.6154 72.0184 94.5012 71.9954C94.3869 71.9724 94.2821 71.916 94.2 71.8333C94.1179 71.7507 94.0622 71.6455 94.0399 71.5311C94.0176 71.4167 94.0298 71.2983 94.0749 71.1909C94.12 71.0835 94.196 70.9919 94.2933 70.9277C94.3905 70.8635 94.5046 70.8297 94.6211 70.8304C94.7765 70.8314 94.9252 70.8939 95.0347 71.0041C95.1442 71.1143 95.2056 71.2633 95.2056 71.4187V71.4187Z" fill="#C7C7C7"/>
<path d="M98.9302 71.4187C98.931 71.5354 98.897 71.6497 98.8327 71.747C98.7683 71.8443 98.6765 71.9203 98.5688 71.9653C98.4612 72.0103 98.3426 72.0223 98.2281 71.9997C98.1136 71.9771 98.0085 71.921 97.926 71.8385C97.8435 71.756 97.7874 71.6508 97.7648 71.5364C97.7422 71.4219 97.7542 71.3033 97.7992 71.1957C97.8442 71.088 97.9202 70.9962 98.0175 70.9318C98.1148 70.8675 98.2291 70.8335 98.3457 70.8343C98.5004 70.8353 98.6485 70.8972 98.7579 71.0066C98.8673 71.116 98.9292 71.264 98.9302 71.4187V71.4187Z" fill="#C7C7C7"/>
<path d="M97.9752 79.3337L83.8144 79.3223L83.1536 74.0889L98.6437 74.1003L97.9752 79.3337Z" fill="#6F42C1"/>
<path opacity="0.1" d="M98.6437 74.1003L98.3152 76.6483L83.4058 76.0906L83.1575 74.0889L98.6437 74.1003Z" fill="white"/>
<path d="M121.98 102.361H115.818V126.4H121.98V102.361Z" fill="#6F42C1"/>
<path d="M121.98 127.588H115.818V131.546H121.98V127.588Z" fill="#6F42C1"/>
<path d="M121.98 132.734H115.818V135.175H121.98V132.734Z" fill="#6F42C1"/>
<path d="M121.98 136.363H115.818V137.574H121.98V136.363Z" fill="#6F42C1"/>
<path d="M124.031 102.361H113.763L118.897 95.2556L124.031 102.361Z" fill="#6F42C1"/>
<path d="M134.242 94.7208H128.081V126.4H134.242V94.7208Z" fill="#6F42C1"/>
<path d="M134.242 127.588H128.081V131.546H134.242V127.588Z" fill="#6F42C1"/>
<path d="M134.242 132.734H128.081V135.175H134.242V132.734Z" fill="#6F42C1"/>
<path d="M134.242 136.363H128.081V137.574H134.242V136.363Z" fill="#6F42C1"/>
<path d="M136.297 94.7208H126.025L131.163 87.6156L136.297 94.7208Z" fill="#6F42C1"/>
<path d="M146.508 87.0808H140.347V126.4H146.508V87.0808Z" fill="#6F42C1"/>
<path d="M146.508 127.588H140.347V131.546H146.508V127.588Z" fill="#6F42C1"/>
<path d="M146.508 132.734H140.347V135.175H146.508V132.734Z" fill="#6F42C1"/>
<path d="M146.508 136.363H140.347V137.574H146.508V136.363Z" fill="#6F42C1"/>
<path d="M148.56 87.0808H138.292L143.426 79.9756L148.56 87.0808Z" fill="#6F42C1"/>
<path d="M158.771 79.4408H152.609V126.4H158.771V79.4408Z" fill="#6F42C1"/>
<path d="M158.771 127.588H152.609V131.546H158.771V127.588Z" fill="#6F42C1"/>
<path d="M158.771 132.734H152.609V135.175H158.771V132.734Z" fill="#6F42C1"/>
<path d="M158.771 136.363H152.609V137.574H158.771V136.363Z" fill="#6F42C1"/>
<path d="M160.826 79.4408H150.557L155.691 72.3356L160.826 79.4408Z" fill="#6F42C1"/>
</svg>
