<svg width="154" height="109" viewBox="0 0 154 109" fill="none" xmlns="http://www.w3.org/2000/svg">
<path d="M69.6119 104.011H68.2664V103.097H68.7149V102.646H69.6119V104.011Z" fill="#24292E"/>
<path d="M66.4723 104.011H64.6669V103.098H66.4723V104.011ZM62.8728 104.011H61.0787V103.098H62.8728V104.011ZM59.2846 104.011H57.4904V103.098H59.2846V104.011ZM55.6851 104.011H53.891V103.098H55.6851V104.011ZM52.0969 104.011H50.3027V103.098H52.0969V104.011ZM48.5086 104.011H46.7033V103.098H48.5086V104.011ZM44.9092 104.011H43.115V103.098H44.9092V104.011ZM41.321 104.011H39.482V103.098H41.2761L41.321 104.011ZM37.7215 104.011H35.9274V103.098H37.7215V104.011ZM34.1333 104.011H32.3391V103.098H34.1333V104.011ZM30.545 104.011H28.7397V103.098H30.5114L30.545 104.011ZM26.9456 104.011H25.1514V103.098H26.9456V104.011ZM23.3573 104.011H21.5408V103.098H23.3349L23.3573 104.011ZM19.7579 104.011H17.9637V103.098H19.7579V104.011ZM16.1696 104.011H14.3755V103.098H16.1696V104.011ZM12.5814 104.011H10.7873V103.098H12.5702L12.5814 104.011ZM8.98193 104.011H7.18784V103.098H8.98193V104.011Z" fill="#24292E"/>
<path d="M5.39368 104.011H4.04808V102.646H4.94516V103.097H5.39368V104.011Z" fill="#24292E"/>
<path d="M4.94516 100.842H4.04808V99.0375H4.94516V100.842ZM4.94516 97.2331H4.04808V95.4287H4.94516V97.2331ZM4.94516 93.613H4.04808V91.8198H4.94516V93.613ZM4.94516 90.0042H4.04808V88.1997H4.94516V90.0042ZM4.94516 86.3953H4.04808V84.5797H4.94516V86.3953ZM4.94516 82.7752H4.04808V80.9708H4.94516V82.7752ZM4.94516 79.1664H4.04808V77.362H4.94516V79.1664ZM4.94516 75.5576H4.04808V73.7758H4.94516V75.5576ZM4.94516 71.9375H4.04808V70.1331H4.94516V71.9375ZM4.94516 68.3287H4.04808V66.5243H4.94516V68.3287ZM4.94516 64.7086H4.04808V62.9042H4.94516V64.7086ZM4.94516 61.0998H4.04808V59.2954H4.94516V61.0998ZM4.94516 57.491H4.04808V55.7317H4.94516V57.491ZM4.94516 53.8709H4.04808V52.0665H4.94516V53.8709ZM4.94516 50.2621H4.04808V48.4577H4.94516V50.2621ZM4.94516 46.642H4.04808V44.8376H4.94516V46.642ZM4.94516 43.0332H4.04808V41.2288H4.94516V43.0332Z" fill="#24292E"/>
<path d="M4.94516 39.4244H4.04808V38.0598H5.39368V38.9733H4.94516V39.4244Z" fill="#24292E"/>
<path d="M66.4723 38.9733H64.6669V38.0598H66.4723V38.9733ZM62.8728 38.9733H61.0787V38.0598H62.8728V38.9733ZM59.2846 38.9733H57.4904V38.0598H59.2846V38.9733ZM55.6851 38.9733H53.891V38.0598H55.6851V38.9733ZM52.0969 38.9733H50.3027V38.0598H52.0969V38.9733ZM48.5086 38.9733H46.7033V38.0598H48.5086V38.9733ZM44.9092 38.9733H43.115V38.0598H44.9092V38.9733ZM41.321 38.9733H39.482V38.0598H41.2761L41.321 38.9733ZM37.7215 38.9733H35.9274V38.0598H37.7215V38.9733ZM34.1333 38.9733H32.3391V38.0598H34.1333V38.9733ZM30.545 38.9733H28.7397V38.0598H30.5114L30.545 38.9733ZM26.9456 38.9733H25.1514V38.0598H26.9456V38.9733ZM23.3573 38.9733H21.5408V38.0598H23.3349L23.3573 38.9733ZM19.7691 38.9733H17.9637V38.0598H19.7691V38.9733ZM16.1696 38.9733H14.3755V38.0598H16.1696V38.9733ZM12.5814 38.9733H10.7873V38.0598H12.5702L12.5814 38.9733ZM8.98193 38.9733H7.18784V38.0598H8.98193V38.9733Z" fill="#24292E"/>
<path d="M69.6119 39.4244H68.7149V38.9733H68.2664V38.0598H69.6119V39.4244Z" fill="#24292E"/>
<path d="M69.6119 100.842H68.7149V99.0375H69.6119V100.842ZM69.6119 97.2331H68.7149V95.4287H69.6119V97.2331ZM69.6119 93.6243H68.7149V91.8198H69.6119V93.6243ZM69.6119 90.0042H68.7149V88.1997H69.6119V90.0042ZM69.6119 86.3953H68.7149V84.5909H69.6119V86.3953ZM69.6119 82.7752H68.7149V80.9708H69.6119V82.7752ZM69.6119 79.1664H68.7149V77.362H69.6119V79.1664ZM69.6119 75.5576H68.7149V73.7758H69.6119V75.5576ZM69.6119 71.9375H68.7149V70.1331H69.6119V71.9375ZM69.6119 68.3287H68.7149V66.5243H69.6119V68.3287ZM69.6119 64.7086H68.7149V62.9042H69.6119V64.7086ZM69.6119 61.0998H68.7149V59.2954H69.6119V61.0998ZM69.6119 57.491H68.7149V55.7317H69.6119V57.491ZM69.6119 53.8709H68.7149V52.0665H69.6119V53.8709ZM69.6119 50.2621H68.7149V48.4577H69.6119V50.2621ZM69.6119 46.642H68.7149V44.8376H69.6119V46.642ZM69.6119 43.0332H68.7149V41.2288H69.6119V43.0332Z" fill="#24292E"/>
<path d="M8.52224 99.4999H0.459915V107.608H8.52224V99.4999Z" fill="white"/>
<path d="M8.97074 108.06H0.000144958V99.0375H8.97074V108.06ZM0.919605 107.157H8.08489V99.951H0.930829L0.919605 107.157Z" fill="#24292E"/>
<path d="M8.55588 66.9867H0.493553V75.0953H8.55588V66.9867Z" fill="white"/>
<path d="M8.97074 75.5351H0.000144958V66.5131H8.97074V75.5351ZM0.919605 74.6329H8.08489V67.4378H0.930829L0.919605 74.6329Z" fill="#24292E"/>
<path d="M8.55588 34.4623H0.493553V42.5708H8.55588V34.4623Z" fill="white"/>
<path d="M8.9706 43.022H0V34H8.9706V43.022ZM0.91946 42.1198H8.08474V34.9135H0.930684L0.91946 42.1198Z" fill="#24292E"/>
<path d="M73.2338 99.4999H65.1715V107.608H73.2338V99.4999Z" fill="white"/>
<path d="M73.6375 108.06H64.6669V99.0375H73.6375V108.06ZM65.5864 107.157H72.7405V99.951H65.5864V107.157Z" fill="#24292E"/>
<path d="M73.2338 66.9867H65.1715V75.0953H73.2338V66.9867Z" fill="white"/>
<path d="M73.6375 75.5351H64.6669V66.5131H73.6375V75.5351ZM65.5864 74.6329H72.7405V67.4378H65.5864V74.6329Z" fill="#24292E"/>
<path d="M73.2338 34.4623H65.1715V42.5708H73.2338V34.4623Z" fill="white"/>
<path d="M73.6375 43.022H64.6669V34H73.6375V43.022ZM65.5864 42.1198H72.7405V34.9135H65.5864V42.1198Z" fill="#24292E"/>
<path d="M40.8948 34.4623H32.8325V42.5708H40.8948V34.4623Z" fill="white"/>
<path d="M41.3097 43.022H32.3391V34H41.3097V43.022ZM33.2473 42.1198H40.4126V34.9135H33.2473V42.1198Z" fill="#24292E"/>
<path d="M40.8612 99.4999H32.7988V107.608H40.8612V99.4999Z" fill="white"/>
<path d="M41.3097 108.06H32.3391V99.0375H41.3097V108.06ZM33.2473 107.157H40.4126V99.951H33.2473V107.157Z" fill="#24292E"/>
<path d="M153.005 0.28186H33.8079V86.2732H153.005V0.28186Z" fill="white"/>
<path d="M153.285 86.5552H33.5275V0H153.285V86.5552ZM34.0882 85.9913H152.724V0.530046H34.0882V85.9913Z" fill="#EBEBEB"/>
<path d="M153.005 0.28186H33.8079V10.77H153.005V0.28186Z" fill="#6F42C1"/>
<path d="M153.285 11.052H33.5275V0H153.285V11.052ZM34.0882 10.4881H152.724V0.530046H34.0882V10.4881Z" fill="#EBEBEB"/>
<path d="M43.5971 5.60501C43.5971 6.12695 43.4432 6.63716 43.1549 7.07113C42.8666 7.5051 42.4568 7.84334 41.9774 8.04308C41.4979 8.24281 40.9703 8.29507 40.4613 8.19325C39.9524 8.09143 39.4848 7.84009 39.1179 7.47103C38.7509 7.10196 38.501 6.63175 38.3998 6.11985C38.2985 5.60794 38.3505 5.07733 38.5491 4.59513C38.7477 4.11292 39.084 3.70078 39.5155 3.41081C39.947 3.12083 40.4543 2.96606 40.9732 2.96606C41.6691 2.96606 42.3365 3.2441 42.8286 3.739C43.3207 4.23389 43.5971 4.90512 43.5971 5.60501Z" fill="#263238"/>
<path d="M54.317 5.60504C54.317 6.12649 54.1634 6.63625 53.8755 7.06998C53.5877 7.5037 53.1786 7.84194 52.6998 8.04201C52.221 8.24207 51.694 8.29498 51.1853 8.19407C50.6766 8.09316 50.209 7.84294 49.8416 7.47501C49.4742 7.10707 49.2235 6.63791 49.1209 6.12675C49.0184 5.61559 49.0688 5.08534 49.2657 4.60294C49.4626 4.12055 49.7971 3.70762 50.2271 3.4163C50.6572 3.12498 51.1634 2.96832 51.6818 2.96609C52.0274 2.9646 52.3698 3.03177 52.6894 3.16372C53.0091 3.29567 53.2996 3.48982 53.5445 3.73502C53.7893 3.98022 53.9836 4.27163 54.1162 4.59254C54.2487 4.91345 54.317 5.25753 54.317 5.60504Z" fill="#EBEBEB"/>
<path d="M65.0369 5.60501C65.0369 6.12695 64.883 6.63716 64.5947 7.07113C64.3064 7.5051 63.8966 7.84334 63.4171 8.04308C62.9377 8.24281 62.4101 8.29507 61.9011 8.19325C61.3921 8.09143 60.9246 7.84009 60.5576 7.47103C60.1907 7.10196 59.9408 6.63175 59.8395 6.11985C59.7383 5.60794 59.7902 5.07733 59.9888 4.59513C60.1874 4.11292 60.5237 3.70078 60.9552 3.41081C61.3867 3.12083 61.8941 2.96606 62.413 2.96606C63.1089 2.96606 63.7763 3.2441 64.2684 3.739C64.7605 4.23389 65.0369 4.90512 65.0369 5.60501Z" fill="#455A64"/>
<path d="M153.005 10.2062H33.8079V11.3339H153.005V10.2062Z" fill="#EBEBEB"/>
<path d="M48.5197 27.2352H44.6848V28.6449H48.5197V27.2352Z" fill="#EBEBEB"/>
<path d="M98.6989 27.2352H51.3005V28.6449H98.6989V27.2352Z" fill="#EBEBEB"/>
<path d="M109.452 27.2352H101.054V28.6449H109.452V27.2352Z" fill="#6F42C1"/>
<path d="M121.103 46.0575H113.826V47.4672H121.103V46.0575Z" fill="#EBEBEB"/>
<path d="M135.557 27.2352H111.033V28.6449H135.557V27.2352Z" fill="#A6A6A6"/>
<path d="M52.3434 30.9907H48.5085V32.4004H52.3434V30.9907Z" fill="#EBEBEB"/>
<path d="M92.8343 30.9907H55.0345V32.4004H92.8343V30.9907Z" fill="#A6A6A6"/>
<path d="M112.099 46.0575H100.067V47.4672H112.099V46.0575Z" fill="#A6A6A6"/>
<path d="M78.8402 42.2908H51.3005V43.7005H78.8402V42.2908Z" fill="#A6A6A6"/>
<path d="M74.3549 34.7573H55.0345V36.167H74.3549V34.7573Z" fill="#6F42C1"/>
<path d="M126.362 38.524H107.042V39.9337H126.362V38.524Z" fill="#A6A6A6"/>
<path d="M111.942 34.7573H76.508V36.167H111.942V34.7573Z" fill="#A6A6A6"/>
<path d="M97.5664 46.0575H51.3005V47.4672H97.5664V46.0575Z" fill="#6F42C1"/>
<path d="M142.139 30.9907H110.226V32.4004H142.139V30.9907Z" fill="#6F42C1"/>
<path d="M108.645 30.9907H94.651V32.4004H108.645V30.9907Z" fill="#EBEBEB"/>
<path d="M137.743 34.7573H125.342V36.167H137.743V34.7573Z" fill="#EBEBEB"/>
<path d="M52.3434 34.7573H48.5085V36.167H52.3434V34.7573Z" fill="#EBEBEB"/>
<path d="M48.5197 38.524H44.6848V39.9337H48.5197V38.524Z" fill="#A6A6A6"/>
<path d="M73.9401 38.524H51.3005V39.9337H73.9401V38.524Z" fill="#EBEBEB"/>
<path d="M77.674 49.8242H55.0345V51.2339H77.674V49.8242Z" fill="#EBEBEB"/>
<path d="M130.982 53.5909H100.706V55.0006H130.982V53.5909Z" fill="#6F42C1"/>
<path d="M105.674 49.8242H79.5131V51.2339H105.674V49.8242Z" fill="#6F42C1"/>
<path d="M98.7325 53.5909H75.5099V55.0006H98.7325V53.5909Z" fill="#EBEBEB"/>
<path d="M61.583 53.5909H55.0345V55.0006H61.583V53.5909Z" fill="#A6A6A6"/>
<path d="M109.453 42.2908H80.399V43.7005H109.453V42.2908Z" fill="#EBEBEB"/>
<path d="M138.551 42.2908H111.033V43.7005H138.551V42.2908Z" fill="#6F42C1"/>
<path d="M104.137 38.524H76.2388V39.9337H104.137V38.524Z" fill="#6F42C1"/>
<path d="M48.5197 42.2908H44.6848V43.7005H48.5197V42.2908Z" fill="#EBEBEB"/>
<path d="M48.5197 46.0575H44.6848V47.4672H48.5197V46.0575Z" fill="#EBEBEB"/>
<path d="M52.3434 49.8242H48.5085V51.2339H52.3434V49.8242Z" fill="#A6A6A6"/>
<path d="M52.3434 53.5909H48.5085V55.0006H52.3434V53.5909Z" fill="#EBEBEB"/>
<path d="M48.5197 56.7485H44.6848V58.1582H48.5197V56.7485Z" fill="#EBEBEB"/>
<path d="M105.18 56.7485H51.3005V58.1582H105.18V56.7485Z" fill="#EBEBEB"/>
<path d="M52.3434 60.504H48.5085V61.9137H52.3434V60.504Z" fill="#EBEBEB"/>
<path d="M92.8343 60.504H55.0345V61.9137H92.8343V60.504Z" fill="#A6A6A6"/>
<path d="M78.8402 71.8042H51.3005V73.2139H78.8402V71.8042Z" fill="#A6A6A6"/>
<path d="M74.3549 64.2708H55.0345V65.6804H74.3549V64.2708Z" fill="#6F42C1"/>
<path d="M111.942 64.2708H76.508V65.6804H111.942V64.2708Z" fill="#A6A6A6"/>
<path d="M97.5664 75.5708H51.3005V76.9805H97.5664V75.5708Z" fill="#6F42C1"/>
<path d="M142.139 60.504H110.226V61.9137H142.139V60.504Z" fill="#6F42C1"/>
<path d="M108.645 60.504H94.651V61.9137H108.645V60.504Z" fill="#EBEBEB"/>
<path d="M137.743 64.2708H125.342V65.6804H137.743V64.2708Z" fill="#EBEBEB"/>
<path d="M52.3434 64.2708H48.5085V65.6804H52.3434V64.2708Z" fill="#EBEBEB"/>
<path d="M48.5197 68.0374H44.6848V69.447H48.5197V68.0374Z" fill="#A6A6A6"/>
<path d="M73.9401 68.0374H51.3005V69.447H73.9401V68.0374Z" fill="#EBEBEB"/>
<path d="M109.453 71.8042H80.399V73.2139H109.453V71.8042Z" fill="#EBEBEB"/>
<path d="M104.137 68.0374H76.2388V69.447H104.137V68.0374Z" fill="#6F42C1"/>
<path d="M48.5197 71.8042H44.6848V73.2139H48.5197V71.8042Z" fill="#EBEBEB"/>
</svg>
