<svg width="117" height="98" viewBox="0 0 117 98" fill="none" xmlns="http://www.w3.org/2000/svg">
<g filter="url(#filter0_d_3818_23758)">
<path d="M74.2956 13.0828C76.4325 10.7162 80.0833 10.53 82.45 12.6669L89.0777 18.6512C91.4444 20.7881 91.6306 24.439 89.4937 26.8056L83.5093 33.4334C81.3724 35.8 77.7216 35.9863 75.3549 33.8494L68.7272 27.865C66.3605 25.7281 66.1743 22.0773 68.3112 19.7106L74.2956 13.0828Z" fill="url(#paint0_linear_3818_23758)"/>
<path d="M33.6261 11.7878C35.763 9.42118 39.4138 9.23493 41.7805 11.3718L48.4082 17.3562C50.7749 19.4931 50.9611 23.144 48.8242 25.5106L42.8398 32.1384C40.7029 34.505 37.0521 34.6913 34.6855 32.5544L28.0577 26.57C25.691 24.4331 25.5048 20.7822 27.6417 18.4156L33.6261 11.7878Z" fill="url(#paint1_linear_3818_23758)"/>
<path d="M53.001 14.8833C55.1379 12.5167 58.7887 12.3304 61.1554 14.4673L67.7831 20.4517C70.1498 22.5886 70.336 26.2395 68.1991 28.6061L62.2147 35.2339C60.0778 37.6005 56.427 37.7868 54.0603 35.6499L47.4326 29.6655C45.0659 27.5286 44.8797 23.8777 47.0166 21.5111L53.001 14.8833Z" fill="url(#paint2_linear_3818_23758)"/>
<path d="M73.5533 12.4127L67.6333 18.9692L61.8255 13.7251C59.049 11.2181 54.7658 11.4366 52.2587 14.2132L49.6086 17.1482C49.4437 16.9627 49.2669 16.7842 49.0784 16.614L42.4506 10.6296C39.6741 8.1226 35.3909 8.3411 32.8839 11.1177L26.8995 17.7454C24.3925 20.522 24.611 24.8052 27.3875 27.3122L34.0153 33.2966C36.7919 35.8036 41.075 35.5851 43.5821 32.8085L46.2322 29.8734C46.3971 30.059 46.5739 30.2375 46.7624 30.4077L53.3902 36.3921C56.1667 38.8991 60.4499 38.6806 62.9569 35.904L68.8769 29.3476L74.6848 34.5916C77.4613 37.0986 81.7445 36.8801 84.2515 34.1036L90.2359 27.4758C92.7429 24.6992 92.5244 20.416 89.7479 17.909L83.1201 11.9246C80.3436 9.41762 76.0604 9.63612 73.5533 12.4127Z" stroke="#5A32A3" stroke-width="2"/>
</g>
<g filter="url(#filter1_d_3818_23758)">
<path fill-rule="evenodd" clip-rule="evenodd" d="M59.0647 48.0671C72.2654 48.0671 82.9668 37.3069 82.9668 24.0335C82.9668 10.7602 72.2654 0 59.0647 0C45.8639 0 35.1626 10.7602 35.1626 24.0335C35.1626 37.3069 45.8639 48.0671 59.0647 48.0671ZM59.0647 40.9414C68.3516 40.9414 75.8801 33.3715 75.8801 24.0336C75.8801 14.6956 68.3516 7.12574 59.0647 7.12574C49.7778 7.12574 42.2493 14.6956 42.2493 24.0336C42.2493 33.3715 49.7778 40.9414 59.0647 40.9414Z" fill="#37474F"/>
</g>
<path d="M97.7944 20.8582H19.2403C11.3025 20.8582 5.46621 28.2998 7.35788 36.0088L19.8584 86.9516C21.2011 92.4233 26.1068 96.2707 31.7408 96.2707H84.9287C90.532 96.2707 95.4191 92.4644 96.7912 87.0317L109.657 36.089C111.609 28.3599 105.766 20.8582 97.7944 20.8582Z" fill="#F5F0FF" stroke="#5A32A3" stroke-width="2"/>
<path d="M96.507 86.4791L109.489 35.3005C111.147 28.1074 105.518 21.8106 98.0549 21.9877L59.8138 21.9985L58.2632 95.5588L86.88 95.5508C92.4255 95.0454 95.3418 91.535 96.507 86.4791Z" fill="#6F42C1" fill-opacity="0.3"/>
<path fill-rule="evenodd" clip-rule="evenodd" d="M61.2888 44.4623C60.3004 42.7503 57.8294 42.7503 56.841 44.4623L43.2478 68.0064C42.2594 69.7184 43.4949 71.8583 45.4717 71.8583H72.6581C74.6349 71.8583 75.8704 69.7184 74.882 68.0064L61.2888 44.4623ZM59.3427 48.5196C59.2191 48.3056 58.9103 48.3056 58.7867 48.5196L47.7343 67.663C47.6107 67.877 47.7651 68.1445 48.0122 68.1445H70.1172C70.3643 68.1445 70.5187 67.877 70.3951 67.663L59.3427 48.5196Z" fill="#455A64"/>
<defs>
<filter id="filter0_d_3818_23758" x="0.99707" y="7.88342" width="115.141" height="77.5673" filterUnits="userSpaceOnUse" color-interpolation-filters="sRGB">
<feFlood flood-opacity="0" result="BackgroundImageFix"/>
<feColorMatrix in="SourceAlpha" type="matrix" values="0 0 0 0 0 0 0 0 0 0 0 0 0 0 0 0 0 0 127 0" result="hardAlpha"/>
<feOffset dy="23.1562"/>
<feGaussianBlur stdDeviation="11.5781"/>
<feComposite in2="hardAlpha" operator="out"/>
<feColorMatrix type="matrix" values="0 0 0 0 0 0 0 0 0 0 0 0 0 0 0 0 0 0 0.25 0"/>
<feBlend mode="normal" in2="BackgroundImageFix" result="effect1_dropShadow_3818_23758"/>
<feBlend mode="normal" in="SourceGraphic" in2="effect1_dropShadow_3818_23758" result="shape"/>
</filter>
<filter id="filter1_d_3818_23758" x="35.1626" y="0" width="57.8042" height="53.067" filterUnits="userSpaceOnUse" color-interpolation-filters="sRGB">
<feFlood flood-opacity="0" result="BackgroundImageFix"/>
<feColorMatrix in="SourceAlpha" type="matrix" values="0 0 0 0 0 0 0 0 0 0 0 0 0 0 0 0 0 0 127 0" result="hardAlpha"/>
<feOffset dx="10" dy="5"/>
<feComposite in2="hardAlpha" operator="out"/>
<feColorMatrix type="matrix" values="0 0 0 0 0.270588 0 0 0 0 0.352941 0 0 0 0 0.392157 0 0 0 0.25 0"/>
<feBlend mode="normal" in2="BackgroundImageFix" result="effect1_dropShadow_3818_23758"/>
<feBlend mode="normal" in="SourceGraphic" in2="effect1_dropShadow_3818_23758" result="shape"/>
</filter>
<linearGradient id="paint0_linear_3818_23758" x1="64.4694" y1="17.4596" x2="50.7466" y2="32.6577" gradientUnits="userSpaceOnUse">
<stop stop-color="#E3E3E3"/>
<stop offset="1" stop-color="white"/>
</linearGradient>
<linearGradient id="paint1_linear_3818_23758" x1="64.4694" y1="17.4596" x2="50.7466" y2="32.6577" gradientUnits="userSpaceOnUse">
<stop stop-color="#E3E3E3"/>
<stop offset="1" stop-color="white"/>
</linearGradient>
<linearGradient id="paint2_linear_3818_23758" x1="64.4694" y1="17.4596" x2="50.7466" y2="32.6577" gradientUnits="userSpaceOnUse">
<stop stop-color="#E3E3E3"/>
<stop offset="1" stop-color="white"/>
</linearGradient>
</defs>
</svg>
