<svg width="119" height="130" viewBox="0 0 119 130" fill="none" xmlns="http://www.w3.org/2000/svg">
<path d="M3.0816 99.9632C3.12175 100.514 3.29116 101.048 3.5761 101.521C3.86103 101.994 4.25347 102.394 4.7216 102.687L50.7216 129.235C51.2304 129.493 51.793 129.628 52.3636 129.628C52.9342 129.628 53.4968 129.493 54.0056 129.235L116.918 92.9112C117.413 92.649 117.828 92.2566 118.117 91.7763C118.407 91.296 118.559 90.7459 118.559 90.1852C118.559 89.6245 118.407 89.0744 118.117 88.5941C117.828 88.1138 117.413 87.7214 116.918 87.4592L70.9336 60.9112C70.4249 60.6548 69.8632 60.5213 69.2936 60.5213C68.724 60.5213 68.1623 60.6548 67.6536 60.9112L4.7376 97.2352C4.26597 97.5271 3.87008 97.9264 3.58227 98.4005C3.29446 98.8746 3.1229 99.4101 3.0816 99.9632V99.9632Z" fill="#8A63D2"/>
<path opacity="0.7" d="M52.3616 126.075V129.627C51.7886 129.636 51.2228 129.498 50.7176 129.227L4.73765 102.687C4.25543 102.435 3.84897 102.058 3.55987 101.597C3.27078 101.136 3.10943 100.606 3.09234 100.062C3.07524 99.5181 3.20303 98.9793 3.46261 98.5008C3.72218 98.0224 4.10423 97.6215 4.56965 97.3392C3.83365 97.8672 3.88965 98.6392 4.73765 99.1272L50.7376 125.675C51.2362 125.944 51.7951 126.082 52.3616 126.075Z" fill="white"/>
<path d="M1.55764 97.2952C1.09803 96.9833 0.718843 96.567 0.451161 96.0803C0.18348 95.5936 0.0349163 95.0504 0.0176392 94.4952V39.6392C0.0487948 39.0703 0.213504 38.5167 0.498427 38.0233C0.783349 37.5299 1.18048 37.1106 1.65764 36.7992L64.5736 0.475198C65.0484 0.177622 65.5952 0.0149865 66.1553 0.00476057C66.7155 -0.00546537 67.2679 0.137104 67.7532 0.417157C68.2384 0.697209 68.6382 1.10417 68.9096 1.59431C69.181 2.08446 69.3138 2.63929 69.2936 3.1992V58.0712C69.2631 58.6403 69.0987 59.1941 68.8137 59.6876C68.5287 60.1811 68.1312 60.6003 67.6536 60.9112L4.73764 97.2352C4.24969 97.4947 3.70739 97.6354 3.15482 97.6458C2.60226 97.6562 2.05503 97.5361 1.55764 97.2952V97.2952Z" fill="#8A63D2"/>
<path opacity="0.7" d="M4.54164 97.3392C4.07148 97.5507 3.56071 97.6567 3.04521 97.6498C2.5297 97.6429 2.02196 97.5232 1.55764 97.2992C1.09825 96.9871 0.719245 96.5707 0.451591 96.084C0.183938 95.5974 0.0352362 95.0543 0.0176392 94.4992V39.6392C0.0398815 39.0739 0.205022 38.5234 0.497639 38.0392L3.57764 39.8152C3.28378 40.2991 3.11727 40.8496 3.09364 41.4152V96.2912C3.08164 97.2592 3.72964 97.6952 4.54164 97.3392Z" fill="white"/>
<path opacity="0.5" d="M3.0816 41.4191V96.2911C3.0816 97.3351 3.8136 97.7591 4.7216 97.2351L67.6376 60.9111C68.1152 60.6003 68.5127 60.181 68.7977 59.6875C69.0826 59.194 69.2471 58.6402 69.2776 58.0711V3.19915C69.2776 2.15115 68.5416 1.72715 67.6376 2.25115L4.7376 38.5751C4.25672 38.8849 3.85598 39.304 3.56816 39.7983C3.28034 40.2926 3.1136 40.848 3.0816 41.4191V41.4191Z" fill="white"/>
<path d="M4.73764 99.1312L50.7376 125.679C51.2465 125.937 51.809 126.072 52.3796 126.072C52.9503 126.072 53.5128 125.937 54.0216 125.679L116.914 89.3392C117.822 88.8152 117.822 87.9672 116.914 87.4432L70.9336 60.9112C70.425 60.6548 69.8633 60.5213 69.2936 60.5213C68.724 60.5213 68.1623 60.6548 67.6536 60.9112L4.73764 97.2352C3.82964 97.7592 3.82964 98.6072 4.73764 99.1312Z" fill="#8A63D2"/>
<path opacity="0.3" d="M4.73764 99.1312L50.7376 125.679C51.2465 125.937 51.809 126.072 52.3796 126.072C52.9503 126.072 53.5128 125.937 54.0216 125.679L116.914 89.3392C117.822 88.8152 117.822 87.9672 116.914 87.4432L70.9336 60.9112C70.425 60.6548 69.8633 60.5213 69.2936 60.5213C68.724 60.5213 68.1623 60.6548 67.6536 60.9112L4.73764 97.2352C3.82964 97.7592 3.82964 98.6072 4.73764 99.1312Z" fill="white"/>
<path d="M5.62167 41.6192L66.2817 6.60718C66.8257 6.29518 67.2657 6.55118 67.2657 7.17918V54.6792C67.247 55.0205 67.1482 55.3527 66.9773 55.6488C66.8063 55.9448 66.568 56.1964 66.2817 56.3832L5.62167 91.3952C5.07767 91.7072 4.63367 91.4552 4.63367 90.8272V43.3392C4.65122 42.9949 4.74987 42.6597 4.92156 42.3608C5.09325 42.0619 5.33314 41.8078 5.62167 41.6192V41.6192Z" fill="#FAFAFA"/>
<path d="M45.6417 34.2071L45.2417 45.1751C45.2417 49.6911 42.4057 57.8472 36.5697 63.8752C36.1511 64.2756 35.6213 64.5405 35.0497 64.6351C34.7537 64.6631 34.4697 64.6752 34.1897 64.6752C32.9415 64.6936 31.7106 64.3818 30.6217 63.7711L30.5857 63.7512L30.5177 63.7072C27.9217 62.1392 26.6417 58.9392 26.6417 55.9232L26.2417 45.4392C26.2392 45.156 26.3451 44.8826 26.5377 44.6751C26.681 44.505 26.8599 44.3684 27.0617 44.2751C29.7337 43.0751 33.7377 38.3592 35.6177 33.6912C35.7537 33.3592 35.9537 33.2511 36.1777 33.3551L36.2097 33.3751C36.2863 33.4182 36.3552 33.4737 36.4137 33.5391L36.4497 33.5831C38.4497 35.9031 42.3657 35.8991 44.9817 33.8991C45.1817 33.7471 45.3457 33.6992 45.4577 33.7472C45.5937 33.8272 45.6497 33.9711 45.6417 34.2071Z" fill="#8A63D2"/>
<path opacity="0.2" d="M35.9496 33.3392C35.8741 33.3708 35.8066 33.4188 35.7519 33.4796C35.6973 33.5405 35.6569 33.6128 35.6336 33.6912C33.7536 38.3592 29.7496 43.0912 27.0776 44.2752C26.8757 44.3685 26.6968 44.5051 26.5535 44.6752C26.3609 44.8827 26.255 45.1561 26.2576 45.4392L26.6576 55.9232C26.6576 58.9512 27.9376 62.1512 30.5456 63.7072L30.6136 63.7512L30.6496 63.7712C31.7384 64.3818 32.9693 64.6937 34.2176 64.6752C34.4976 64.6752 34.7816 64.6752 35.0776 64.6352C35.3903 64.5915 35.6917 64.4883 35.9656 64.3312L35.9496 33.3392Z" fill="white"/>
<path opacity="0.3" d="M10.0737 97.7112L68.4737 63.9952C68.728 63.8669 69.0089 63.8 69.2937 63.8C69.5786 63.8 69.8594 63.8669 70.1137 63.9952L73.1017 65.7192C73.2011 65.7525 73.2874 65.8162 73.3485 65.9013C73.4097 65.9863 73.4426 66.0884 73.4426 66.1932C73.4426 66.298 73.4097 66.4001 73.3485 66.4851C73.2874 66.5702 73.2011 66.6339 73.1017 66.6672L14.6817 100.379C14.4274 100.508 14.1466 100.574 13.8617 100.574C13.5769 100.574 13.296 100.508 13.0417 100.379L10.0617 98.6592C9.96283 98.6246 9.87728 98.5598 9.81718 98.474C9.75708 98.3882 9.72546 98.2856 9.72679 98.1809C9.72811 98.0761 9.76232 97.9744 9.82457 97.8901C9.88683 97.8058 9.97399 97.7433 10.0737 97.7112V97.7112Z" fill="white"/>
<path opacity="0.3" d="M17.7737 102.139L76.1737 68.4232C76.4274 68.293 76.7085 68.225 76.9937 68.225C77.2789 68.225 77.56 68.293 77.8137 68.4232L96.1857 79.0312C96.285 79.0645 96.3713 79.1282 96.4325 79.2133C96.4937 79.2983 96.5266 79.4004 96.5266 79.5052C96.5266 79.6099 96.4937 79.712 96.4325 79.7971C96.3713 79.8821 96.285 79.9458 96.1857 79.9792L37.8537 113.663C37.5986 113.791 37.3171 113.858 37.0317 113.858C36.7463 113.858 36.4648 113.791 36.2097 113.663L17.7737 103.099C17.6674 103.072 17.5734 103.009 17.5062 102.923C17.4391 102.836 17.4026 102.729 17.4026 102.619C17.4026 102.509 17.4391 102.403 17.5062 102.316C17.5734 102.229 17.6674 102.167 17.7737 102.139Z" fill="white"/>
<path d="M70.1216 83.6072L71.9496 82.5512C72.0256 82.5072 72.0216 82.4311 71.9496 82.3831L69.8376 81.1632C69.7923 81.1406 69.7423 81.1289 69.6916 81.1289C69.641 81.1289 69.591 81.1406 69.5456 81.1632L67.7176 82.2192C67.6376 82.2672 67.6416 82.3392 67.7176 82.3872L69.8336 83.6111C69.8788 83.6324 69.9282 83.6432 69.9781 83.6425C70.028 83.6418 70.0771 83.6297 70.1216 83.6072V83.6072ZM66.5216 79.4152L64.6816 80.4672C64.6016 80.5152 64.6056 80.5872 64.6816 80.6392L66.7976 81.8591C66.843 81.8817 66.893 81.8934 66.9436 81.8934C66.9943 81.8934 67.0443 81.8817 67.0896 81.8591L68.9176 80.8032C68.9936 80.7592 68.9896 80.6831 68.9176 80.6351L66.8056 79.4152C66.7605 79.3917 66.7105 79.3794 66.6596 79.3794C66.6088 79.3794 66.5587 79.3917 66.5136 79.4152H66.5216ZM60.6136 82.8231L57.5176 84.6111C57.4416 84.6551 57.4456 84.7312 57.5176 84.7792L59.6336 85.9792C59.6783 86.0017 59.7276 86.0134 59.7776 86.0134C59.8276 86.0134 59.877 86.0017 59.9216 85.9792L63.0176 84.1912C63.0936 84.1472 63.0896 84.0711 63.0176 84.0231L60.9056 82.8231C60.8592 82.7993 60.8078 82.7868 60.7556 82.7868C60.7035 82.7868 60.652 82.7993 60.6056 82.8231H60.6136ZM63.8416 80.9392L62.0096 81.9952C61.9336 82.0392 61.9376 82.1152 62.0096 82.1632L64.1256 83.3632C64.171 83.3857 64.221 83.3974 64.2716 83.3974C64.3223 83.3974 64.3723 83.3857 64.4176 83.3632L66.2456 82.3072C66.3216 82.2632 66.3176 82.1872 66.2456 82.1392L64.1336 80.9192C64.0867 80.8997 64.0359 80.8913 63.9853 80.8948C63.9346 80.8983 63.8854 80.9134 63.8416 80.9392V80.9392ZM56.6816 85.0991L54.8376 86.1392C54.7616 86.1872 54.7656 86.2631 54.8376 86.3111L56.9496 87.5312C56.995 87.5537 57.045 87.5654 57.0956 87.5654C57.1463 87.5654 57.1963 87.5537 57.2416 87.5312L59.0696 86.4752C59.1496 86.4312 59.1456 86.3552 59.0696 86.3072L56.9536 85.1072C56.9117 85.0856 56.8656 85.0738 56.8185 85.0724C56.7715 85.071 56.7247 85.0801 56.6816 85.0991V85.0991ZM54.0096 86.6392L52.1816 87.6952C52.1056 87.7392 52.1096 87.8152 52.1816 87.8632L54.2936 89.0831C54.3387 89.1066 54.3888 89.1189 54.4396 89.1189C54.4905 89.1189 54.5405 89.1066 54.5856 89.0831L56.4136 88.0272C56.4936 87.9832 56.4896 87.9071 56.4136 87.8591L54.2816 86.6471C54.2374 86.624 54.1885 86.6112 54.1386 86.6098C54.0886 86.6085 54.0391 86.6185 53.9936 86.6392H54.0096ZM62.3256 91.6032L64.1576 90.5471C64.2336 90.5031 64.2296 90.4272 64.1576 90.3792L62.0416 89.1591C61.9965 89.1357 61.9465 89.1234 61.8956 89.1234C61.8448 89.1234 61.7947 89.1357 61.7496 89.1591L59.8816 90.2111C59.8056 90.2551 59.8096 90.3312 59.8816 90.3792L61.9936 91.5792C62.04 91.6095 62.0933 91.6277 62.1485 91.6319C62.2038 91.6361 62.2592 91.6262 62.3096 91.6032H62.3256ZM59.6536 93.1471L61.4816 92.0912C61.5616 92.0472 61.5576 91.9711 61.4816 91.9231L59.3656 90.7231C59.3203 90.7006 59.2703 90.6889 59.2196 90.6889C59.169 90.6889 59.119 90.7006 59.0736 90.7231L57.2216 91.7392C57.1456 91.7832 57.1496 91.8592 57.2216 91.9072L59.3336 93.1312C59.3792 93.1582 59.4307 93.1738 59.4837 93.1766C59.5366 93.1793 59.5894 93.1692 59.6376 93.1471H59.6536ZM56.9816 94.6912L58.8096 93.6351C58.8896 93.5911 58.8856 93.5152 58.8096 93.4672L56.6816 92.2471C56.6365 92.2237 56.5865 92.2114 56.5356 92.2114C56.4848 92.2114 56.4347 92.2237 56.3896 92.2471L54.5616 93.3032C54.4856 93.3472 54.4896 93.4231 54.5616 93.4711L56.6736 94.6912C56.719 94.7137 56.769 94.7254 56.8196 94.7254C56.8703 94.7254 56.9203 94.7137 56.9656 94.6912H56.9816ZM54.2816 96.2312L56.1096 95.1792C56.1896 95.1312 56.1816 95.0552 56.1096 95.0072L53.9936 93.7872C53.9483 93.7646 53.8983 93.7529 53.8476 93.7529C53.797 93.7529 53.747 93.7646 53.7016 93.7872L51.8816 94.8392C51.8056 94.8832 51.8096 94.9592 51.8816 95.0072L53.9936 96.2272C54.0379 96.2506 54.0871 96.2632 54.1371 96.2639C54.1872 96.2646 54.2367 96.2534 54.2816 96.2312V96.2312ZM67.4376 85.1512L69.2656 84.0952C69.3416 84.0512 69.3376 83.9752 69.2656 83.9272L67.1536 82.7072C67.1083 82.6846 67.0583 82.6729 67.0076 82.6729C66.957 82.6729 66.907 82.6846 66.8616 82.7072L65.0336 83.7392C64.9536 83.7832 64.9576 83.8592 65.0336 83.9072L67.1496 85.1272C67.1941 85.1548 67.2445 85.1714 67.2967 85.1756C67.3489 85.1798 67.4013 85.1714 67.4496 85.1512H67.4376ZM64.9696 90.0632L69.0496 87.7072C69.1296 87.6632 69.1216 87.5872 69.0496 87.5392L63.9136 84.5752C63.8683 84.5526 63.8183 84.5409 63.7676 84.5409C63.717 84.5409 63.667 84.5526 63.6216 84.5752L61.5136 85.7952C61.4336 85.8392 61.4376 85.9152 61.5136 85.9632L64.2336 87.5312C64.3176 87.5792 64.3216 87.6552 64.2336 87.6992L62.5456 88.6752C62.4696 88.7192 62.4736 88.7952 62.5456 88.8432L64.6616 90.0632C64.7103 90.0912 64.7655 90.106 64.8216 90.106C64.8778 90.106 64.933 90.0912 64.9816 90.0632H64.9696ZM51.3096 88.1831L49.4816 89.2392C49.4056 89.2832 49.4096 89.3592 49.4816 89.4072L51.5936 90.6272C51.639 90.6497 51.689 90.6614 51.7396 90.6614C51.7903 90.6614 51.8403 90.6497 51.8856 90.6272L53.7136 89.5711C53.7936 89.5271 53.7896 89.4512 53.7136 89.4032L51.5976 88.1831C51.5546 88.1623 51.5074 88.1514 51.4596 88.1514C51.4118 88.1514 51.3646 88.1623 51.3216 88.1831H51.3096ZM48.6496 89.7392L46.8216 90.7952C46.7456 90.8392 46.7496 90.9152 46.8216 90.9632L48.9336 92.1831C48.9787 92.2066 49.0288 92.2189 49.0796 92.2189C49.1305 92.2189 49.1805 92.2066 49.2256 92.1831L51.0536 91.1312C51.1336 91.0832 51.1256 91.0071 51.0536 90.9591L48.9376 89.7591C48.8943 89.7341 48.8459 89.7192 48.7959 89.7158C48.746 89.7123 48.696 89.7203 48.6496 89.7392ZM35.2976 107.039C35.3427 107.063 35.3928 107.075 35.4436 107.075C35.4945 107.075 35.5445 107.063 35.5896 107.039L37.4176 105.987C37.4936 105.939 37.4896 105.863 37.4176 105.815L35.3016 104.595C35.2571 104.572 35.2077 104.56 35.1576 104.56C35.1076 104.56 35.0582 104.572 35.0136 104.595L33.1816 105.651C33.1056 105.695 33.1096 105.771 33.1816 105.819L35.2976 107.039ZM27.2696 102.083L25.4416 103.135C25.3656 103.183 25.3696 103.255 25.4416 103.307L27.5536 104.527C27.599 104.55 27.649 104.561 27.6996 104.561C27.7503 104.561 27.8003 104.55 27.8456 104.527L29.6736 103.471C29.7536 103.427 29.7496 103.351 29.6736 103.303L27.5576 102.083C27.514 102.058 27.4652 102.044 27.4151 102.042C27.365 102.04 27.3151 102.05 27.2696 102.071V102.083ZM31.5736 105.703C31.619 105.726 31.669 105.737 31.7196 105.737C31.7703 105.737 31.8203 105.726 31.8656 105.703L33.6936 104.647C33.7696 104.603 33.7656 104.527 33.6936 104.479L31.5816 103.259C31.5363 103.237 31.4863 103.225 31.4356 103.225C31.385 103.225 31.335 103.237 31.2896 103.259L29.4616 104.315C29.3816 104.363 29.3856 104.435 29.4616 104.483L31.5736 105.703ZM40.0136 107.975L41.8416 106.923C41.9216 106.875 41.9176 106.799 41.8416 106.751L39.7256 105.531C39.6803 105.509 39.6303 105.497 39.5796 105.497C39.529 105.497 39.479 105.509 39.4336 105.531L37.6056 106.587C37.5296 106.631 37.5336 106.707 37.6056 106.755L39.7176 107.975C39.7642 107.997 39.8155 108.008 39.8671 108.006C39.9187 108.004 39.969 107.989 40.0136 107.963V107.975ZM37.0496 109.515C37.095 109.538 37.145 109.549 37.1956 109.549C37.2463 109.549 37.2963 109.538 37.3416 109.515L39.1696 108.459C39.2496 108.415 39.2416 108.339 39.1696 108.291L37.0536 107.071C37.0083 107.049 36.9583 107.037 36.9076 107.037C36.857 107.037 36.807 107.049 36.7616 107.071L34.9336 108.127C34.8576 108.175 34.8616 108.247 34.9336 108.295L37.0496 109.515ZM29.9416 100.539L28.1136 101.595C28.0376 101.639 28.0416 101.715 28.1136 101.763L30.2296 102.983C30.274 103.007 30.3234 103.019 30.3736 103.019C30.4238 103.019 30.4733 103.007 30.5176 102.983L32.3496 101.931C32.4256 101.883 32.4216 101.811 32.3496 101.759L30.2336 100.559C30.1898 100.533 30.1407 100.518 30.09 100.515C30.0393 100.511 29.9885 100.52 29.9416 100.539V100.539ZM43.3056 92.8231L41.4816 93.8672C41.4016 93.9112 41.4096 93.9871 41.4816 94.0351L43.5976 95.2552C43.643 95.2777 43.693 95.2894 43.7436 95.2894C43.7943 95.2894 43.8443 95.2777 43.8896 95.2552L45.7176 94.1992C45.7936 94.1552 45.7896 94.0792 45.7176 94.0312L43.6056 92.8112C43.5592 92.7873 43.5078 92.7748 43.4556 92.7748C43.4035 92.7748 43.352 92.7873 43.3056 92.8112V92.8231ZM32.6176 98.9952L30.7856 100.051C30.7096 100.095 30.7136 100.171 30.7856 100.219L32.9016 101.439C32.947 101.462 32.997 101.473 33.0476 101.473C33.0983 101.473 33.1483 101.462 33.1936 101.439L35.0216 100.383C35.0976 100.339 35.0936 100.263 35.0216 100.215L32.9056 98.9952C32.8619 98.9708 32.8131 98.957 32.7631 98.9549C32.713 98.9528 32.6632 98.9625 32.6176 98.9831V98.9952ZM45.9776 91.2792L44.1496 92.3351C44.0696 92.3831 44.0776 92.4552 44.1496 92.5032L46.2656 93.7272C46.311 93.7497 46.361 93.7614 46.4116 93.7614C46.4623 93.7614 46.5123 93.7497 46.5576 93.7272L48.3856 92.6711C48.4656 92.6271 48.4576 92.5512 48.3856 92.5032L46.2816 91.2752C46.2354 91.2494 46.1835 91.2352 46.1306 91.2338C46.0777 91.2324 46.0252 91.2438 45.9776 91.2672V91.2792ZM40.6336 94.3672L38.8056 95.4231C38.7256 95.4671 38.7296 95.5432 38.8056 95.5912L40.9216 96.7912C40.967 96.8137 41.017 96.8254 41.0676 96.8254C41.1183 96.8254 41.1683 96.8137 41.2136 96.7912L43.0416 95.7351C43.1176 95.6871 43.1136 95.6152 43.0416 95.5672L40.9296 94.3432C40.8828 94.3218 40.8316 94.3118 40.7802 94.3138C40.7288 94.3159 40.6786 94.3301 40.6336 94.3552V94.3672ZM37.9616 95.9112L36.1336 96.9392C36.0536 96.9832 36.0576 97.0592 36.1336 97.1072L38.2496 98.3272C38.2947 98.3506 38.3448 98.3629 38.3956 98.3629C38.4465 98.3629 38.4965 98.3506 38.5416 98.3272L40.3696 97.2711C40.4456 97.2271 40.4416 97.1512 40.3696 97.1032L38.2576 95.9032C38.2124 95.8784 38.1617 95.865 38.1101 95.8643C38.0585 95.8637 38.0075 95.8756 37.9616 95.8992V95.9112ZM35.2896 97.4512L33.4816 98.4952C33.4016 98.5392 33.4056 98.6152 33.4816 98.6632L35.5976 99.8872C35.643 99.9097 35.693 99.9214 35.7436 99.9214C35.7943 99.9214 35.8443 99.9097 35.8896 99.8872L37.7176 98.8312C37.7936 98.7872 37.7896 98.7112 37.7176 98.6632L35.6056 97.4432C35.5576 97.4159 35.5034 97.4013 35.4481 97.4006C35.3929 97.3999 35.3384 97.4132 35.2896 97.4392V97.4512ZM48.9496 99.3312L50.7776 98.2752C50.8536 98.2312 50.8496 98.1552 50.7776 98.1072L48.6656 96.8872C48.6203 96.8646 48.5703 96.8529 48.5196 96.8529C48.469 96.8529 48.419 96.8646 48.3736 96.8872L46.5456 97.9432C46.4656 97.9872 46.4736 98.0632 46.5456 98.1112L48.6616 99.3312C48.7059 99.3543 48.7548 99.3671 48.8047 99.3685C48.8546 99.3698 48.9042 99.3598 48.9496 99.3392V99.3312ZM72.4216 76.0152L70.5896 77.0711C70.5136 77.1151 70.5176 77.1912 70.5896 77.2392L72.7056 78.4392C72.751 78.4617 72.801 78.4734 72.8516 78.4734C72.9023 78.4734 72.9523 78.4617 72.9976 78.4392L74.8256 77.3831C74.9016 77.3351 74.8976 77.2632 74.8256 77.2152L72.7096 75.9912C72.6641 75.9702 72.6143 75.9603 72.5642 75.9624C72.5141 75.9645 72.4652 75.9785 72.4216 76.0032V76.0152ZM69.1856 77.8831L67.3576 78.9392C67.2776 78.9832 67.2816 79.0592 67.3576 79.1072L69.4736 80.3272C69.5187 80.3506 69.5688 80.3629 69.6196 80.3629C69.6705 80.3629 69.7205 80.3506 69.7656 80.3272L71.5936 79.2752C71.6696 79.2272 71.6656 79.1512 71.5936 79.1032L69.4816 77.8752C69.4361 77.8513 69.3855 77.8386 69.3341 77.8379C69.2827 77.8372 69.2318 77.8486 69.1856 77.8711V77.8831ZM75.0816 74.4591L73.2536 75.5152C73.1736 75.5592 73.1776 75.6351 73.2536 75.6831L75.3696 76.9032C75.415 76.9257 75.465 76.9374 75.5156 76.9374C75.5663 76.9374 75.6163 76.9257 75.6616 76.9032L77.4896 75.8471C77.5656 75.8031 77.5616 75.7272 77.4896 75.6792L75.3776 74.4591C75.3317 74.4359 75.281 74.4239 75.2296 74.4239C75.1782 74.4239 75.1275 74.4359 75.0816 74.4591V74.4591ZM61.2496 88.7231L63.0776 87.6672C63.1536 87.6232 63.1496 87.5472 63.0776 87.4992L60.9656 86.2992C60.9203 86.2766 60.8703 86.2649 60.8196 86.2649C60.769 86.2649 60.719 86.2766 60.6736 86.2992L58.8416 87.3392C58.7656 87.3872 58.7696 87.4592 58.8416 87.5072L60.9576 88.7312C61.0052 88.7545 61.0577 88.7659 61.1106 88.7645C61.1636 88.7631 61.2154 88.7489 61.2616 88.7231H61.2496ZM78.0496 72.9231C78.0043 72.9006 77.9543 72.8889 77.9036 72.8889C77.853 72.8889 77.803 72.9006 77.7576 72.9231L75.9296 73.9792C75.8496 74.0272 75.8536 74.0991 75.9296 74.1471L78.0456 75.3711C78.091 75.3937 78.141 75.4054 78.1916 75.4054C78.2423 75.4054 78.2923 75.3937 78.3376 75.3711L80.1656 74.3152C80.2416 74.2712 80.2376 74.1951 80.1656 74.1471L78.0496 72.9231ZM51.6136 97.7752L53.4416 96.7192C53.5216 96.6752 53.5136 96.5992 53.4416 96.5512L51.3256 95.3512C51.2803 95.3286 51.2303 95.3169 51.1796 95.3169C51.129 95.3169 51.079 95.3286 51.0336 95.3512L49.2056 96.4072C49.1256 96.4552 49.1336 96.5272 49.2056 96.5752L51.3176 97.7992C51.3665 97.8201 51.4196 97.8288 51.4726 97.8246C51.5255 97.8204 51.5767 97.8035 51.6216 97.7752H51.6136ZM84.3856 78.8552L86.2136 77.7991C86.2896 77.7551 86.2856 77.6792 86.2136 77.6312L84.1016 76.4111C84.0563 76.3886 84.0063 76.3769 83.9556 76.3769C83.905 76.3769 83.855 76.3886 83.8096 76.4111L81.9816 77.4672C81.9016 77.5112 81.9096 77.5871 81.9816 77.6351L84.0976 78.8351C84.1416 78.8625 84.1915 78.8786 84.2431 78.882C84.2948 78.8855 84.3464 78.8763 84.3936 78.8552H84.3856ZM78.6936 78.6552L80.5216 77.5991C80.5976 77.5551 80.5936 77.4792 80.5216 77.4312L78.4096 76.2111C78.3643 76.1886 78.3143 76.1769 78.2636 76.1769C78.213 76.1769 78.163 76.1886 78.1176 76.2111L76.2816 77.2591C76.2016 77.3031 76.2056 77.3792 76.2816 77.4272L78.3976 78.6272C78.4422 78.6561 78.4932 78.6738 78.5462 78.6787C78.5991 78.6836 78.6525 78.6755 78.7016 78.6552H78.6936ZM81.0696 74.6552C81.0243 74.6326 80.9743 74.6209 80.9236 74.6209C80.873 74.6209 80.823 74.6326 80.7776 74.6552L78.9496 75.7111C78.8696 75.7591 78.8736 75.8312 78.9496 75.8792L81.0656 77.1032C81.111 77.1257 81.161 77.1374 81.2116 77.1374C81.2623 77.1374 81.3123 77.1257 81.3576 77.1032L83.1856 76.0471C83.2616 76.0031 83.2576 75.9272 83.1856 75.8792L81.0696 74.6552ZM81.6296 74.3312L86.7656 77.2952C86.8107 77.3186 86.8608 77.3309 86.9116 77.3309C86.9625 77.3309 87.0125 77.3186 87.0576 77.2952L88.8856 76.2392C88.9656 76.1952 88.9576 76.1191 88.8856 76.0711L83.7496 73.1072C83.7046 73.0837 83.6545 73.0714 83.6036 73.0714C83.5528 73.0714 83.5027 73.0837 83.4576 73.1072L81.6296 74.1632C81.5496 74.2192 81.5576 74.2952 81.6376 74.3432L81.6296 74.3312ZM75.4416 77.7392L73.6136 78.7952C73.5336 78.8392 73.5376 78.9152 73.6136 78.9632L75.7296 80.1831C75.7747 80.2066 75.8248 80.2189 75.8756 80.2189C75.9265 80.2189 75.9765 80.2066 76.0216 80.1831L77.8496 79.1312C77.9256 79.0832 77.9216 79.0111 77.8496 78.9591L75.7336 77.7392C75.6883 77.7166 75.6383 77.7049 75.5876 77.7049C75.537 77.7049 75.487 77.7166 75.4416 77.7392V77.7392ZM55.3256 89.3392L53.4816 90.4152C53.4056 90.4592 53.4096 90.5351 53.4816 90.5831L55.5936 91.8032C55.639 91.8257 55.689 91.8374 55.7396 91.8374C55.7903 91.8374 55.8403 91.8257 55.8856 91.8032L57.7136 90.7471C57.7936 90.6991 57.7896 90.6272 57.7136 90.5792L55.5976 89.3552C55.5546 89.3363 55.5081 89.3269 55.4612 89.3276C55.4143 89.3283 55.368 89.3391 55.3256 89.3591V89.3392ZM81.4296 80.3711C81.475 80.3937 81.525 80.4054 81.5756 80.4054C81.6263 80.4054 81.6763 80.3937 81.7216 80.3711L83.5496 79.3152C83.6256 79.2712 83.6216 79.1951 83.5496 79.1471L81.4376 77.9471C81.3926 77.9237 81.3425 77.9114 81.2916 77.9114C81.2408 77.9114 81.1907 77.9237 81.1456 77.9471L79.3176 79.0032C79.2376 79.0472 79.2416 79.1231 79.3176 79.1711L81.4296 80.3711ZM57.9976 87.7952L56.1696 88.8512C56.0936 88.8952 56.0976 88.9712 56.1696 89.0192L58.2816 90.2591C58.3263 90.2817 58.3756 90.2934 58.4256 90.2934C58.4756 90.2934 58.525 90.2817 58.5696 90.2591L60.4016 89.2032C60.4776 89.1592 60.4736 89.0831 60.4016 89.0351L58.2816 87.8231C58.2379 87.8006 58.1897 87.7882 58.1405 87.7868C58.0914 87.7854 58.0425 87.7951 57.9976 87.8152V87.7952ZM37.9696 105.463C38.015 105.486 38.065 105.497 38.1156 105.497C38.1663 105.497 38.2163 105.486 38.2616 105.463L40.0896 104.407C40.1656 104.363 40.1616 104.287 40.0896 104.239L37.9776 103.019C37.9323 102.997 37.8823 102.985 37.8316 102.985C37.781 102.985 37.731 102.997 37.6856 103.019L35.8576 104.075C35.7776 104.119 35.7816 104.195 35.8576 104.243L37.9696 105.463ZM33.9496 101.683L32.1216 102.739C32.0416 102.783 32.0456 102.859 32.1216 102.907L34.2376 104.107C34.2827 104.131 34.3328 104.143 34.3836 104.143C34.4345 104.143 34.4845 104.131 34.5296 104.107L36.3576 103.051C36.4336 103.007 36.4296 102.931 36.3576 102.883L34.2456 101.663C34.1968 101.645 34.1442 101.639 34.0926 101.646C34.041 101.653 33.9918 101.673 33.9496 101.703V101.683ZM40.9336 103.927L42.7616 102.871C42.8376 102.827 42.8336 102.751 42.7616 102.703L40.6496 101.503C40.6043 101.481 40.5543 101.469 40.5036 101.469C40.453 101.469 40.403 101.481 40.3576 101.503L38.5176 102.539C38.4376 102.583 38.4416 102.659 38.5176 102.707L40.6336 103.931C40.6787 103.958 40.7295 103.973 40.7817 103.976C40.8339 103.978 40.886 103.969 40.9336 103.947V103.927ZM43.6056 102.383L45.4336 101.327C45.5096 101.283 45.5056 101.207 45.4336 101.159L43.3216 99.9392C43.2765 99.9157 43.2265 99.9034 43.1756 99.9034C43.1248 99.9034 43.0747 99.9157 43.0296 99.9392L41.2016 100.995C41.1216 101.039 41.1256 101.115 41.2016 101.163L43.3176 102.363C43.3589 102.392 43.4066 102.411 43.4568 102.418C43.5069 102.425 43.5579 102.42 43.6056 102.403V102.383ZM46.2776 100.843L48.1056 99.7872C48.1816 99.7392 48.1776 99.6672 48.1056 99.6192L45.9936 98.3952C45.9483 98.3726 45.8983 98.3609 45.8476 98.3609C45.797 98.3609 45.747 98.3726 45.7016 98.3952L43.8816 99.4672C43.8016 99.5112 43.8056 99.5871 43.8816 99.6351L45.9976 100.855C46.0413 100.878 46.0896 100.89 46.1387 100.891C46.1879 100.893 46.2367 100.883 46.2816 100.863L46.2776 100.843ZM36.6216 100.139L34.7936 101.195C34.7136 101.239 34.7176 101.315 34.7936 101.363L36.9096 102.583C36.955 102.606 37.005 102.617 37.0556 102.617C37.1063 102.617 37.1563 102.606 37.2016 102.583L39.0296 101.527C39.1056 101.479 39.1016 101.407 39.0296 101.359L36.9176 100.135C36.8699 100.116 36.8182 100.108 36.7668 100.112C36.7153 100.116 36.6656 100.132 36.6216 100.159V100.139ZM39.2936 98.5952L37.4816 99.6711C37.4016 99.7151 37.4056 99.7912 37.4816 99.8392L39.5976 101.059C39.643 101.082 39.693 101.093 39.7436 101.093C39.7943 101.093 39.8443 101.082 39.8896 101.059L41.7176 100.003C41.7936 99.9592 41.7896 99.8831 41.7176 99.8351L39.6056 98.6152C39.5577 98.5892 39.5041 98.5757 39.4496 98.5757C39.3952 98.5757 39.3415 98.5892 39.2936 98.6152V98.5952ZM49.9816 92.4231L48.1536 93.4792C48.0776 93.5232 48.0816 93.5991 48.1536 93.6471L50.2656 94.8672C50.3107 94.8906 50.3608 94.9029 50.4116 94.9029C50.4625 94.9029 50.5125 94.8906 50.5576 94.8672L52.3856 93.8112C52.4656 93.7672 52.4616 93.6912 52.3856 93.6432L50.2816 92.4512C50.2359 92.426 50.1848 92.4122 50.1326 92.4108C50.0804 92.4094 50.0287 92.4205 49.9816 92.4432V92.4231ZM47.3096 93.9672L45.4816 95.0432C45.4056 95.0872 45.4096 95.1632 45.4816 95.2112L47.5936 96.4312C47.639 96.4537 47.689 96.4654 47.7396 96.4654C47.7903 96.4654 47.8403 96.4537 47.8856 96.4312L49.7136 95.3752C49.7936 95.3312 49.7896 95.2552 49.7136 95.2072L47.5976 93.9872C47.5531 93.9643 47.5037 93.9524 47.4536 93.9524C47.4036 93.9524 47.3542 93.9643 47.3096 93.9872V93.9672ZM52.6536 90.8831L50.8256 91.9351C50.7496 91.9831 50.7536 92.0592 50.8256 92.1072L52.9376 93.3072C52.983 93.3297 53.033 93.3414 53.0836 93.3414C53.1343 93.3414 53.1843 93.3297 53.2296 93.3072L55.0576 92.2512C55.1376 92.2072 55.1336 92.1311 55.0576 92.0831L52.9416 90.8632C52.8939 90.8463 52.8429 90.8411 52.7928 90.8481C52.7426 90.855 52.6949 90.8739 52.6536 90.9032V90.8831ZM41.9656 97.0512L40.1376 98.1392C40.0576 98.1872 40.0656 98.2592 40.1376 98.3072L42.2536 99.5312C42.299 99.5537 42.349 99.5654 42.3996 99.5654C42.4503 99.5654 42.5003 99.5537 42.5456 99.5312L44.3736 98.4752C44.4496 98.4312 44.4456 98.3552 44.3736 98.3072L42.2616 97.1072C42.2186 97.0782 42.1694 97.0598 42.118 97.0536C42.0665 97.0473 42.0143 97.0533 41.9656 97.0711V97.0512ZM44.6376 95.5112L42.8096 96.5672C42.7336 96.6112 42.7376 96.6871 42.8096 96.7351L44.9216 97.9351C44.9667 97.9586 45.0168 97.9709 45.0676 97.9709C45.1185 97.9709 45.1685 97.9586 45.2136 97.9351L47.0416 96.8831C47.1216 96.8351 47.1136 96.7592 47.0416 96.7112L44.9256 95.4912C44.8778 95.4752 44.8269 95.4706 44.777 95.4775C44.727 95.4844 44.6793 95.5028 44.6376 95.5312V95.5112ZM42.6816 106.423L44.5096 105.367C44.5896 105.323 44.5856 105.247 44.5096 105.199L42.3936 103.999C42.3485 103.976 42.2985 103.963 42.2476 103.963C42.1968 103.963 42.1467 103.976 42.1016 103.999L40.2816 105.027C40.2056 105.071 40.2096 105.147 40.2816 105.195L42.3936 106.415C42.4379 106.438 42.4868 106.451 42.5367 106.452C42.5866 106.454 42.6362 106.444 42.6816 106.423V106.423ZM27.0016 104.823L24.8856 103.603C24.8403 103.581 24.7903 103.569 24.7396 103.569C24.689 103.569 24.639 103.581 24.5936 103.603L22.7656 104.659C22.6896 104.703 22.6936 104.779 22.7656 104.827L24.8776 106.047C24.923 106.07 24.973 106.081 25.0236 106.081C25.0743 106.081 25.1243 106.07 25.1696 106.047L26.9976 104.991C27.0816 104.963 27.0816 104.887 27.0056 104.839L27.0016 104.823ZM31.0016 105.999L28.8856 104.779C28.841 104.757 28.7916 104.745 28.7416 104.745C28.6916 104.745 28.6423 104.757 28.5976 104.779L25.7976 106.403C25.7216 106.447 25.7256 106.523 25.7976 106.571L27.9096 107.771C27.955 107.794 28.005 107.805 28.0556 107.805C28.1063 107.805 28.1563 107.794 28.2016 107.771L31.0016 106.147C31.0816 106.139 31.0816 106.063 31.0096 106.015L31.0016 105.999ZM23.7536 102.463L21.6376 101.243C21.5923 101.221 21.5423 101.209 21.4916 101.209C21.441 101.209 21.391 101.221 21.3456 101.243L19.1056 102.539C19.0256 102.583 19.0296 102.659 19.1056 102.707L21.2216 103.927C21.267 103.95 21.317 103.961 21.3676 103.961C21.4183 103.961 21.4683 103.95 21.5136 103.927L23.7616 102.627C23.8496 102.603 23.8456 102.539 23.7616 102.479L23.7536 102.463ZM25.4776 101.467C25.5227 101.491 25.5728 101.503 25.6236 101.503C25.6745 101.503 25.7245 101.491 25.7696 101.467L27.5976 100.411C27.6776 100.367 27.6696 100.291 27.5976 100.243L25.4816 99.0432C25.4363 99.0206 25.3863 99.0089 25.3356 99.0089C25.285 99.0089 25.235 99.0206 25.1896 99.0432L23.3616 100.099C23.2856 100.143 23.2896 100.219 23.3616 100.267L25.4776 101.467ZM34.7336 107.339L32.6176 106.139C32.5725 106.116 32.5225 106.103 32.4716 106.103C32.4208 106.103 32.3707 106.116 32.3256 106.139L28.8096 108.139C28.7336 108.183 28.7376 108.259 28.8096 108.307L30.9256 109.527C30.9703 109.55 31.0196 109.561 31.0696 109.561C31.1196 109.561 31.169 109.55 31.2136 109.527L34.7336 107.495C34.8216 107.475 34.8176 107.399 34.7336 107.339ZM36.4896 109.815L34.3736 108.595C34.3283 108.573 34.2783 108.561 34.2276 108.561C34.177 108.561 34.127 108.573 34.0816 108.595L31.8296 109.895C31.7536 109.939 31.7576 110.015 31.8296 110.063L33.9456 111.283C33.991 111.306 34.041 111.317 34.0916 111.317C34.1423 111.317 34.1923 111.306 34.2376 111.283L36.4856 109.983C36.5776 109.951 36.5696 109.875 36.4896 109.827V109.815ZM45.3536 89.9992C45.399 90.0217 45.449 90.0334 45.4996 90.0334C45.5503 90.0334 45.6003 90.0217 45.6456 89.9992L47.4736 88.9432C47.5536 88.8952 47.5496 88.8232 47.4736 88.7752L45.3576 87.5512C45.3123 87.5286 45.2623 87.5169 45.2116 87.5169C45.161 87.5169 45.111 87.5286 45.0656 87.5512L43.2376 88.6072C43.1616 88.6512 43.1656 88.7272 43.2376 88.7752L45.3536 89.9992ZM40.0096 93.0831C40.0547 93.1066 40.1048 93.1189 40.1556 93.1189C40.2065 93.1189 40.2565 93.1066 40.3016 93.0831L42.1296 92.0272C42.2096 91.9832 42.2056 91.9071 42.1296 91.8591L40.0136 90.6392C39.9683 90.6166 39.9183 90.6049 39.8676 90.6049C39.817 90.6049 39.767 90.6166 39.7216 90.6392L37.8816 91.7072C37.8056 91.7512 37.8096 91.8272 37.8816 91.8752L40.0096 93.0831ZM28.1576 99.9392C28.203 99.9617 28.253 99.9734 28.3036 99.9734C28.3543 99.9734 28.4043 99.9617 28.4496 99.9392L30.2776 98.8831C30.3576 98.8391 30.3536 98.7632 30.2776 98.7152L28.1616 97.4912C28.1163 97.4686 28.0663 97.4569 28.0156 97.4569C27.965 97.4569 27.915 97.4686 27.8696 97.4912L26.0336 98.5392C25.9576 98.5832 25.9616 98.6592 26.0336 98.7072L28.1576 99.9392ZM42.6816 91.5392C42.727 91.5617 42.777 91.5734 42.8276 91.5734C42.8783 91.5734 42.9283 91.5617 42.9736 91.5392L44.8016 90.4831C44.8816 90.4391 44.8776 90.3632 44.8016 90.3152L42.6816 89.1152C42.6365 89.0917 42.5865 89.0794 42.5356 89.0794C42.4848 89.0794 42.4347 89.0917 42.3896 89.1152L40.5616 90.1672C40.4856 90.2152 40.4896 90.2912 40.5616 90.3392L42.6816 91.5392ZM37.3376 94.6231C37.383 94.6457 37.433 94.6574 37.4836 94.6574C37.5343 94.6574 37.5843 94.6457 37.6296 94.6231L39.4576 93.5672C39.5376 93.5232 39.5296 93.4472 39.4576 93.3992L37.3416 92.1752C37.2963 92.1526 37.2463 92.1409 37.1956 92.1409C37.145 92.1409 37.095 92.1526 37.0496 92.1752L35.2216 93.2312C35.1456 93.2752 35.1496 93.3512 35.2216 93.3992L37.3376 94.6231ZM37.9576 110.007C37.9123 109.985 37.8623 109.973 37.8116 109.973C37.761 109.973 37.711 109.985 37.6656 110.007L34.8656 111.631C34.7856 111.675 34.7896 111.751 34.8656 111.799L36.9816 113.019C37.027 113.042 37.077 113.053 37.1276 113.053C37.1783 113.053 37.2283 113.042 37.2736 113.019L40.0736 111.395C40.1496 111.351 40.1456 111.275 40.0736 111.227L37.9576 110.007ZM33.5016 96.8392C33.547 96.8617 33.597 96.8734 33.6476 96.8734C33.6983 96.8734 33.7483 96.8617 33.7936 96.8392L35.6216 95.7831C35.7016 95.7391 35.6976 95.6632 35.6216 95.6152L33.4816 94.4152C33.4365 94.3917 33.3865 94.3794 33.3356 94.3794C33.2848 94.3794 33.2347 94.3917 33.1896 94.4152L31.3616 95.4672C31.2856 95.5152 31.2896 95.5872 31.3616 95.6392L33.5016 96.8392ZM30.8296 98.3792C30.875 98.4017 30.925 98.4134 30.9756 98.4134C31.0263 98.4134 31.0763 98.4017 31.1216 98.3792L32.9496 97.3232C33.0296 97.2792 33.0256 97.2032 32.9496 97.1552L30.8336 95.9351C30.7883 95.9126 30.7383 95.9009 30.6876 95.9009C30.637 95.9009 30.587 95.9126 30.5416 95.9351L28.7136 96.9912C28.6376 97.0352 28.6416 97.1111 28.7136 97.1591L30.8296 98.3792ZM87.4816 81.4392C87.4363 81.4166 87.3863 81.4049 87.3356 81.4049C87.285 81.4049 87.235 81.4166 87.1896 81.4392L82.6816 84.0351C82.6016 84.0791 82.6096 84.1552 82.6816 84.2032L84.7976 85.4032C84.8427 85.4266 84.8928 85.4389 84.9436 85.4389C84.9945 85.4389 85.0445 85.4266 85.0896 85.4032L89.5896 82.8072C89.6696 82.7632 89.6616 82.6872 89.5896 82.6392L87.4816 81.4392ZM81.5736 84.8512C81.5286 84.8277 81.4785 84.8154 81.4276 84.8154C81.3768 84.8154 81.3267 84.8277 81.2816 84.8512L79.4536 85.9072C79.3776 85.9512 79.3816 86.0272 79.4536 86.0752L81.5656 87.2952C81.6107 87.3186 81.6608 87.3309 81.7116 87.3309C81.7625 87.3309 81.8125 87.3186 81.8576 87.2952L83.6856 86.2392C83.7656 86.1952 83.7616 86.1191 83.6856 86.0711L81.5736 84.8512ZM45.3736 104.879L47.2056 103.823C47.2816 103.779 47.2776 103.703 47.2056 103.655L45.0816 102.435C45.0363 102.413 44.9863 102.401 44.9356 102.401C44.885 102.401 44.835 102.413 44.7896 102.435L42.9616 103.491C42.8856 103.535 42.8896 103.611 42.9616 103.659L45.0736 104.883C45.1182 104.904 45.1669 104.914 45.2161 104.913C45.2652 104.913 45.3136 104.901 45.3576 104.879H45.3736ZM76.2296 87.9392C76.1843 87.9166 76.1343 87.9049 76.0836 87.9049C76.033 87.9049 75.983 87.9166 75.9376 87.9392L74.1096 88.9952C74.0296 89.0392 74.0376 89.1152 74.1096 89.1632L76.2216 90.3632C76.267 90.3857 76.317 90.3974 76.3676 90.3974C76.4183 90.3974 76.4683 90.3857 76.5136 90.3632L78.3416 89.3072C78.4216 89.2632 78.4136 89.1872 78.3416 89.1392L76.2296 87.9392ZM90.1536 79.8991C90.1083 79.8766 90.0583 79.8649 90.0076 79.8649C89.957 79.8649 89.907 79.8766 89.8616 79.8991L88.0176 80.9392C87.9416 80.9832 87.9456 81.0592 88.0176 81.1072L90.1296 82.3272C90.175 82.3497 90.225 82.3614 90.2756 82.3614C90.3263 82.3614 90.3763 82.3497 90.4216 82.3272L92.2496 81.2711C92.3296 81.2271 92.3216 81.1512 92.2496 81.1032L90.1536 79.8991ZM94.9536 79.5752L89.8176 76.6111C89.7725 76.5877 89.7225 76.5754 89.6716 76.5754C89.6208 76.5754 89.5707 76.5877 89.5256 76.6111L87.6976 77.6632C87.6216 77.7112 87.6256 77.7871 87.6976 77.8351L92.8296 80.7991C92.875 80.8217 92.925 80.8334 92.9756 80.8334C93.0263 80.8334 93.0763 80.8217 93.1216 80.7991L94.9496 79.7432C95.0136 79.6992 95.0096 79.6232 94.9256 79.5752H94.9536ZM66.2536 93.7032C66.209 93.6806 66.1596 93.6689 66.1096 93.6689C66.0596 93.6689 66.0103 93.6806 65.9656 93.7032L63.7136 95.0032C63.6336 95.0472 63.6416 95.1231 63.7136 95.1711L65.8296 96.3912C65.8747 96.4146 65.9248 96.4269 65.9756 96.4269C66.0265 96.4269 66.0765 96.4146 66.1216 96.3912L68.3736 95.0912C68.4496 95.0472 68.4456 94.9711 68.3736 94.9231L66.2536 93.7032ZM73.0056 89.8032C72.9603 89.7806 72.9103 89.7689 72.8596 89.7689C72.809 89.7689 72.759 89.7806 72.7136 89.8032L69.9136 91.4272C69.8376 91.4712 69.8416 91.5472 69.9136 91.5952L72.0256 92.8152C72.071 92.8377 72.121 92.8494 72.1716 92.8494C72.2223 92.8494 72.2723 92.8377 72.3176 92.8152L75.1176 91.1912C75.1976 91.1472 75.1936 91.0711 75.1176 91.0231L73.0056 89.8032ZM60.0656 97.2752C60.0205 97.2517 59.9705 97.2394 59.9196 97.2394C59.8688 97.2394 59.8187 97.2517 59.7736 97.2752L44.6816 105.959C44.6056 106.003 44.6096 106.079 44.6816 106.127L46.7936 107.327C46.839 107.35 46.889 107.361 46.9396 107.361C46.9903 107.361 47.0403 107.35 47.0856 107.327L62.1336 98.6351C62.2136 98.5911 62.2096 98.5152 62.1336 98.4672L60.0656 97.2752ZM44.1736 106.451C44.1285 106.428 44.0785 106.415 44.0276 106.415C43.9768 106.415 43.9267 106.428 43.8816 106.451L41.6016 107.739C41.5256 107.783 41.5296 107.859 41.6016 107.907L43.7176 109.127C43.7622 109.15 43.8116 109.162 43.8616 109.162C43.9117 109.162 43.9611 109.15 44.0056 109.127L46.2576 107.827C46.3336 107.783 46.3296 107.707 46.2576 107.659L44.1736 106.451ZM63.1616 95.4912C63.1165 95.4677 63.0665 95.4554 63.0156 95.4554C62.9648 95.4554 62.9147 95.4677 62.8696 95.4912L60.6176 96.7912C60.5416 96.8352 60.5456 96.9111 60.6176 96.9591L62.7296 98.1792C62.775 98.2017 62.825 98.2134 62.8756 98.2134C62.9263 98.2134 62.9763 98.2017 63.0216 98.1792L65.2736 96.8792C65.3496 96.8352 65.3456 96.7592 65.2736 96.7112L63.1616 95.4912ZM41.0776 108.239C41.0323 108.217 40.9823 108.205 40.9316 108.205C40.881 108.205 40.831 108.217 40.7856 108.239L38.5376 109.539C38.4576 109.583 38.4656 109.659 38.5376 109.707L40.6536 110.927C40.699 110.95 40.749 110.961 40.7996 110.961C40.8503 110.961 40.9003 110.95 40.9456 110.927L43.1936 109.627C43.2736 109.583 43.2696 109.507 43.1936 109.459L41.0776 108.239ZM69.3496 91.9152C69.3043 91.8926 69.2543 91.8809 69.2036 91.8809C69.153 91.8809 69.103 91.8926 69.0576 91.9152L66.8056 93.2152C66.7296 93.2592 66.7336 93.3351 66.8056 93.3831L68.9216 94.5831C68.9667 94.6066 69.0168 94.6189 69.0676 94.6189C69.1185 94.6189 69.1685 94.6066 69.2136 94.5831L71.4616 93.2872C71.5416 93.2392 71.5336 93.1632 71.4616 93.1152L69.3496 91.9152ZM78.9136 86.3952C78.8683 86.3726 78.8183 86.3609 78.7676 86.3609C78.717 86.3609 78.667 86.3726 78.6216 86.3952L76.7936 87.4512C76.7176 87.4952 76.7216 87.5712 76.7936 87.6192L78.9056 88.8432C78.951 88.8657 79.001 88.8774 79.0516 88.8774C79.1023 88.8774 79.1523 88.8657 79.1976 88.8432L81.0256 87.7872C81.1056 87.7432 81.0976 87.6672 81.0256 87.6192L78.9136 86.3952ZM84.7416 82.1392L86.5696 81.0831C86.6456 81.0391 86.6416 80.9632 86.5696 80.9152L84.4576 79.6952C84.4125 79.6717 84.3625 79.6594 84.3116 79.6594C84.2608 79.6594 84.2107 79.6717 84.1656 79.6952L82.3376 80.7512C82.2576 80.7952 82.2656 80.8712 82.3376 80.9192L84.4536 82.1392C84.4985 82.1611 84.5477 82.1725 84.5976 82.1725C84.6475 82.1725 84.6968 82.1611 84.7416 82.1392ZM72.7936 82.0591L74.6216 81.0072C74.6976 80.9592 74.6936 80.8831 74.6216 80.8351L72.5096 79.6152C72.4645 79.5917 72.4145 79.5794 72.3636 79.5794C72.3128 79.5794 72.2627 79.5917 72.2176 79.6152L70.3896 80.6711C70.3096 80.7151 70.3176 80.7912 70.3896 80.8392L72.5056 82.0591C72.5499 82.0826 72.5991 82.0952 72.6491 82.0959C72.6992 82.0966 72.7487 82.0854 72.7936 82.0632V82.0591ZM66.7376 92.5392L72.0816 89.4552C72.1616 89.4112 72.1576 89.3352 72.0816 89.2872L69.9656 88.0672C69.9203 88.0446 69.8703 88.0329 69.8196 88.0329C69.769 88.0329 69.719 88.0446 69.6736 88.0672L64.3216 91.1392C64.2456 91.1872 64.2496 91.2632 64.3216 91.3112L66.4336 92.5312C66.4799 92.5569 66.5317 92.5711 66.5846 92.5725C66.6376 92.5739 66.6901 92.5625 66.7376 92.5392V92.5392ZM81.7776 83.6831C81.8227 83.7066 81.8728 83.7189 81.9236 83.7189C81.9745 83.7189 82.0245 83.7066 82.0696 83.6831L83.8976 82.6312C83.9736 82.5832 83.9696 82.5071 83.8976 82.4591L81.7856 81.2392C81.7403 81.2166 81.6903 81.2049 81.6396 81.2049C81.589 81.2049 81.539 81.2166 81.4936 81.2392L79.6656 82.2952C79.5856 82.3392 79.5896 82.4152 79.6656 82.4632L81.7776 83.6831ZM79.0496 81.9432L80.8776 80.8912C80.9536 80.8432 80.9496 80.7672 80.8776 80.7192L78.7656 79.4991C78.7203 79.4766 78.6703 79.4649 78.6196 79.4649C78.569 79.4649 78.519 79.4766 78.4736 79.4991L76.6336 80.5392C76.5536 80.5832 76.5576 80.6592 76.6336 80.7072L78.7496 81.9272C78.7947 81.9539 78.8457 81.969 78.8981 81.9711C78.9505 81.9732 79.0026 81.9622 79.0496 81.9392V81.9432ZM64.0656 94.0831L65.8936 93.0272C65.9736 92.9832 65.9656 92.9071 65.8936 92.8591L63.7776 91.6392C63.7323 91.6166 63.6823 91.6049 63.6316 91.6049C63.581 91.6049 63.531 91.6166 63.4856 91.6392L61.6576 92.6952C61.5776 92.7392 61.5856 92.8152 61.6576 92.8632L63.7696 94.0831C63.8158 94.1057 63.8667 94.1171 63.9181 94.1164C63.9695 94.1158 64.0201 94.103 64.0656 94.0792V94.0831ZM75.8816 87.0912C75.927 87.1137 75.977 87.1254 76.0276 87.1254C76.0783 87.1254 76.1283 87.1137 76.1736 87.0912L78.0016 86.0351C78.0816 85.9911 78.0736 85.9152 78.0016 85.8672L75.8816 84.6512C75.8363 84.6286 75.7863 84.6169 75.7356 84.6169C75.685 84.6169 75.635 84.6286 75.5896 84.6512L73.7616 85.7072C73.6816 85.7552 73.6896 85.8272 73.7616 85.8752L75.8816 87.0912ZM50.7176 101.795L52.5456 100.739C52.6216 100.691 52.6176 100.619 52.5456 100.571L50.4096 99.3392C50.3643 99.3166 50.3143 99.3049 50.2636 99.3049C50.213 99.3049 50.163 99.3166 50.1176 99.3392L48.2816 100.399C48.2016 100.443 48.2056 100.519 48.2816 100.567L50.3976 101.787C50.4444 101.814 50.4969 101.828 50.5506 101.83C50.6043 101.831 50.6576 101.819 50.7056 101.795H50.7176ZM53.3896 100.251L55.2176 99.1952C55.2936 99.1512 55.2896 99.0752 55.2176 99.0272L53.0816 97.8072C53.0363 97.7846 52.9863 97.7729 52.9356 97.7729C52.885 97.7729 52.835 97.7846 52.7896 97.8072L50.9616 98.8632C50.8816 98.9072 50.8856 98.9832 50.9616 99.0312L53.0776 100.251C53.124 100.275 53.1755 100.287 53.2276 100.287C53.2798 100.287 53.3312 100.275 53.3776 100.251H53.3896ZM48.0296 103.339L49.8616 102.283C49.9376 102.239 49.9336 102.163 49.8616 102.115L47.7456 100.895C47.7005 100.872 47.6505 100.859 47.5996 100.859C47.5488 100.859 47.4987 100.872 47.4536 100.895L45.6256 101.951C45.5496 101.995 45.5536 102.071 45.6256 102.119L47.7416 103.339C47.7862 103.362 47.8356 103.374 47.8856 103.374C47.9357 103.374 47.9851 103.362 48.0296 103.339V103.339ZM58.7216 97.1672L60.5496 96.1152C60.6256 96.0672 60.6216 95.9912 60.5496 95.9432L58.4376 94.7231C58.3923 94.7006 58.3423 94.6889 58.2916 94.6889C58.241 94.6889 58.191 94.7006 58.1456 94.7231L56.3176 95.7792C56.2376 95.8232 56.2416 95.8991 56.3176 95.9471L58.4336 97.1672C58.4785 97.1894 58.528 97.2006 58.5781 97.1999C58.6282 97.1992 58.6774 97.1866 58.7216 97.1632V97.1672ZM56.0496 98.7112L57.8776 97.6552C57.9536 97.6112 57.9496 97.5352 57.8776 97.4872L55.7656 96.2672C55.7203 96.2446 55.6703 96.2329 55.6196 96.2329C55.569 96.2329 55.519 96.2446 55.4736 96.2672L53.6456 97.3232C53.5656 97.3712 53.5696 97.4432 53.6456 97.4912L55.7616 98.7152C55.8071 98.7358 55.8566 98.7459 55.9066 98.7445C55.9565 98.7431 56.0054 98.7303 56.0496 98.7072V98.7112ZM61.3936 95.6272L63.2216 94.5711C63.2976 94.5271 63.2936 94.4512 63.2216 94.4032L61.1096 93.2032C61.0645 93.1797 61.0145 93.1674 60.9636 93.1674C60.9128 93.1674 60.8627 93.1797 60.8176 93.2032L58.9896 94.2591C58.9096 94.3031 58.9176 94.3792 58.9896 94.4272L61.1056 95.6471C61.1523 95.6654 61.2025 95.6727 61.2524 95.6686C61.3023 95.6644 61.3506 95.6489 61.3936 95.6231V95.6272ZM73.6176 72.8032C73.663 72.8257 73.713 72.8374 73.7636 72.8374C73.8143 72.8374 73.8643 72.8257 73.9096 72.8032L75.7376 71.7471C75.8176 71.7031 75.8136 71.6272 75.7376 71.5792L75.1736 71.2552C75.1283 71.2326 75.0783 71.2209 75.0276 71.2209C74.977 71.2209 74.927 71.2326 74.8816 71.2552L73.0536 72.3111C72.9776 72.3551 72.9816 72.4312 73.0536 72.4792L73.6176 72.8032ZM60.4696 81.2872C60.515 81.3097 60.565 81.3214 60.6156 81.3214C60.6663 81.3214 60.7163 81.3097 60.7616 81.2872L62.5896 80.2312C62.6696 80.1872 62.6656 80.1112 62.5896 80.0632L60.4736 78.8432C60.4283 78.8206 60.3783 78.8089 60.3276 78.8089C60.277 78.8089 60.227 78.8206 60.1816 78.8432L58.3536 79.8991C58.2776 79.9431 58.2816 80.0192 58.3536 80.0672L60.4696 81.2872ZM65.8136 78.2032C65.8587 78.2266 65.9088 78.2389 65.9596 78.2389C66.0105 78.2389 66.0605 78.2266 66.1056 78.2032L67.9336 77.1471C68.0136 77.1031 68.0096 77.0272 67.9336 76.9792L65.8176 75.7591C65.7725 75.7357 65.7225 75.7234 65.6716 75.7234C65.6208 75.7234 65.5707 75.7357 65.5256 75.7591L63.6976 76.8152C63.6216 76.8592 63.6256 76.9351 63.6976 76.9831L65.8136 78.2032ZM57.2056 83.1711C57.251 83.1937 57.301 83.2054 57.3516 83.2054C57.4023 83.2054 57.4523 83.1937 57.4976 83.1711L59.3296 82.1152C59.4056 82.0712 59.4016 81.9951 59.3296 81.9471L57.2136 80.7471C57.1683 80.7246 57.1183 80.7129 57.0676 80.7129C57.017 80.7129 56.967 80.7246 56.9216 80.7471L55.0816 81.7792C55.0056 81.8232 55.0096 81.8991 55.0816 81.9471L57.2056 83.1711ZM63.1416 79.7392C63.187 79.7617 63.237 79.7734 63.2876 79.7734C63.3383 79.7734 63.3883 79.7617 63.4336 79.7392L65.2616 78.6831C65.3416 78.6391 65.3376 78.5632 65.2616 78.5152L63.1456 77.3152C63.1003 77.2926 63.0503 77.2809 62.9996 77.2809C62.949 77.2809 62.899 77.2926 62.8536 77.3152L61.0256 78.3711C60.9496 78.4191 60.9536 78.4912 61.0256 78.5392L63.1416 79.7392ZM51.8816 86.2552C51.927 86.2777 51.977 86.2894 52.0276 86.2894C52.0783 86.2894 52.1283 86.2777 52.1736 86.2552L54.0016 85.1991C54.0816 85.1551 54.0776 85.0792 54.0016 85.0312L51.8856 83.8111C51.8405 83.7877 51.7905 83.7754 51.7396 83.7754C51.6888 83.7754 51.6387 83.7877 51.5936 83.8111L49.7656 84.8632C49.6896 84.9112 49.6936 84.9871 49.7656 85.0351L51.8816 86.2552ZM54.5536 84.7111C54.599 84.7337 54.649 84.7454 54.6996 84.7454C54.7503 84.7454 54.8003 84.7337 54.8456 84.7111L56.6736 83.6552C56.7536 83.6072 56.7496 83.5352 56.6736 83.4872L54.5576 82.2632C54.5123 82.2406 54.4623 82.2289 54.4116 82.2289C54.361 82.2289 54.311 82.2406 54.2656 82.2632L52.4096 83.3392C52.3336 83.3832 52.3376 83.4592 52.4096 83.5072L54.5536 84.7111ZM68.2816 75.8831C68.3267 75.9066 68.3768 75.9189 68.4276 75.9189C68.4785 75.9189 68.5285 75.9066 68.5736 75.8831L70.4016 74.8312C70.4816 74.7832 70.4776 74.7111 70.4016 74.6591L69.8376 74.3351C69.7923 74.3126 69.7423 74.3009 69.6916 74.3009C69.641 74.3009 69.591 74.3126 69.5456 74.3351L67.7176 75.3912C67.6416 75.4352 67.6456 75.5111 67.7176 75.5591L68.2816 75.8831ZM76.2816 71.2552C76.3267 71.2786 76.3768 71.2909 76.4276 71.2909C76.4785 71.2909 76.5285 71.2786 76.5736 71.2552L78.4056 70.1991C78.4816 70.1551 78.4776 70.0792 78.4056 70.0312L77.8416 69.7072C77.7965 69.6837 77.7465 69.6714 77.6956 69.6714C77.6448 69.6714 77.5947 69.6837 77.5496 69.7072L75.7216 70.7591C75.6456 70.8071 75.6496 70.8832 75.7216 70.9312L76.2816 71.2552ZM80.7256 73.8192C80.7707 73.8426 80.8208 73.8549 80.8716 73.8549C80.9225 73.8549 80.9725 73.8426 81.0176 73.8192L82.8456 72.7632C82.9216 72.7192 82.9176 72.6432 82.8456 72.5952L80.7336 71.3952C80.6885 71.3717 80.6385 71.3594 80.5876 71.3594C80.5368 71.3594 80.4867 71.3717 80.4416 71.3952L78.6136 72.4512C78.5336 72.4952 78.5376 72.5712 78.6136 72.6192L80.7256 73.8192ZM87.4056 80.5991L89.2336 79.5432C89.3136 79.4992 89.3056 79.4232 89.2336 79.3752L87.1176 78.1752C87.0723 78.1526 87.0223 78.1409 86.9716 78.1409C86.921 78.1409 86.871 78.1526 86.8256 78.1752L84.9976 79.2312C84.9176 79.2752 84.9256 79.3511 84.9976 79.3991L87.1096 80.6192C87.1579 80.6417 87.211 80.6517 87.2642 80.6482C87.3173 80.6447 87.3687 80.6278 87.4136 80.5991H87.4056ZM70.9456 74.3392C70.991 74.3617 71.041 74.3734 71.0916 74.3734C71.1423 74.3734 71.1923 74.3617 71.2376 74.3392L73.0656 73.2831C73.1456 73.2391 73.1416 73.1632 73.0656 73.1152L72.5016 72.7912C72.4565 72.7677 72.4065 72.7554 72.3556 72.7554C72.3048 72.7554 72.2547 72.7677 72.2096 72.7912L70.3816 73.8471C70.3056 73.8911 70.3096 73.9672 70.3816 74.0152L70.9456 74.3392ZM49.1896 87.7952C49.235 87.8177 49.285 87.8294 49.3356 87.8294C49.3863 87.8294 49.4363 87.8177 49.4816 87.7952L51.3096 86.7392C51.3896 86.6952 51.3856 86.6191 51.3096 86.5711L49.1936 85.3512C49.1483 85.3286 49.0983 85.3169 49.0476 85.3169C48.997 85.3169 48.947 85.3286 48.9016 85.3512L47.0816 86.4072C47.0056 86.4512 47.0096 86.5272 47.0816 86.5752L49.1896 87.7952Z" fill="#263238"/>
<path opacity="0.3" d="M61.0417 103.839L79.0817 93.4192C79.3868 93.2652 79.7239 93.1849 80.0657 93.1849C80.4075 93.1849 80.7445 93.2652 81.0497 93.4192L91.3977 99.3952C91.9417 99.7072 91.9417 100.215 91.3977 100.531L73.3537 110.931C73.0491 111.087 72.7118 111.168 72.3697 111.168C72.0275 111.168 71.6903 111.087 71.3857 110.931L61.0417 104.975C60.4977 104.659 60.4977 104.139 61.0417 103.839Z" fill="white"/>
<path d="M1.55767 97.2912C1.71687 97.3822 1.88597 97.4547 2.06167 97.5072C1.88548 97.4578 1.71617 97.3866 1.55767 97.2952C1.50279 97.2666 1.45058 97.2331 1.40167 97.1952C1.45163 97.2304 1.50373 97.2624 1.55767 97.2912Z" fill="#8A63D2"/>
<path opacity="0.3" d="M69.2777 2.93916C69.1617 2.09116 68.4777 1.77916 67.6497 2.25916L4.73768 38.5752C4.25491 38.8696 3.85557 39.2827 3.57768 39.7752L0.497681 38.0032C0.773866 37.5031 1.17314 37.0818 1.65768 36.7792L64.5737 0.471163C65.029 0.184969 65.5514 0.0233068 66.0888 0.00233921C66.6261 -0.0186284 67.1596 0.101833 67.6358 0.35168C68.112 0.601527 68.5143 0.972003 68.8024 1.42607C69.0905 1.88014 69.2544 2.40189 69.2777 2.93916V2.93916Z" fill="white"/>
<path d="M4.42963 97.4472C4.43743 97.4453 4.44556 97.4453 4.45337 97.4472V97.4472H4.42963Z" fill="#8A63D2"/>
<path opacity="0.5" d="M118.558 90.1872C118.517 90.7379 118.347 91.2713 118.062 91.7444C117.777 92.2176 117.385 92.6172 116.918 92.9112L54.0017 129.235C53.4966 129.506 52.9308 129.644 52.3577 129.635V126.087C52.9307 126.096 53.4965 125.958 54.0017 125.687L116.918 89.3392C117.762 88.8472 117.818 88.0792 117.082 87.5512C117.507 87.8543 117.86 88.2479 118.115 88.7036C118.371 89.1594 118.522 89.6661 118.558 90.1872V90.1872Z" fill="#37474F"/>
<path d="M113.7 25.6393L106.352 21.3993C106.188 21.3113 105.952 21.3713 105.664 21.5913C105.512 21.7033 105.36 21.8153 105.208 21.9193L105.036 22.0273C104.936 22.0913 104.836 22.1593 104.732 22.2193C104.628 22.2793 104.588 22.2993 104.516 22.3433L104.248 22.4913L104 22.6153L103.752 22.7353L103.476 22.8513C103.4 22.8833 103.324 22.9193 103.244 22.9473L102.944 23.0593L102.732 23.1353L102.408 23.2353L102.216 23.2913L101.868 23.3793L101.692 23.4193C101.572 23.4473 101.448 23.4713 101.324 23.4913L101.172 23.5193L100.772 23.5753H100.64C100.504 23.5753 100.364 23.6033 100.24 23.6113H100.132H99.6999H99.6119C99.4639 23.6113 99.3159 23.6113 99.1679 23.6113H99.0999C98.9479 23.6113 98.7919 23.6113 98.6399 23.5793H98.5959L98.1199 23.5153H98.0959L97.8759 23.4713L93.3159 20.8393C92.9799 20.6513 92.6719 20.7873 92.4719 21.2793C89.8239 27.8553 84.1839 34.5233 80.4239 36.1913C80.3492 36.2231 80.277 36.2606 80.2079 36.3033C80.1621 36.3299 80.118 36.3593 80.0759 36.3913L80.0159 36.4313L79.8519 36.5713C79.7959 36.6233 79.7439 36.6793 79.6919 36.7353C79.4237 37.0282 79.274 37.4103 79.2719 37.8073L79.8159 44.4873C79.8159 48.7953 81.6479 53.3393 85.3879 55.5113L92.7399 59.7473L92.7919 59.7753C94.6911 60.8262 96.8727 61.253 99.0279 60.9953C99.8331 60.8621 100.579 60.4884 101.168 59.9233C109.392 51.4313 113.388 39.9233 113.388 33.5793L113.932 26.2193C113.928 25.9273 113.844 25.7233 113.7 25.6393Z" fill="#8A63D2"/>
<path opacity="0.4" d="M100.608 25.0673C100.535 25.0302 100.453 25.013 100.371 25.0172C100.289 25.0214 100.209 25.0469 100.14 25.0913L100.06 25.1513C100.014 25.1977 99.972 25.2486 99.9359 25.3033C99.8957 25.3726 99.861 25.4448 99.8319 25.5193C99.1425 27.2089 98.3144 28.8385 97.3559 30.3913C96.5263 31.7565 95.614 33.0697 94.6239 34.3233C94.1439 34.9233 93.6639 35.4953 93.1799 36.0313C93.1816 36.0379 93.1816 36.0448 93.1799 36.0513L92.7799 36.4953C92.6399 36.6353 92.5079 36.7793 92.3799 36.9153C92.3119 36.9913 92.2439 37.0633 92.1719 37.1313C90.6279 38.6833 89.1159 39.8433 87.8239 40.4153C87.6037 40.5133 87.402 40.6487 87.2279 40.8153L87.0799 40.9633C87.0716 40.9761 87.0622 40.9881 87.0519 40.9993L87.0799 40.9633L79.7359 36.7313C79.7416 36.7203 79.7498 36.7107 79.7599 36.7033C79.7734 36.6815 79.7895 36.6613 79.8079 36.6433L79.8519 36.6033C79.8642 36.589 79.8776 36.5757 79.8919 36.5633L79.9359 36.5233C79.9739 36.4864 80.014 36.4517 80.0559 36.4193L80.1159 36.3793C80.1599 36.3513 80.2039 36.3153 80.2479 36.2913C80.316 36.247 80.3884 36.2095 80.4639 36.1793C84.2239 34.5113 89.8679 27.8433 92.5119 21.2673C92.6559 20.9153 92.8519 20.7433 93.0759 20.7433C93.1754 20.7473 93.2721 20.7776 93.3559 20.8313L97.8719 23.4953L100.608 25.0673Z" fill="white"/>
<path opacity="0.1" d="M113.7 25.6394L106.352 21.3994C106.192 21.3154 105.952 21.3754 105.668 21.5914C105.52 21.7074 105.364 21.8194 105.208 21.9234L105.04 22.0314C104.94 22.0954 104.84 22.1634 104.736 22.2234C104.632 22.2834 104.592 22.3034 104.52 22.3474L104.252 22.4954C104.172 22.5394 104.088 22.5754 104.004 22.6154L103.756 22.7394L103.476 22.8554C103.404 22.8914 103.324 22.9234 103.248 22.9554L102.948 23.0634L102.736 23.1394L102.408 23.2394L102.216 23.2954L101.872 23.3834L101.7 23.4234L101.328 23.4954L101.172 23.5234C101.044 23.5474 100.916 23.5634 100.772 23.5794H100.64L100.24 23.6194H100.132C99.9878 23.6194 99.8438 23.6194 99.6998 23.6194H99.6158C99.4638 23.6194 99.3158 23.6194 99.1678 23.6194H99.1038C98.9478 23.6194 98.7918 23.5994 98.6398 23.5874H98.5958C98.4358 23.5874 98.2758 23.5514 98.1238 23.5274H98.0998C98.0252 23.5178 97.9516 23.5017 97.8798 23.4794L100.616 25.0554L100.664 25.0834C100.768 25.1485 100.86 25.231 100.936 25.3274V25.3274C100.955 25.3441 100.973 25.3629 100.988 25.3834C103.788 28.6554 109.324 28.6514 113.016 25.8274C113.296 25.6154 113.528 25.5474 113.684 25.6194H113.708C113.781 25.663 113.836 25.731 113.864 25.8114C113.83 25.7373 113.772 25.6768 113.7 25.6394V25.6394Z" fill="black"/>
<path opacity="0.2" d="M92.6239 59.7273L85.3719 55.5513C81.6359 53.3753 79.7999 48.8313 79.7999 44.5233L79.2559 37.8433C79.2601 37.5867 79.3229 37.3344 79.4393 37.1057C79.5558 36.8769 79.7229 36.6778 79.9279 36.5233C79.837 36.5988 79.7527 36.6817 79.6759 36.7713L87.0239 41.0033C86.7593 41.2985 86.6164 41.683 86.6239 42.0793L87.1639 48.7593C87.1519 53.0273 88.9519 57.5313 92.6239 59.7273Z" fill="black"/>
<path d="M113.916 26.2593L113.372 33.6193C113.372 39.9793 109.372 51.4713 101.156 59.9633C100.566 60.5307 99.8163 60.9034 99.0079 61.0313C96.8561 61.2967 94.6753 60.8768 92.7759 59.8313V59.8313L92.7239 59.8033L92.6279 59.7433C88.9519 57.5473 87.1479 53.0473 87.1479 48.7753L86.6079 42.0953C86.6022 41.7005 86.745 41.3179 87.0079 41.0233C87.0528 40.9711 87.1009 40.9217 87.1519 40.8753C87.3257 40.7083 87.5274 40.5729 87.7479 40.4753C89.0439 39.8993 90.5479 38.7393 92.0999 37.1913L92.3079 36.9753L92.7079 36.5513L93.1079 36.1073C93.5959 35.5673 94.0759 34.9953 94.5559 34.3953C95.5455 33.1413 96.4579 31.8282 97.2879 30.4633C98.245 28.9118 99.0719 27.2835 99.7599 25.5953C99.7919 25.5201 99.828 25.4466 99.8679 25.3753C99.904 25.3218 99.9455 25.2722 99.9919 25.2273C100.017 25.2048 100.043 25.1847 100.072 25.1673C100.14 25.1213 100.219 25.0947 100.301 25.0905C100.382 25.0862 100.464 25.1045 100.536 25.1433L100.588 25.1673C100.693 25.2314 100.785 25.3141 100.86 25.4113V25.4113L100.912 25.4713C103.712 28.7393 109.248 28.7353 112.94 25.9153C113.216 25.7033 113.452 25.6353 113.608 25.7033H113.628C113.665 25.7193 113.697 25.7457 113.72 25.7793C113.839 25.9118 113.908 26.0814 113.916 26.2593V26.2593Z" fill="#8A63D2"/>
<path d="M102.396 50.3994L98.0198 52.9234L98.6958 45.0074C98.1718 44.7314 97.8398 44.0474 97.8398 43.0714C97.8398 41.3274 98.8998 39.3034 100.208 38.5474C101.516 37.7914 102.576 38.5914 102.576 40.3354C102.548 41.3688 102.253 42.3774 101.72 43.2634L102.396 50.3994Z" fill="#455A64"/>
<path d="M102.396 50.3994L98.4319 48.1074L98.0199 52.9234L102.396 50.3994Z" fill="#37474F"/>
<path d="M100.208 38.5474C99.2545 39.1904 98.5434 40.1337 98.1878 41.2274L101.72 43.2634C102.253 42.3774 102.547 41.3688 102.576 40.3354C102.576 38.5914 101.516 37.7914 100.208 38.5474Z" fill="#37474F"/>
<path d="M105.712 6.97134C104.512 6.26734 102.968 6.34734 101.516 7.18334L90.0158 13.8273C88.817 14.5867 87.8207 15.6261 87.1128 16.8559C86.4048 18.0858 86.0064 19.4693 85.9518 20.8873V34.9753C85.9685 35.1539 86.0325 35.3248 86.1373 35.4703C86.2421 35.6159 86.3838 35.7308 86.5478 35.8033C86.9934 36.0271 87.4851 36.1436 87.9838 36.1436C88.4824 36.1436 88.9742 36.0271 89.4198 35.8033C89.5838 35.7308 89.7255 35.6159 89.8303 35.4703C89.935 35.3248 89.9991 35.1539 90.0158 34.9753V34.9753V20.8873C90.0708 20.1822 90.2829 19.4982 90.6366 18.8857C90.9903 18.2731 91.4765 17.7475 92.0598 17.3473L103.552 10.6953V24.7953C103.569 24.9743 103.634 25.1455 103.739 25.2911C103.844 25.4367 103.987 25.5514 104.152 25.6233C104.596 25.8483 105.088 25.9655 105.586 25.9655C106.084 25.9655 106.575 25.8483 107.02 25.6233C107.184 25.5508 107.326 25.4359 107.43 25.2903C107.535 25.1448 107.599 24.9739 107.616 24.7953V24.7953V10.6953C107.624 9.03534 106.928 7.67134 105.712 6.97134Z" fill="#37474F"/>
<path d="M103.552 10.6954V24.7834C103.569 24.9624 103.634 25.1335 103.739 25.2791C103.845 25.4247 103.987 25.5394 104.152 25.6114C104.339 25.7173 104.539 25.7967 104.748 25.8474V10.0074L103.552 10.6954Z" fill="#263238"/>
</svg>
