<svg width="155" height="155" viewBox="0 0 155 155" fill="none" xmlns="http://www.w3.org/2000/svg">
<path d="M112.22 30.2684V107.148H70.2832V107.291C70.284 110.125 69.1758 112.847 67.1957 114.875C65.2156 116.902 62.5207 118.075 59.6874 118.141H59.3123C58.9436 118.143 58.5751 118.124 58.2087 118.082L56.1875 117.667C55.6861 117.506 55.1971 117.309 54.7243 117.078C54.4881 116.973 54.2583 116.853 54.0361 116.721C53.9153 116.659 53.8002 116.586 53.692 116.504C53.3765 116.32 53.075 116.113 52.7899 115.884C52.7395 115.85 52.6919 115.811 52.6473 115.77C52.4273 115.614 52.22 115.44 52.0273 115.252C51.9281 115.165 51.8289 115.066 51.7173 114.967C50.4675 113.736 49.5457 112.212 49.0358 110.534C49.0255 110.499 49.011 110.466 48.9924 110.434C48.9211 110.177 48.8498 109.904 48.794 109.632C48.7063 109.288 48.6482 108.937 48.6204 108.584C48.5925 108.426 48.5925 108.274 48.577 108.113C48.571 108.06 48.571 108.007 48.577 107.954C48.577 107.753 48.5336 107.567 48.5336 107.365V30.38C48.5336 27.3389 46.4101 19.5083 37.0171 19.5083H101.451C102.864 19.5071 104.265 19.7845 105.571 20.3247C106.878 20.8649 108.065 21.6573 109.065 22.6566C110.065 23.6559 110.859 24.8425 111.4 26.1486C111.941 27.4547 112.22 28.8546 112.22 30.2684V30.2684Z" fill="white"/>
<path d="M112.22 30.2684C112.242 30.3149 112.276 107.17 112.291 107.22C112.307 107.269 70.3142 107.238 70.2987 107.26L70.4103 107.148C70.4112 108.313 70.2421 109.471 69.9081 110.586C69.3776 112.257 68.4575 113.777 67.2237 115.023C65.99 116.268 64.4779 117.202 62.8122 117.747C61.3221 118.214 59.7529 118.373 58.1994 118.215L56.1627 117.8C55.5894 117.623 55.0333 117.395 54.5011 117.118C52.7656 116.267 51.289 114.967 50.224 113.354C49.1591 111.741 48.5444 109.872 48.4437 107.942C48.3724 107.21 48.4065 105.899 48.4003 105.152C48.4003 103.292 48.4003 98.1398 48.4003 96.2054C48.4158 76.6103 48.4437 50.2169 48.4592 30.6001C48.4592 26.6786 46.314 22.6827 42.7707 20.8692C40.9868 20.0001 39.0229 19.5646 37.0388 19.5982V19.437C52.6721 19.4742 86.5613 19.437 101.829 19.5145C107.542 19.654 112.248 24.552 112.211 30.2684H112.22ZM112.22 30.2684C112.245 24.5737 107.551 19.6664 101.835 19.5455C86.7194 19.5052 52.545 19.5951 37.045 19.5889V19.437C39.0552 19.398 41.046 19.8357 42.8544 20.7142C46.4566 22.5494 48.6297 26.6042 48.6545 30.5908C48.6762 50.2169 48.6979 76.5917 48.7134 96.1961C48.7134 98.1336 48.7134 103.264 48.7134 105.143C48.732 105.874 48.67 107.204 48.7537 107.933C48.7821 108.453 48.8474 108.971 48.949 109.483C49.2758 111.062 49.9556 112.547 50.9375 113.826C51.9193 115.105 53.1779 116.146 54.6189 116.87C55.1307 117.138 55.6649 117.361 56.2154 117.537L58.2366 117.955C59.7499 118.122 61.2815 117.966 62.7299 117.496C64.1783 117.027 65.5106 116.256 66.6388 115.234C67.767 114.211 68.6652 112.961 69.2742 111.566C69.8833 110.17 70.1891 108.662 70.1716 107.139V107.028H70.2832L112.205 107.068C112.099 107.533 112.205 30.1506 112.205 30.2591L112.22 30.2684Z" fill="#263238"/>
<path d="M82.6182 26.009L105.121 26.009V25.3921L82.6182 25.3921V26.009Z" fill="#DBDBDB"/>
<path d="M56.4851 42.315H78.988V41.6981H56.4851V42.315Z" fill="#DBDBDB"/>
<path d="M56.4851 45.5793H78.988V44.9624H56.4851V45.5793Z" fill="#DBDBDB"/>
<path d="M56.4851 48.8405H78.988V48.2236H56.4851V48.8405Z" fill="#DBDBDB"/>
<path d="M56.4851 52.1017H78.988V51.4848H56.4851V52.1017Z" fill="#DBDBDB"/>
<path d="M56.4851 55.3629H78.988V54.746H56.4851V55.3629Z" fill="#DBDBDB"/>
<path d="M56.4851 58.6241H78.988V58.0072H56.4851V58.6241Z" fill="#DBDBDB"/>
<path d="M56.4851 61.8822H78.988V61.2653H56.4851V61.8822Z" fill="#DBDBDB"/>
<path d="M56.4851 65.1434H78.988V64.5265H56.4851V65.1434Z" fill="#DBDBDB"/>
<path d="M56.4851 68.4046H78.988V67.7877H56.4851V68.4046Z" fill="#DBDBDB"/>
<path d="M56.4851 71.6689H78.988V71.052H56.4851V71.6689Z" fill="#DBDBDB"/>
<path d="M56.4851 78.1913H78.988V77.5744H56.4851V78.1913Z" fill="#DBDBDB"/>
<path d="M56.4851 81.4525H78.988V80.8356H56.4851V81.4525Z" fill="#DBDBDB"/>
<path d="M56.4851 84.7137H78.988V84.0968H56.4851V84.7137Z" fill="#DBDBDB"/>
<path d="M56.4851 87.9749H78.988V87.358H56.4851V87.9749Z" fill="#DBDBDB"/>
<path d="M56.4851 94.4973H78.988V93.8804H56.4851V94.4973Z" fill="#DBDBDB"/>
<path d="M56.4851 97.7585H78.988V97.1416H56.4851V97.7585Z" fill="#DBDBDB"/>
<path d="M56.4851 101.023H78.988V100.406H56.4851V101.023Z" fill="#DBDBDB"/>
<path d="M82.6182 29.2702L105.121 29.2702V28.6533L82.6182 28.6533V29.2702Z" fill="#DBDBDB"/>
<path d="M82.6182 32.5314H105.121V31.9145L82.6182 31.9145V32.5314Z" fill="#DBDBDB"/>
<path d="M82.6182 35.7926H105.121V35.1757H82.6182V35.7926Z" fill="#DBDBDB"/>
<path d="M82.6182 39.0538H105.121V38.4369H82.6182V39.0538Z" fill="#DBDBDB"/>
<path d="M82.6182 42.315H105.121V41.6981H82.6182V42.315Z" fill="#DBDBDB"/>
<path d="M82.6182 45.5793H105.121V44.9624H82.6182V45.5793Z" fill="#DBDBDB"/>
<path d="M82.6182 48.8405H105.121V48.2236H82.6182V48.8405Z" fill="#DBDBDB"/>
<path d="M82.6182 52.1017H105.121V51.4848H82.6182V52.1017Z" fill="#DBDBDB"/>
<path d="M82.6182 55.3629H105.121V54.746H82.6182V55.3629Z" fill="#DBDBDB"/>
<path d="M82.6182 61.8822H105.121V61.2653H82.6182V61.8822Z" fill="#DBDBDB"/>
<path d="M82.6182 65.1434H105.121V64.5265H82.6182V65.1434Z" fill="#DBDBDB"/>
<path d="M82.6182 68.4046H105.121V67.7877H82.6182V68.4046Z" fill="#DBDBDB"/>
<path d="M82.6182 71.6689H105.121V71.052H82.6182V71.6689Z" fill="#DBDBDB"/>
<path d="M82.6182 74.9301H105.121V74.3132H82.6182V74.9301Z" fill="#DBDBDB"/>
<path d="M82.6182 78.1913H105.121V77.5744H82.6182V78.1913Z" fill="#DBDBDB"/>
<path d="M82.6182 81.4525H105.121V80.8356H82.6182V81.4525Z" fill="#DBDBDB"/>
<path d="M82.6182 84.7137H105.121V84.0968H82.6182V84.7137Z" fill="#DBDBDB"/>
<path d="M56.4851 25.9811L67.7381 25.9532C71.4891 25.9532 75.237 25.9532 78.988 25.9811C75.237 26.0059 71.4891 25.9997 67.7381 26.009L56.4851 25.9811Z" fill="#DBDBDB"/>
<path d="M56.4851 26.8212L67.7381 26.7933C71.4891 26.7933 75.237 26.7933 78.988 26.8212C75.237 26.846 71.4891 26.8398 67.7381 26.8491L56.4851 26.8212Z" fill="#DBDBDB"/>
<path d="M56.4851 27.6613L67.7381 27.6365C71.4891 27.6365 75.237 27.6365 78.988 27.6613C75.237 27.6861 71.4891 27.6799 67.7381 27.6892L56.4851 27.6613Z" fill="#DBDBDB"/>
<path d="M56.4851 28.5014L67.7381 28.4766C71.4891 28.4766 75.237 28.4766 78.988 28.5014C75.237 28.5262 71.4891 28.52 67.7381 28.5293L56.4851 28.5014Z" fill="#DBDBDB"/>
<path d="M56.4851 29.3446L67.7381 29.3167C71.4891 29.3167 75.237 29.3167 78.988 29.3446C75.237 29.3663 71.4891 29.3446 67.7381 29.3694L56.4851 29.3446Z" fill="#DBDBDB"/>
<path d="M56.4851 30.1847L67.7381 30.1568C71.4891 30.1568 75.237 30.1568 78.988 30.1847C75.237 30.2064 71.4891 30.1847 67.7381 30.2126L56.4851 30.1847Z" fill="#DBDBDB"/>
<path d="M56.4851 31.0248L67.7381 30.9969C71.4891 30.9969 75.237 30.9969 78.988 31.0248C75.237 31.0465 71.4891 31.0434 67.7381 31.0527L56.4851 31.0248Z" fill="#DBDBDB"/>
<path d="M56.4851 31.8649L67.7381 31.837C71.4891 31.837 75.237 31.837 78.988 31.8649C75.237 31.8897 71.4891 31.8835 67.7381 31.8928L56.4851 31.8649Z" fill="#DBDBDB"/>
<path d="M56.4851 32.705L67.7381 32.6771C71.4891 32.6771 75.237 32.6771 78.988 32.705C75.237 32.7298 71.4891 32.7236 67.7381 32.7329L56.4851 32.705Z" fill="#DBDBDB"/>
<path d="M56.4851 33.5451L67.7381 33.5172C71.4891 33.5172 75.237 33.5172 78.988 33.5451C75.237 33.5699 71.4891 33.5637 67.7381 33.573L56.4851 33.5451Z" fill="#DBDBDB"/>
<path d="M56.4851 34.3852L67.7381 34.3573C71.4891 34.3573 75.237 34.3573 78.988 34.3852C75.237 34.41 71.4891 34.4038 67.7381 34.4131L56.4851 34.3852Z" fill="#DBDBDB"/>
<path d="M56.4851 35.2253L67.7381 35.2005C71.4891 35.2005 75.237 35.2005 78.988 35.2253C75.237 35.2501 71.4891 35.2439 67.7381 35.2532L56.4851 35.2253Z" fill="#DBDBDB"/>
<path d="M56.4851 36.0685L67.7381 36.0406C71.4891 36.0406 75.237 36.0406 78.988 36.0685C75.237 36.0902 71.4891 36.084 67.7381 36.0933L56.4851 36.0685Z" fill="#DBDBDB"/>
<path d="M56.4851 36.9086L67.7381 36.8807C71.4891 36.8807 75.237 36.8807 78.988 36.9086C75.237 36.9303 71.4891 36.9086 67.7381 36.9334L56.4851 36.9086Z" fill="#DBDBDB"/>
<path d="M56.4851 37.7487L67.7381 37.7208C71.4891 37.7208 75.237 37.7208 78.988 37.7487C75.237 37.7704 71.4891 37.7487 67.7381 37.7766L56.4851 37.7487Z" fill="#DBDBDB"/>
<path d="M60.571 31.8649H58.866V38.7283H60.571V31.8649Z" fill="#6F42C1"/>
<path d="M63.736 28.9602H62.031V38.7252H63.736V28.9602Z" fill="#263238"/>
<path d="M66.901 31.0527H65.196V38.7283H66.901V31.0527Z" fill="#DBDBDB"/>
<path d="M70.0663 28.5014H68.3613V38.7252H70.0663V28.5014Z" fill="#6F42C1"/>
<path d="M73.2343 29.8747H71.5293V38.7283H73.2343V29.8747Z" fill="#263238"/>
<path d="M76.3996 34.8905H74.6946V38.7283H76.3996V34.8905Z" fill="#DBDBDB"/>
<path d="M57.0959 25.3921L57.1424 28.7246L57.1765 32.0602C57.1982 34.2829 57.2044 36.5056 57.2075 38.7283L57.0959 38.626H62.5705H68.042L73.5166 38.657L78.9881 38.719L73.5166 38.7779L68.042 38.812H62.5705H56.9905V38.7097C56.9905 36.487 56.9905 34.2643 57.0246 32.0416L57.0556 28.706L57.0959 25.3921Z" fill="#DBDBDB"/>
<path d="M60.571 39.432H58.866V39.5746H60.571V39.432Z" fill="#DBDBDB"/>
<path d="M63.736 39.432H62.031V39.5746H63.736V39.432Z" fill="#DBDBDB"/>
<path d="M66.901 39.432H65.196V39.5746H66.901V39.432Z" fill="#DBDBDB"/>
<path d="M70.0663 39.432H68.3613V39.5746H70.0663V39.432Z" fill="#DBDBDB"/>
<path d="M73.2343 39.432H71.5293V39.5746H73.2343V39.432Z" fill="#DBDBDB"/>
<path d="M76.3996 39.432H74.6946V39.5746H76.3996V39.432Z" fill="#DBDBDB"/>
<path d="M37.82 19.5114C40.6996 19.5155 43.4597 20.6625 45.4942 22.7004C47.5286 24.7383 48.6708 27.5005 48.67 30.38V35.061H26.9514V30.38C26.951 28.9526 27.2319 27.5391 27.7779 26.2203C28.324 24.9015 29.1245 23.7032 30.1338 22.6939C31.1432 21.6845 32.3415 20.884 33.6603 20.3379C34.9791 19.7919 36.3926 19.511 37.82 19.5114V19.5114Z" fill="#6F42C1"/>
<path d="M128.049 107.148V107.291C128.049 110.125 126.941 112.847 124.961 114.875C122.981 116.902 120.286 118.075 117.453 118.141H59.6875C62.5208 118.075 65.2157 116.902 67.1958 114.875C69.1759 112.847 70.2841 110.125 70.2833 107.291V107.148H128.049Z" fill="#6F42C1"/>
<path d="M16.9105 146.382C55.7287 146.19 99.2713 146.19 138.09 146.382C99.2713 146.571 55.7287 146.571 16.9105 146.382V146.382Z" fill="#263238"/>
<path d="M138.09 26.4337C138.09 27.6185 137.76 28.78 137.139 29.7887C136.517 30.7974 135.628 31.6136 134.57 32.1463C133.511 32.679 132.326 32.9072 131.145 32.8055C129.965 32.7039 128.836 32.2762 127.884 31.5704L124.75 32.3702L126.055 29.45C125.597 28.5927 125.339 27.6422 125.303 26.6706C125.267 25.699 125.453 24.7319 125.847 23.843C126.241 22.954 126.832 22.1665 127.576 21.5404C128.32 20.9142 129.196 20.4659 130.139 20.2295C131.082 19.9932 132.067 19.9749 133.018 20.1762C133.969 20.3775 134.862 20.793 135.629 21.3912C136.395 21.9894 137.015 22.7544 137.442 23.6282C137.868 24.502 138.09 25.4615 138.09 26.4337Z" fill="white"/>
<path d="M138.089 26.4337C138.148 30.1196 134.803 33.201 131.136 32.8786C129.938 32.7881 128.79 32.3651 127.819 31.6572L127.912 31.6758L124.784 32.5004L124.511 32.5717L124.626 32.3144L125.919 29.3911V29.5213C125.216 28.201 124.989 26.679 125.276 25.2111C125.564 23.7432 126.348 22.419 127.497 21.4613C131.697 17.9955 138.083 20.9963 138.083 26.4399L138.089 26.4337ZM138.089 26.4337C138.108 22.3479 134.109 19.2324 130.16 20.3174C126.278 21.2784 124.27 25.8757 126.185 29.3818L126.223 29.4469L126.192 29.512L124.874 32.4229L124.716 32.2369L127.856 31.4619H127.909L127.949 31.4929C132.103 34.6394 138.065 31.6448 138.089 26.4461V26.4337Z" fill="#263238"/>
<path d="M130.659 30.2405L127.791 27.3389L128.755 26.3872L130.429 28.0829L133.908 22.6269L135.048 23.3554L130.659 30.2405Z" fill="#6F42C1"/>
</svg>
