<svg width="28" height="32" viewBox="0 0 28 32" fill="none" xmlns="http://www.w3.org/2000/svg">
<path d="M7.59997 14.9227H6.5333V17.056H7.59997V14.9227ZM20.4 17.056H21.4666V14.9227H20.4V17.056ZM7.59997 21.3333H6.5333V23.4667H7.59997V21.3333ZM20.4 23.4667H21.4666V21.3333H20.4V23.4667ZM7.59997 8.52693H6.5333V10.6603H7.59997V8.52693ZM20.4 10.6603H21.4666V8.52693H20.4V10.6603ZM26.8 7.46667H27.8666V7.02507L27.5552 6.71147L26.8 7.46667ZM20.4 1.06667L21.1552 0.311467L20.8416 0H20.4V1.06667ZM7.59997 17.056H20.4V14.9227H7.59997V17.056ZM7.59997 23.4667H20.4V21.3333H7.59997V23.4667ZM7.59997 10.6603H20.4V8.52693H7.59997V10.6603ZM24.6666 29.8667H3.3333V32H24.6666V29.8667ZM2.26663 28.8V3.2H0.133301V28.8H2.26663ZM25.7333 7.46667V28.8H27.8666V7.46667H25.7333ZM3.3333 2.13333H20.4V0H3.3333V2.13333ZM19.6448 1.82187L26.0448 8.22187L27.5552 6.71147L21.1552 0.311467L19.6448 1.82187ZM3.3333 29.8667C3.0504 29.8667 2.77909 29.7543 2.57905 29.5542C2.37901 29.3542 2.26663 29.0829 2.26663 28.8H0.133301C0.133301 29.6487 0.470443 30.4626 1.07056 31.0627C1.67068 31.6629 2.48461 32 3.3333 32V29.8667ZM24.6666 32C25.5153 32 26.3293 31.6629 26.9294 31.0627C27.5295 30.4626 27.8666 29.6487 27.8666 28.8H25.7333C25.7333 29.0829 25.6209 29.3542 25.4209 29.5542C25.2208 29.7543 24.9495 29.8667 24.6666 29.8667V32ZM2.26663 3.2C2.26663 2.9171 2.37901 2.64579 2.57905 2.44575C2.77909 2.24571 3.0504 2.13333 3.3333 2.13333V0C2.48461 0 1.67068 0.337142 1.07056 0.937258C0.470443 1.53737 0.133301 2.35131 0.133301 3.2H2.26663Z" fill="#5E5EDD"/>
</svg>
