<svg width="383" height="293" viewBox="0 0 383 293" fill="none" xmlns="http://www.w3.org/2000/svg">
<g opacity="0.4">
<path d="M128.783 144.276V216.677L64.3418 251.537V108.076L128.783 144.276Z" fill="url(#paint0_linear_2515_7059)"/>
<g filter="url(#filter0_b_2515_7059)">
<path d="M0.857346 144.688L64.9786 180.85L129.1 144.688L64.9786 108.526L0.857346 144.688Z" fill="white" fill-opacity="0.2"/>
<path d="M64.9786 108.969L1.64304 144.688L64.9786 180.407L128.314 144.688L64.9786 108.969Z" stroke="url(#paint1_linear_2515_7059)" stroke-width="0.771919"/>
<path d="M64.9786 108.969L1.64304 144.688L64.9786 180.407L128.314 144.688L64.9786 108.969Z" stroke="url(#paint2_linear_2515_7059)" stroke-opacity="0.2" stroke-width="0.771919"/>
</g>
<g filter="url(#filter1_b_2515_7059)">
<path d="M64.9798 180.851V253.175L129.101 217.013V144.689L64.9798 180.851Z" fill="white" fill-opacity="0.2"/>
<path d="M128.715 145.35L65.3658 181.076V252.514L128.715 216.787V145.35Z" stroke="url(#paint3_linear_2515_7059)" stroke-width="0.771919"/>
<path d="M128.715 145.35L65.3658 181.076V252.514L128.715 216.787V145.35Z" stroke="url(#paint4_linear_2515_7059)" stroke-opacity="0.2" stroke-width="0.771919"/>
</g>
<g filter="url(#filter2_b_2515_7059)">
<path d="M0.859215 144.689V217.013L64.9805 253.175V180.851L0.859215 144.689Z" fill="white" fill-opacity="0.2"/>
<path d="M64.5945 181.076L1.24517 145.35V216.787L64.5945 252.514V181.076Z" stroke="url(#paint5_linear_2515_7059)" stroke-width="0.771919"/>
<path d="M64.5945 181.076L1.24517 145.35V216.787L64.5945 252.514V181.076Z" stroke="url(#paint6_linear_2515_7059)" stroke-opacity="0.2" stroke-width="0.771919"/>
</g>
<path d="M382.077 137.421V208.376L317.636 241.615V101.22L382.077 137.421Z" fill="url(#paint7_linear_2515_7059)"/>
<g filter="url(#filter3_b_2515_7059)">
<path d="M254.27 136.602L318.392 172.764L382.513 136.602L318.392 100.44L254.27 136.602Z" fill="white" fill-opacity="0.2"/>
<path d="M318.392 100.883L255.056 136.602L318.392 172.321L381.727 136.602L318.392 100.883Z" stroke="url(#paint8_linear_2515_7059)" stroke-width="0.771919"/>
<path d="M318.392 100.883L255.056 136.602L318.392 172.321L381.727 136.602L318.392 100.883Z" stroke="url(#paint9_linear_2515_7059)" stroke-opacity="0.2" stroke-width="0.771919"/>
</g>
<g filter="url(#filter4_b_2515_7059)">
<path d="M318.392 172.764V245.088L382.514 208.926V136.602L318.392 172.764Z" fill="white" fill-opacity="0.2"/>
<path d="M382.128 137.263L318.778 172.989V244.427L382.128 208.7V137.263Z" stroke="url(#paint10_linear_2515_7059)" stroke-width="0.771919"/>
<path d="M382.128 137.263L318.778 172.989V244.427L382.128 208.7V137.263Z" stroke="url(#paint11_linear_2515_7059)" stroke-opacity="0.2" stroke-width="0.771919"/>
</g>
<g filter="url(#filter5_b_2515_7059)">
<path d="M254.272 136.602V208.926L318.393 245.088V172.764L254.272 136.602Z" fill="white" fill-opacity="0.2"/>
<path d="M318.007 172.989L254.658 137.263V208.7L318.007 244.427V172.989Z" stroke="url(#paint12_linear_2515_7059)" stroke-width="0.771919"/>
<path d="M318.007 172.989L254.658 137.263V208.7L318.007 244.427V172.989Z" stroke="url(#paint13_linear_2515_7059)" stroke-opacity="0.2" stroke-width="0.771919"/>
</g>
<path d="M253.578 36.9807V107.936L189.137 141.175V0.780396L253.578 36.9807Z" fill="url(#paint14_linear_2515_7059)"/>
<g filter="url(#filter6_b_2515_7059)">
<path d="M125.77 36.162L189.892 72.324L254.013 36.162L189.892 0L125.77 36.162Z" fill="white" fill-opacity="0.2"/>
<path d="M189.892 0.443108L126.556 36.162L189.892 71.8809L253.227 36.162L189.892 0.443108Z" stroke="url(#paint15_linear_2515_7059)" stroke-width="0.771919"/>
<path d="M189.892 0.443108L126.556 36.162L189.892 71.8809L253.227 36.162L189.892 0.443108Z" stroke="url(#paint16_linear_2515_7059)" stroke-opacity="0.2" stroke-width="0.771919"/>
</g>
<g filter="url(#filter7_b_2515_7059)">
<path d="M189.894 72.3243V144.648L254.015 108.486V36.1624L189.894 72.3243Z" fill="white" fill-opacity="0.2"/>
<path d="M253.629 36.8231L190.28 72.5498V143.988L253.629 108.261V36.8231Z" stroke="url(#paint17_linear_2515_7059)" stroke-width="0.771919"/>
<path d="M253.629 36.8231L190.28 72.5498V143.988L253.629 108.261V36.8231Z" stroke="url(#paint18_linear_2515_7059)" stroke-opacity="0.2" stroke-width="0.771919"/>
</g>
<g filter="url(#filter8_b_2515_7059)">
<path d="M125.773 36.1624V108.486L189.894 144.648V72.3243L125.773 36.1624Z" fill="white" fill-opacity="0.2"/>
<path d="M189.508 72.5498L126.159 36.8231V108.261L189.508 143.988V72.5498Z" stroke="url(#paint19_linear_2515_7059)" stroke-width="0.771919"/>
<path d="M189.508 72.5498L126.159 36.8231V108.261L189.508 143.988V72.5498Z" stroke="url(#paint20_linear_2515_7059)" stroke-opacity="0.2" stroke-width="0.771919"/>
</g>
<path d="M253.577 236.098V307.053L189.136 340.292V199.898L253.577 236.098Z" fill="url(#paint21_linear_2515_7059)"/>
<g filter="url(#filter9_b_2515_7059)">
<path d="M125.771 235.279L189.892 271.441L254.013 235.279L189.892 199.117L125.771 235.279Z" fill="white" fill-opacity="0.2"/>
<path d="M189.892 199.56L126.557 235.279L189.892 270.998L253.228 235.279L189.892 199.56Z" stroke="url(#paint22_linear_2515_7059)" stroke-width="0.771919"/>
<path d="M189.892 199.56L126.557 235.279L189.892 270.998L253.228 235.279L189.892 199.56Z" stroke="url(#paint23_linear_2515_7059)" stroke-opacity="0.2" stroke-width="0.771919"/>
</g>
<g filter="url(#filter10_b_2515_7059)">
<path d="M189.894 271.441V343.765L254.015 307.603V235.279L189.894 271.441Z" fill="white" fill-opacity="0.2"/>
<path d="M253.629 235.94L190.28 271.667V343.104L253.629 307.378V235.94Z" stroke="url(#paint24_linear_2515_7059)" stroke-width="0.771919"/>
<path d="M253.629 235.94L190.28 271.667V343.104L253.629 307.378V235.94Z" stroke="url(#paint25_linear_2515_7059)" stroke-opacity="0.2" stroke-width="0.771919"/>
</g>
<g filter="url(#filter11_b_2515_7059)">
<path d="M125.772 235.279V307.603L189.893 343.765V271.441L125.772 235.279Z" fill="white" fill-opacity="0.2"/>
<path d="M189.507 271.667L126.158 235.94V307.378L189.507 343.104V271.667Z" stroke="url(#paint26_linear_2515_7059)" stroke-width="0.771919"/>
<path d="M189.507 271.667L126.158 235.94V307.378L189.507 343.104V271.667Z" stroke="url(#paint27_linear_2515_7059)" stroke-opacity="0.2" stroke-width="0.771919"/>
</g>
</g>
<defs>
<filter id="filter0_b_2515_7059" x="-20.7563" y="86.9126" width="171.47" height="115.551" filterUnits="userSpaceOnUse" color-interpolation-filters="sRGB">
<feFlood flood-opacity="0" result="BackgroundImageFix"/>
<feGaussianBlur in="BackgroundImageFix" stdDeviation="10.8069"/>
<feComposite in2="SourceAlpha" operator="in" result="effect1_backgroundBlur_2515_7059"/>
<feBlend mode="normal" in="SourceGraphic" in2="effect1_backgroundBlur_2515_7059" result="shape"/>
</filter>
<filter id="filter1_b_2515_7059" x="43.366" y="123.075" width="107.349" height="151.713" filterUnits="userSpaceOnUse" color-interpolation-filters="sRGB">
<feFlood flood-opacity="0" result="BackgroundImageFix"/>
<feGaussianBlur in="BackgroundImageFix" stdDeviation="10.8069"/>
<feComposite in2="SourceAlpha" operator="in" result="effect1_backgroundBlur_2515_7059"/>
<feBlend mode="normal" in="SourceGraphic" in2="effect1_backgroundBlur_2515_7059" result="shape"/>
</filter>
<filter id="filter2_b_2515_7059" x="-20.7546" y="123.075" width="107.349" height="151.713" filterUnits="userSpaceOnUse" color-interpolation-filters="sRGB">
<feFlood flood-opacity="0" result="BackgroundImageFix"/>
<feGaussianBlur in="BackgroundImageFix" stdDeviation="10.8069"/>
<feComposite in2="SourceAlpha" operator="in" result="effect1_backgroundBlur_2515_7059"/>
<feBlend mode="normal" in="SourceGraphic" in2="effect1_backgroundBlur_2515_7059" result="shape"/>
</filter>
<filter id="filter3_b_2515_7059" x="232.657" y="78.8261" width="171.47" height="115.551" filterUnits="userSpaceOnUse" color-interpolation-filters="sRGB">
<feFlood flood-opacity="0" result="BackgroundImageFix"/>
<feGaussianBlur in="BackgroundImageFix" stdDeviation="10.8069"/>
<feComposite in2="SourceAlpha" operator="in" result="effect1_backgroundBlur_2515_7059"/>
<feBlend mode="normal" in="SourceGraphic" in2="effect1_backgroundBlur_2515_7059" result="shape"/>
</filter>
<filter id="filter4_b_2515_7059" x="296.779" y="114.988" width="107.349" height="151.713" filterUnits="userSpaceOnUse" color-interpolation-filters="sRGB">
<feFlood flood-opacity="0" result="BackgroundImageFix"/>
<feGaussianBlur in="BackgroundImageFix" stdDeviation="10.8069"/>
<feComposite in2="SourceAlpha" operator="in" result="effect1_backgroundBlur_2515_7059"/>
<feBlend mode="normal" in="SourceGraphic" in2="effect1_backgroundBlur_2515_7059" result="shape"/>
</filter>
<filter id="filter5_b_2515_7059" x="232.658" y="114.988" width="107.349" height="151.713" filterUnits="userSpaceOnUse" color-interpolation-filters="sRGB">
<feFlood flood-opacity="0" result="BackgroundImageFix"/>
<feGaussianBlur in="BackgroundImageFix" stdDeviation="10.8069"/>
<feComposite in2="SourceAlpha" operator="in" result="effect1_backgroundBlur_2515_7059"/>
<feBlend mode="normal" in="SourceGraphic" in2="effect1_backgroundBlur_2515_7059" result="shape"/>
</filter>
<filter id="filter6_b_2515_7059" x="104.157" y="-21.6137" width="171.47" height="115.551" filterUnits="userSpaceOnUse" color-interpolation-filters="sRGB">
<feFlood flood-opacity="0" result="BackgroundImageFix"/>
<feGaussianBlur in="BackgroundImageFix" stdDeviation="10.8069"/>
<feComposite in2="SourceAlpha" operator="in" result="effect1_backgroundBlur_2515_7059"/>
<feBlend mode="normal" in="SourceGraphic" in2="effect1_backgroundBlur_2515_7059" result="shape"/>
</filter>
<filter id="filter7_b_2515_7059" x="168.28" y="14.5486" width="107.349" height="151.713" filterUnits="userSpaceOnUse" color-interpolation-filters="sRGB">
<feFlood flood-opacity="0" result="BackgroundImageFix"/>
<feGaussianBlur in="BackgroundImageFix" stdDeviation="10.8069"/>
<feComposite in2="SourceAlpha" operator="in" result="effect1_backgroundBlur_2515_7059"/>
<feBlend mode="normal" in="SourceGraphic" in2="effect1_backgroundBlur_2515_7059" result="shape"/>
</filter>
<filter id="filter8_b_2515_7059" x="104.159" y="14.5486" width="107.349" height="151.713" filterUnits="userSpaceOnUse" color-interpolation-filters="sRGB">
<feFlood flood-opacity="0" result="BackgroundImageFix"/>
<feGaussianBlur in="BackgroundImageFix" stdDeviation="10.8069"/>
<feComposite in2="SourceAlpha" operator="in" result="effect1_backgroundBlur_2515_7059"/>
<feBlend mode="normal" in="SourceGraphic" in2="effect1_backgroundBlur_2515_7059" result="shape"/>
</filter>
<filter id="filter9_b_2515_7059" x="104.157" y="177.503" width="171.47" height="115.551" filterUnits="userSpaceOnUse" color-interpolation-filters="sRGB">
<feFlood flood-opacity="0" result="BackgroundImageFix"/>
<feGaussianBlur in="BackgroundImageFix" stdDeviation="10.8069"/>
<feComposite in2="SourceAlpha" operator="in" result="effect1_backgroundBlur_2515_7059"/>
<feBlend mode="normal" in="SourceGraphic" in2="effect1_backgroundBlur_2515_7059" result="shape"/>
</filter>
<filter id="filter10_b_2515_7059" x="168.28" y="213.666" width="107.349" height="151.713" filterUnits="userSpaceOnUse" color-interpolation-filters="sRGB">
<feFlood flood-opacity="0" result="BackgroundImageFix"/>
<feGaussianBlur in="BackgroundImageFix" stdDeviation="10.8069"/>
<feComposite in2="SourceAlpha" operator="in" result="effect1_backgroundBlur_2515_7059"/>
<feBlend mode="normal" in="SourceGraphic" in2="effect1_backgroundBlur_2515_7059" result="shape"/>
</filter>
<filter id="filter11_b_2515_7059" x="104.158" y="213.666" width="107.349" height="151.713" filterUnits="userSpaceOnUse" color-interpolation-filters="sRGB">
<feFlood flood-opacity="0" result="BackgroundImageFix"/>
<feGaussianBlur in="BackgroundImageFix" stdDeviation="10.8069"/>
<feComposite in2="SourceAlpha" operator="in" result="effect1_backgroundBlur_2515_7059"/>
<feBlend mode="normal" in="SourceGraphic" in2="effect1_backgroundBlur_2515_7059" result="shape"/>
</filter>
<linearGradient id="paint0_linear_2515_7059" x1="128.783" y1="141.705" x2="-66.3391" y2="341.655" gradientUnits="userSpaceOnUse">
<stop stop-color="white"/>
<stop offset="0.395053" stop-opacity="0"/>
</linearGradient>
<linearGradient id="paint1_linear_2515_7059" x1="318.792" y1="18.3684" x2="203.799" y2="249.821" gradientUnits="userSpaceOnUse">
<stop stop-color="white"/>
<stop offset="1" stop-color="white" stop-opacity="0"/>
</linearGradient>
<linearGradient id="paint2_linear_2515_7059" x1="220.245" y1="93.7059" x2="145.125" y2="226.267" gradientUnits="userSpaceOnUse">
<stop stop-color="white"/>
<stop offset="1" stop-color="white" stop-opacity="0"/>
</linearGradient>
<linearGradient id="paint3_linear_2515_7059" x1="223.947" y1="9.45204" x2="23.6722" y2="143.82" gradientUnits="userSpaceOnUse">
<stop stop-color="white"/>
<stop offset="1" stop-color="white" stop-opacity="0"/>
</linearGradient>
<linearGradient id="paint4_linear_2515_7059" x1="174.673" y1="122.458" x2="59.8719" y2="189.987" gradientUnits="userSpaceOnUse">
<stop stop-color="white"/>
<stop offset="1" stop-color="white" stop-opacity="0"/>
</linearGradient>
<linearGradient id="paint5_linear_2515_7059" x1="159.826" y1="9.45204" x2="-40.4484" y2="143.82" gradientUnits="userSpaceOnUse">
<stop stop-color="white"/>
<stop offset="1" stop-color="white" stop-opacity="0"/>
</linearGradient>
<linearGradient id="paint6_linear_2515_7059" x1="110.553" y1="122.458" x2="-4.24867" y2="189.987" gradientUnits="userSpaceOnUse">
<stop stop-color="white"/>
<stop offset="1" stop-color="white" stop-opacity="0"/>
</linearGradient>
<linearGradient id="paint7_linear_2515_7059" x1="384.003" y1="134.849" x2="188.882" y2="334.8" gradientUnits="userSpaceOnUse">
<stop stop-color="white"/>
<stop offset="0.395053" stop-opacity="0"/>
</linearGradient>
<linearGradient id="paint8_linear_2515_7059" x1="572.205" y1="10.2819" x2="457.212" y2="241.734" gradientUnits="userSpaceOnUse">
<stop stop-color="white"/>
<stop offset="1" stop-color="white" stop-opacity="0"/>
</linearGradient>
<linearGradient id="paint9_linear_2515_7059" x1="473.658" y1="85.6193" x2="398.538" y2="218.181" gradientUnits="userSpaceOnUse">
<stop stop-color="white"/>
<stop offset="1" stop-color="white" stop-opacity="0"/>
</linearGradient>
<linearGradient id="paint10_linear_2515_7059" x1="477.36" y1="1.36488" x2="277.085" y2="135.733" gradientUnits="userSpaceOnUse">
<stop stop-color="white"/>
<stop offset="1" stop-color="white" stop-opacity="0"/>
</linearGradient>
<linearGradient id="paint11_linear_2515_7059" x1="428.086" y1="114.371" x2="313.285" y2="181.9" gradientUnits="userSpaceOnUse">
<stop stop-color="white"/>
<stop offset="1" stop-color="white" stop-opacity="0"/>
</linearGradient>
<linearGradient id="paint12_linear_2515_7059" x1="413.239" y1="1.36488" x2="212.964" y2="135.733" gradientUnits="userSpaceOnUse">
<stop stop-color="white"/>
<stop offset="1" stop-color="white" stop-opacity="0"/>
</linearGradient>
<linearGradient id="paint13_linear_2515_7059" x1="363.965" y1="114.371" x2="249.164" y2="181.9" gradientUnits="userSpaceOnUse">
<stop stop-color="white"/>
<stop offset="1" stop-color="white" stop-opacity="0"/>
</linearGradient>
<linearGradient id="paint14_linear_2515_7059" x1="255.505" y1="34.4096" x2="60.3832" y2="234.36" gradientUnits="userSpaceOnUse">
<stop stop-color="white"/>
<stop offset="0.395053" stop-opacity="0"/>
</linearGradient>
<linearGradient id="paint15_linear_2515_7059" x1="443.705" y1="-90.158" x2="328.712" y2="141.294" gradientUnits="userSpaceOnUse">
<stop stop-color="white"/>
<stop offset="1" stop-color="white" stop-opacity="0"/>
</linearGradient>
<linearGradient id="paint16_linear_2515_7059" x1="345.158" y1="-14.8205" x2="270.038" y2="117.741" gradientUnits="userSpaceOnUse">
<stop stop-color="white"/>
<stop offset="1" stop-color="white" stop-opacity="0"/>
</linearGradient>
<linearGradient id="paint17_linear_2515_7059" x1="348.861" y1="-99.0746" x2="148.586" y2="35.2933" gradientUnits="userSpaceOnUse">
<stop stop-color="white"/>
<stop offset="1" stop-color="white" stop-opacity="0"/>
</linearGradient>
<linearGradient id="paint18_linear_2515_7059" x1="299.587" y1="13.9316" x2="184.786" y2="81.4605" gradientUnits="userSpaceOnUse">
<stop stop-color="white"/>
<stop offset="1" stop-color="white" stop-opacity="0"/>
</linearGradient>
<linearGradient id="paint19_linear_2515_7059" x1="284.74" y1="-99.0746" x2="84.4654" y2="35.2933" gradientUnits="userSpaceOnUse">
<stop stop-color="white"/>
<stop offset="1" stop-color="white" stop-opacity="0"/>
</linearGradient>
<linearGradient id="paint20_linear_2515_7059" x1="235.467" y1="13.9316" x2="120.665" y2="81.4605" gradientUnits="userSpaceOnUse">
<stop stop-color="white"/>
<stop offset="1" stop-color="white" stop-opacity="0"/>
</linearGradient>
<linearGradient id="paint21_linear_2515_7059" x1="255.504" y1="233.527" x2="60.3822" y2="433.477" gradientUnits="userSpaceOnUse">
<stop stop-color="white"/>
<stop offset="0.395053" stop-opacity="0"/>
</linearGradient>
<linearGradient id="paint22_linear_2515_7059" x1="443.705" y1="108.959" x2="328.712" y2="340.411" gradientUnits="userSpaceOnUse">
<stop stop-color="white"/>
<stop offset="1" stop-color="white" stop-opacity="0"/>
</linearGradient>
<linearGradient id="paint23_linear_2515_7059" x1="345.158" y1="184.297" x2="270.038" y2="316.858" gradientUnits="userSpaceOnUse">
<stop stop-color="white"/>
<stop offset="1" stop-color="white" stop-opacity="0"/>
</linearGradient>
<linearGradient id="paint24_linear_2515_7059" x1="348.861" y1="100.042" x2="148.586" y2="234.41" gradientUnits="userSpaceOnUse">
<stop stop-color="white"/>
<stop offset="1" stop-color="white" stop-opacity="0"/>
</linearGradient>
<linearGradient id="paint25_linear_2515_7059" x1="299.587" y1="213.049" x2="184.786" y2="280.577" gradientUnits="userSpaceOnUse">
<stop stop-color="white"/>
<stop offset="1" stop-color="white" stop-opacity="0"/>
</linearGradient>
<linearGradient id="paint26_linear_2515_7059" x1="284.739" y1="100.042" x2="84.4645" y2="234.41" gradientUnits="userSpaceOnUse">
<stop stop-color="white"/>
<stop offset="1" stop-color="white" stop-opacity="0"/>
</linearGradient>
<linearGradient id="paint27_linear_2515_7059" x1="235.466" y1="213.049" x2="120.664" y2="280.577" gradientUnits="userSpaceOnUse">
<stop stop-color="white"/>
<stop offset="1" stop-color="white" stop-opacity="0"/>
</linearGradient>
</defs>
</svg>
