<svg width="32" height="28" viewBox="0 0 32 28" fill="none" xmlns="http://www.w3.org/2000/svg">
<path d="M7.46689 7.60001L13.8669 14L7.46689 20.4M17.0669 20.4H25.6002M3.20023 1.20001H28.8002C29.366 1.20001 29.9086 1.42477 30.3087 1.82485C30.7088 2.22493 30.9336 2.76755 30.9336 3.33335V24.6667C30.9336 25.2325 30.7088 25.7751 30.3087 26.1752C29.9086 26.5753 29.366 26.8 28.8002 26.8H3.20023C2.63443 26.8 2.09181 26.5753 1.69173 26.1752C1.29166 25.7751 1.06689 25.2325 1.06689 24.6667V3.33335C1.06689 2.76755 1.29166 2.22493 1.69173 1.82485C2.09181 1.42477 2.63443 1.20001 3.20023 1.20001V1.20001Z" stroke="#5E5EDD" stroke-width="1.6"/>
</svg>
