<svg width="32" height="32" viewBox="0 0 32 32" fill="none" xmlns="http://www.w3.org/2000/svg">
<g clip-path="url(#clip0_2_32420)">
<path d="M30.9336 5.33118C30.9336 7.68425 24.2477 9.59358 16.0002 9.59358C7.75276 9.59358 1.06689 7.68425 1.06689 5.33332M30.9336 5.33332C30.9336 2.97598 24.2477 1.06665 16.0002 1.06665C7.75276 1.06665 1.06689 2.97598 1.06689 5.33118M30.9336 5.33118V26.6496C30.9336 29.0027 24.2477 30.9141 16.0002 30.9141C7.75276 30.9141 1.06689 29.0048 1.06689 26.6496V5.33332M30.9336 15.9915C30.9336 18.3467 24.2477 20.2581 16.0002 20.2581C7.75276 20.2581 1.06689 18.3467 1.06689 15.9915" stroke="#5E5EDD" stroke-width="1.6" stroke-linecap="square"/>
</g>
<defs>
<clipPath id="clip0_2_32420">
<rect width="32" height="32" fill="white"/>
</clipPath>
</defs>
</svg>
