<svg width="28" height="32" viewBox="0 0 28 32" fill="none" xmlns="http://www.w3.org/2000/svg">
<path d="M3.12222 13.632L2.06196 13.5125L3.12222 13.632ZM1.46249 28.5653L2.52276 28.6827L1.46249 28.5653ZM26.5377 28.5653L25.4774 28.6827L26.5377 28.5653ZM24.878 13.632L25.9382 13.5125L24.878 13.632ZM2.06196 13.5125L0.402224 28.4459L2.52276 28.6805L4.18249 13.7472L2.06196 13.5125ZM3.58302 32H24.4172V29.8667H3.58302V32ZM27.598 28.4459L25.9382 13.5125L23.8177 13.7472L25.4774 28.6805L27.5958 28.4459H27.598ZM22.7553 10.6667H5.24489V12.8H22.7596V10.6667H22.7553ZM25.9382 13.5125C25.8511 12.7299 25.4784 12.0069 24.8916 11.4819C24.3047 10.9568 23.5449 10.6666 22.7574 10.6667V12.8C23.02 12.8 23.2734 12.8968 23.469 13.072C23.6647 13.2472 23.7888 13.4883 23.8177 13.7493L25.9382 13.5147V13.5125ZM24.4172 32C24.8671 31.9998 25.312 31.9046 25.7227 31.7208C26.1334 31.537 26.5007 31.2686 26.8007 30.9332C27.1007 30.5978 27.3265 30.203 27.4635 29.7744C27.6005 29.3458 27.6456 28.8931 27.5958 28.4459L25.4774 28.6805C25.4942 28.8298 25.4794 28.9809 25.4337 29.124C25.3881 29.2671 25.3128 29.3989 25.2127 29.5109C25.1126 29.6228 24.99 29.7124 24.8529 29.7737C24.7158 29.835 24.5673 29.8667 24.4172 29.8667V32ZM0.402224 28.4459C0.352408 28.8932 0.397541 29.3461 0.534676 29.7749C0.671811 30.2036 0.897861 30.5986 1.19806 30.934C1.49826 31.2695 1.86585 31.5378 2.27681 31.7215C2.68778 31.9052 3.13288 32.0001 3.58302 32V29.8667C3.43304 29.8667 3.28474 29.8351 3.14781 29.7739C3.01087 29.7127 2.88838 29.6233 2.78833 29.5116C2.68827 29.3999 2.61291 29.2683 2.56714 29.1254C2.52138 28.9826 2.50626 28.8317 2.52276 28.6827L0.402224 28.448V28.4459ZM4.18249 13.7472C4.21186 13.4866 4.33622 13.2459 4.53181 13.0712C4.72739 12.8965 4.98049 12.7999 5.24276 12.8V10.6667C4.45567 10.6671 3.69635 10.9576 3.10994 11.4826C2.52354 12.0076 2.15119 12.7303 2.06409 13.5125L4.18249 13.7472ZM8.66676 8.53333V7.46667H6.53342V8.53333H8.66676ZM19.3334 7.46667V8.53333H21.4668V7.46667H19.3334ZM14.0001 2.13333C15.4146 2.13333 16.7711 2.69524 17.7713 3.69543C18.7715 4.69562 19.3334 6.05218 19.3334 7.46667H21.4668C21.4668 5.48638 20.6801 3.58721 19.2798 2.18694C17.8795 0.786664 15.9804 0 14.0001 0V2.13333ZM8.66676 7.46667C8.66676 6.05218 9.22866 4.69562 10.2289 3.69543C11.229 2.69524 12.5856 2.13333 14.0001 2.13333V0C12.0198 0 10.1206 0.786664 8.72036 2.18694C7.32009 3.58721 6.53342 5.48638 6.53342 7.46667H8.66676Z" fill="#5E5EDD"/>
</svg>
