<svg width="137" height="107" viewBox="0 0 137 107" fill="none" xmlns="http://www.w3.org/2000/svg">
<path d="M95.4892 45.4596C94.1372 48.3623 93.6764 51.6008 94.165 54.7654C94.6536 57.9301 96.0698 60.8787 98.2343 63.2385C100.399 65.5983 103.215 67.2631 106.325 68.0225C109.436 68.7819 112.702 68.6017 115.711 67.5047C118.719 66.4077 121.335 64.4432 123.226 61.8596C125.118 59.2761 126.201 56.1895 126.339 52.9903C126.477 49.7911 125.662 46.623 123.999 43.8866C122.336 41.1502 119.899 38.9685 116.996 37.6174C113.104 35.8061 108.652 35.6148 104.619 37.0854C100.586 38.556 97.3018 41.5682 95.4892 45.4596ZM103.311 49.0996C103.941 47.743 104.959 46.6037 106.237 45.826C107.515 45.0482 108.995 44.6669 110.489 44.7303C111.984 44.7937 113.426 45.2988 114.633 46.1819C115.841 47.0651 116.759 48.2864 117.272 49.6915C117.785 51.0966 117.87 52.6224 117.516 54.0757C117.162 55.5291 116.385 56.8448 115.283 57.8564C114.181 58.868 112.804 59.5301 111.326 59.7589C109.847 59.9877 108.334 59.773 106.978 59.1418C106.076 58.7243 105.265 58.133 104.592 57.4018C103.919 56.6707 103.396 55.8139 103.054 54.8806C102.712 53.9474 102.558 52.9558 102.599 51.9627C102.641 50.9697 102.878 49.9945 103.297 49.0931L103.311 49.0996Z" fill="#C7C7C7"/>
<path d="M113.892 36.9104L119.53 39.5347L121.081 35.399L116.062 33.0635L113.892 36.9104Z" fill="#C7C7C7"/>
<path d="M123.742 43.8101L125.879 49.6559L129.899 47.8215L128.001 42.6203L123.742 43.8101Z" fill="#C7C7C7"/>
<path d="M125.838 55.657L123.212 61.3004L127.347 62.8506L129.685 57.8275L125.838 55.657Z" fill="#C7C7C7"/>
<path d="M118.936 65.5126L113.091 67.6492L114.92 71.6669L120.121 69.7694L118.936 65.5126Z" fill="#C7C7C7"/>
<path d="M107.085 67.6061L101.441 64.9797L99.8958 69.1176L104.914 71.4531L107.085 67.6061Z" fill="#C7C7C7"/>
<path d="M97.2292 60.7043L95.0995 54.8561L91.0796 56.6905L92.9771 61.8916L97.2292 60.7043Z" fill="#C7C7C7"/>
<path d="M95.1406 48.8549L97.767 43.2115L93.6292 41.666L91.2936 46.6844L95.1406 48.8549Z" fill="#C7C7C7"/>
<path d="M102.042 38.9993L107.886 36.8674L106.058 32.8451L100.857 34.7425L102.042 38.9993Z" fill="#C7C7C7"/>
<path d="M115.019 50.52L111.055 47.1998L106.191 48.9704L105.3 54.0542L109.26 57.3723L114.117 55.6041L115.019 50.52ZM109.477 53.7735C109.183 53.637 108.937 53.4166 108.769 53.1401C108.601 52.8636 108.519 52.5435 108.532 52.2202C108.546 51.897 108.656 51.5851 108.847 51.324C109.038 51.063 109.302 50.8644 109.606 50.7536C109.91 50.6427 110.24 50.6244 110.555 50.7011C110.869 50.7777 111.153 50.9459 111.372 51.1843C111.591 51.4226 111.734 51.7205 111.784 52.0403C111.833 52.36 111.787 52.6873 111.65 52.9806C111.467 53.374 111.135 53.6785 110.728 53.8272C110.32 53.9759 109.87 53.9566 109.477 53.7735V53.7735Z" fill="#C7C7C7"/>
<path d="M45.8094 64.1066C44.4671 66.9933 44.0109 70.2134 44.4986 73.3594C44.9863 76.5055 46.3959 79.4362 48.5492 81.7811C50.7026 84.126 53.5029 85.7798 56.5961 86.5331C59.6893 87.2865 62.9364 87.1057 65.9269 86.0137C68.9173 84.9216 71.5168 82.9673 73.3966 80.3978C75.2763 77.8284 76.3519 74.7593 76.4874 71.5785C76.6228 68.3978 75.812 65.2483 74.1575 62.5284C72.5031 59.8084 70.0792 57.6402 67.1924 56.2978C63.3205 54.5034 58.8951 54.3178 54.8866 55.7816C50.8781 57.2455 47.6137 60.2393 45.8094 64.1066V64.1066ZM48.9157 65.5522C49.9728 63.2782 51.6807 61.3689 53.8232 60.0659C55.9657 58.7628 58.4466 58.1245 60.952 58.2318C63.4574 58.339 65.8747 59.1869 67.898 60.6683C69.9213 62.1497 71.4598 64.198 72.3188 66.5539C73.1778 68.9099 73.3186 71.4677 72.7236 73.9038C72.1285 76.3398 70.8242 78.5446 68.9758 80.2392C67.1274 81.9338 64.8178 83.0421 62.3394 83.4238C59.8609 83.8055 57.325 83.4435 55.0523 82.3836C52.0088 80.9642 49.6537 78.3942 48.5046 75.2387C47.3556 72.0832 47.5068 68.6006 48.925 65.5565L48.9157 65.5522ZM45.8094 64.1066C44.4671 66.9933 44.0109 70.2134 44.4986 73.3594C44.9863 76.5055 46.3959 79.4362 48.5492 81.7811C50.7026 84.126 53.5029 85.7798 56.5961 86.5331C59.6893 87.2865 62.9364 87.1057 65.9269 86.0137C68.9173 84.9216 71.5168 82.9673 73.3966 80.3978C75.2763 77.8284 76.3519 74.7593 76.4874 71.5785C76.6228 68.3978 75.812 65.2483 74.1575 62.5284C72.5031 59.8084 70.0792 57.6402 67.1924 56.2978C63.3205 54.5034 58.8951 54.3178 54.8866 55.7816C50.8781 57.2455 47.6137 60.2393 45.8094 64.1066V64.1066ZM48.9157 65.5522C49.9728 63.2782 51.6807 61.3689 53.8232 60.0659C55.9657 58.7628 58.4466 58.1245 60.952 58.2318C63.4574 58.339 65.8747 59.1869 67.898 60.6683C69.9213 62.1497 71.4598 64.198 72.3188 66.5539C73.1778 68.9099 73.3186 71.4677 72.7236 73.9038C72.1285 76.3398 70.8242 78.5446 68.9758 80.2392C67.1274 81.9338 64.8178 83.0421 62.3394 83.4238C59.8609 83.8055 57.325 83.4435 55.0523 82.3836C52.0088 80.9642 49.6537 78.3942 48.5046 75.2387C47.3556 72.0832 47.5068 68.6006 48.925 65.5565L48.9157 65.5522ZM35.8005 59.4485C33.5411 64.3154 32.7753 69.7429 33.5998 75.0449C34.4243 80.3469 36.8022 85.2855 40.4329 89.2365C44.0635 93.1874 48.784 95.9733 53.9976 97.242C59.2112 98.5107 64.6839 98.2053 69.724 96.3644C74.7641 94.5235 79.1453 91.2297 82.3139 86.8994C85.4824 82.569 87.2961 77.3966 87.5256 72.0357C87.7551 66.6748 86.3901 61.3663 83.6033 56.781C80.8164 52.1957 76.7328 48.5395 71.8685 46.2746C68.6358 44.7701 65.1384 43.9176 61.5761 43.7658C58.0138 43.614 54.4565 44.1658 51.1076 45.3897C47.7587 46.6136 44.6839 48.4856 42.059 50.8987C39.4341 53.3117 37.3106 56.2185 35.8098 59.4528L35.8005 59.4485ZM44.4102 63.4554C45.8821 60.2904 48.2596 57.633 51.242 55.8194C54.2244 54.0058 57.6777 53.1175 61.165 53.2669C64.6524 53.4162 68.0171 54.5966 70.8335 56.6585C73.6499 58.7205 75.7915 61.5715 76.9873 64.8508C78.1831 68.1301 78.3794 71.6904 77.5515 75.0813C76.7235 78.4722 74.9085 81.5414 72.3359 83.9006C69.7633 86.2597 66.5488 87.8029 63.099 88.3348C59.6493 88.8668 56.1193 88.3636 52.9555 86.889C48.7201 84.9089 45.4424 81.3305 43.8406 76.938C42.2388 72.5455 42.4437 67.6971 44.4102 63.4554V63.4554ZM45.8094 64.1066C44.4671 66.9933 44.0109 70.2134 44.4986 73.3594C44.9863 76.5055 46.3959 79.4362 48.5492 81.7811C50.7026 84.126 53.5029 85.7798 56.5961 86.5331C59.6893 87.2865 62.9364 87.1057 65.9269 86.0137C68.9173 84.9216 71.5168 82.9673 73.3966 80.3978C75.2763 77.8284 76.3519 74.7593 76.4874 71.5785C76.6228 68.3978 75.812 65.2483 74.1575 62.5284C72.5031 59.8084 70.0792 57.6402 67.1924 56.2978C63.3205 54.5034 58.8951 54.3178 54.8866 55.7816C50.8781 57.2455 47.6137 60.2393 45.8094 64.1066V64.1066ZM48.9157 65.5522C49.9728 63.2782 51.6807 61.3689 53.8232 60.0659C55.9657 58.7628 58.4466 58.1245 60.952 58.2318C63.4574 58.339 65.8747 59.1869 67.898 60.6683C69.9213 62.1497 71.4598 64.198 72.3188 66.5539C73.1778 68.9099 73.3186 71.4677 72.7236 73.9038C72.1285 76.3398 70.8242 78.5446 68.9758 80.2392C67.1274 81.9338 64.8178 83.0421 62.3394 83.4238C59.8609 83.8055 57.325 83.4435 55.0523 82.3836C52.0088 80.9642 49.6537 78.3942 48.5046 75.2387C47.3556 72.0832 47.5068 68.6006 48.925 65.5565L48.9157 65.5522Z" fill="#6F42C1"/>
<path d="M68.78 45.3763L74.4141 47.9984L76.4653 42.1156L71.9552 40.0167L68.78 45.3763Z" fill="#6F42C1"/>
<path d="M80.4112 52.9739L83.9809 58.0567L88.6999 53.9886L85.8445 49.9191L80.4112 52.9739Z" fill="#6F42C1"/>
<path d="M86.6854 65.3641L87.232 71.5537L93.356 70.3921L92.9222 65.4353L86.6854 65.3641Z" fill="#6F42C1"/>
<path d="M85.9266 79.236L83.3045 84.8702L89.192 86.9236L91.2909 82.4135L85.9266 79.236Z" fill="#6F42C1"/>
<path d="M78.3334 90.8693L73.2459 94.4369L77.314 99.1559L81.3882 96.3026L78.3334 90.8693Z" fill="#6F42C1"/>
<path d="M65.9434 97.1438L59.7538 97.6904L60.9154 103.814L65.8676 103.378L65.9434 97.1438Z" fill="#6F42C1"/>
<path d="M52.0715 96.3848L46.4373 93.7627L44.3793 99.6479L48.8941 101.749L52.0715 96.3848Z" fill="#6F42C1"/>
<path d="M40.438 88.7918L36.8705 83.7043L32.1468 87.7702L35.0047 91.8465L40.438 88.7918Z" fill="#6F42C1"/>
<path d="M34.1591 76.3994L33.6125 70.2099L27.4885 71.3715L27.9291 76.3258L34.1591 76.3994Z" fill="#6F42C1"/>
<path d="M34.918 62.5274L37.54 56.8933L31.6595 54.8374L29.5605 59.3475L34.918 62.5274Z" fill="#6F42C1"/>
<path d="M42.5157 50.8962L47.6031 47.3287L43.5326 42.6029L39.4609 45.4629L42.5157 50.8962Z" fill="#6F42C1"/>
<path d="M54.908 44.6173L61.0976 44.0707L59.936 37.9467L54.977 38.3851L54.908 44.6173Z" fill="#6F42C1"/>
<path d="M8.60185 20.0482C6.95351 23.3592 6.32402 27.0846 6.793 30.7533C7.26198 34.422 8.80836 37.8692 11.2366 40.659C13.6648 43.4489 16.8658 45.456 20.4347 46.4265C24.0037 47.3971 27.7803 47.2875 31.2869 46.1116C34.7936 44.9358 37.8728 42.7464 40.1352 39.8205C42.3975 36.8946 43.7414 33.3634 43.9968 29.6737C44.2523 25.984 43.4079 22.3014 41.5703 19.0916C39.7327 15.8818 36.9846 13.289 33.6734 11.6411C29.2338 9.4316 24.0984 9.07605 19.3966 10.6527C14.6949 12.2293 10.8119 15.6089 8.60185 20.0482V20.0482ZM17.5253 24.4905C18.2947 22.9402 19.5068 21.6531 21.0082 20.792C22.5095 19.931 24.2326 19.5348 25.9592 19.6535C27.6859 19.7723 29.3385 20.4008 30.7078 21.4593C32.077 22.5178 33.1015 23.9588 33.6513 25.5999C34.2012 27.2409 34.2518 29.0082 33.7966 30.6781C33.3415 32.3479 32.4012 33.8451 31.0947 34.9802C29.7881 36.1153 28.1742 36.8372 26.4572 37.0545C24.7401 37.2718 22.9972 36.9748 21.4491 36.201C19.3782 35.1659 17.8023 33.352 17.0667 31.1568C16.3312 28.9616 16.4961 26.5643 17.5253 24.4905V24.4905Z" fill="#C7C7C7"/>
<path d="M30.1128 10.7329L36.5481 13.9378L38.4613 9.20509L32.7356 6.35314L30.1128 10.7329Z" fill="#C7C7C7"/>
<path d="M41.2842 19.0016L43.5678 25.8237L48.2691 23.8298L46.2368 17.7602L41.2842 19.0016Z" fill="#C7C7C7"/>
<path d="M43.3342 32.751L40.134 39.1885L44.8668 41.1016L47.714 35.3738L43.3342 32.751Z" fill="#C7C7C7"/>
<path d="M35.0654 43.9223L28.248 46.2081L30.2441 50.9047L36.3069 48.8749L35.0654 43.9223Z" fill="#C7C7C7"/>
<path d="M21.3208 45.9745L14.8855 42.7696L12.9723 47.5024L18.698 50.3543L21.3208 45.9745Z" fill="#C7C7C7"/>
<path d="M8.09718 23.9611L11.3021 17.5258L6.56467 15.6104L3.71739 21.3383L8.09718 23.9611Z" fill="#C7C7C7"/>
<path d="M16.366 12.7898L23.1834 10.504L21.1895 5.80276L15.1245 7.83728L16.366 12.7898Z" fill="#C7C7C7"/>
<path d="M31.7774 26.3228L26.9887 22.0913L20.9331 24.1301L19.6658 30.3891L24.4522 34.6253L30.5057 32.5911L31.7774 26.3228ZM24.8127 30.1686C24.4545 29.9894 24.1573 29.708 23.9588 29.3601C23.7604 29.0121 23.6695 28.6131 23.6976 28.2135C23.7257 27.8139 23.8717 27.4316 24.1169 27.1148C24.3622 26.7981 24.6959 26.5612 25.0757 26.4339C25.4556 26.3067 25.8646 26.2949 26.2512 26.4C26.6377 26.5051 26.9845 26.7223 27.2477 27.0244C27.5108 27.3264 27.6786 27.6997 27.7297 28.097C27.7809 28.4943 27.7132 28.8979 27.5352 29.2567C27.4171 29.4961 27.2529 29.7098 27.0518 29.8854C26.8508 30.061 26.617 30.195 26.3639 30.2798C26.1108 30.3646 25.8434 30.3984 25.5772 30.3793C25.311 30.3602 25.0511 30.2886 24.8127 30.1686V30.1686Z" fill="#C7C7C7"/>
</svg>
