<svg width="107" height="98" viewBox="0 0 107 98" fill="none" xmlns="http://www.w3.org/2000/svg">
<path d="M66.4337 86.2565V77.3605H40.2137V86.2645C40.2094 89.1706 39.2226 91.9899 37.4137 94.2645L36.2657 95.7125H70.3657L69.2137 94.2645C67.4117 91.9844 66.4322 89.1627 66.4337 86.2565V86.2565Z" fill="white" stroke="#29134E" stroke-width="1.09543" stroke-linecap="round" stroke-linejoin="round"/>
<g style="mix-blend-mode:multiply">
<path d="M38.6017 92.4925H68.0458C66.9928 90.5829 66.4423 88.4371 66.4458 86.2565V77.3605H40.2137V86.2645C40.2122 88.4435 39.6576 90.5864 38.6017 92.4925V92.4925Z" fill="#24292E"/>
</g>
<path d="M66.4338 78.6925H40.2137V82.4525H66.4338V78.6925Z" fill="#24292E" stroke="#29134E" stroke-width="1.09543" stroke-linecap="round" stroke-linejoin="round"/>
<path d="M102.302 1.12048H4.34576C2.29347 1.12048 0.629761 2.7842 0.629761 4.83649V76.4445C0.629761 78.4968 2.29347 80.1605 4.34576 80.1605H102.302C104.354 80.1605 106.018 78.4968 106.018 76.4445V4.83649C106.018 2.7842 104.354 1.12048 102.302 1.12048Z" fill="#24292E" stroke="#29134E" stroke-width="1.09543" stroke-linecap="round" stroke-linejoin="round"/>
<path d="M0.629761 67.8765H106.018V76.4445C106.018 77.43 105.626 78.3752 104.929 79.0721C104.232 79.769 103.287 80.1605 102.302 80.1605H4.36576C3.38022 80.1605 2.43504 79.769 1.73815 79.0721C1.04126 78.3752 0.649759 77.43 0.649759 76.4445V67.8765H0.629761Z" fill="white"/>
<path d="M100.714 6.04049H5.92975V61.8805H100.714V6.04049Z" fill="#E6DCFD"/>
<path d="M55.2657 74.0205C55.2665 73.6359 55.1532 73.2596 54.9401 72.9394C54.7269 72.6192 54.4236 72.3694 54.0684 72.2216C53.7133 72.0739 53.3223 72.0348 52.9449 72.1094C52.5676 72.1839 52.2208 72.3688 51.9485 72.6405C51.6763 72.9122 51.4907 73.2586 51.4154 73.6358C51.3401 74.013 51.3783 74.4041 51.5253 74.7595C51.6724 75.115 51.9215 75.4188 52.2413 75.6326C52.5611 75.8464 52.9371 75.9605 53.3217 75.9605C53.5768 75.9611 53.8295 75.9113 54.0654 75.814C54.3012 75.7168 54.5155 75.5739 54.6961 75.3937C54.8767 75.2135 55.0199 74.9995 55.1177 74.7639C55.2154 74.5282 55.2657 74.2756 55.2657 74.0205V74.0205Z" fill="#24292E" stroke="#29134E" stroke-width="1.09543" stroke-linecap="round" stroke-linejoin="round"/>
<path d="M70.3738 95.7085H36.2778V97.2965H70.3738V95.7085Z" fill="#6B4545"/>
<path d="M84.2337 20.0326C85.3319 18.9325 86.1429 17.5795 86.5956 16.0924C87.0483 14.6054 87.1287 13.03 86.8297 11.5046L80.8817 17.4526C80.5437 17.7887 80.0864 17.9773 79.6097 17.9773C79.133 17.9773 78.6757 17.7887 78.3377 17.4526L73.3937 12.5086C73.2262 12.3414 73.0933 12.1428 73.0026 11.9242C72.912 11.7056 72.8653 11.4712 72.8653 11.2346C72.8653 10.9979 72.912 10.7636 73.0026 10.545C73.0933 10.3263 73.2262 10.1278 73.3937 9.96058L79.3377 4.01658C77.6719 3.69125 75.9493 3.81894 74.3496 4.38632C72.7499 4.9537 71.3318 5.93997 70.2433 7.24223C69.1547 8.54449 68.4356 10.115 68.1609 11.79C67.8862 13.4649 68.0661 15.1828 68.6817 16.7646L53.3337 31.7606L51.8537 30.2766L54.2537 27.8766C54.3763 27.7517 54.445 27.5836 54.445 27.4086C54.445 27.2335 54.3763 27.0655 54.2537 26.9406L52.3817 25.0686C52.258 24.9452 52.0904 24.876 51.9157 24.876C51.741 24.876 51.5734 24.9452 51.4497 25.0686L50.5137 26.0046L48.4857 23.9806L49.2657 23.2006C49.4308 23.0349 49.5235 22.8105 49.5235 22.5766C49.5235 22.3427 49.4308 22.1183 49.2657 21.9526L32.5177 5.20458C32.1187 4.80498 31.6448 4.48796 31.1232 4.27167C30.6016 4.05537 30.0424 3.94404 29.4777 3.94404C28.913 3.94404 28.3539 4.05537 27.8322 4.27167C27.3106 4.48796 26.8367 4.80498 26.4377 5.20458L24.7257 6.91658C24.3262 7.31524 24.0093 7.78878 23.7931 8.31008C23.5768 8.83138 23.4655 9.39021 23.4655 9.95458C23.4655 10.5189 23.5768 11.0778 23.7931 11.5991C24.0093 12.1204 24.3262 12.5939 24.7257 12.9926L41.4737 29.7446C41.6394 29.9097 41.8638 30.0024 42.0977 30.0024C42.3316 30.0024 42.556 29.9097 42.7217 29.7446L43.5017 28.9646L45.5257 30.9926L44.5937 31.9246C44.532 31.9859 44.4831 32.0588 44.4497 32.1391C44.4163 32.2195 44.3991 32.3056 44.3991 32.3926C44.3991 32.4796 44.4163 32.5657 44.4497 32.646C44.4831 32.7263 44.532 32.7992 44.5937 32.8606L46.4617 34.7326C46.5866 34.8552 46.7547 34.9239 46.9297 34.9239C47.1048 34.9239 47.2728 34.8552 47.3977 34.7326L49.7977 32.3326L51.2537 33.7886L38.5257 46.1886C36.9438 45.5734 35.2258 45.3938 33.5509 45.6686C31.8759 45.9434 30.3054 46.6624 29.0029 47.7508C27.7005 48.8392 26.7138 50.257 26.1458 51.8565C25.5779 53.456 25.4494 55.1785 25.7737 56.8446L31.7217 50.9006C31.8889 50.7331 32.0875 50.6002 32.3061 50.5095C32.5247 50.4188 32.759 50.3722 32.9957 50.3722C33.2324 50.3722 33.4667 50.4188 33.6853 50.5095C33.9039 50.6002 34.1025 50.7331 34.2697 50.9006L39.2297 55.8126C39.3972 55.9798 39.5301 56.1783 39.6208 56.397C39.7115 56.6156 39.7581 56.8499 39.7581 57.0866C39.7581 57.3232 39.7115 57.5576 39.6208 57.7762C39.5301 57.9948 39.3972 58.1934 39.2297 58.3606L33.2857 64.3046C34.9516 64.6294 36.6741 64.5014 38.2737 63.934C39.8732 63.3665 41.2913 62.3804 42.3801 61.0784C43.4688 59.7764 44.1884 58.2061 44.4638 56.5314C44.7391 54.8566 44.5602 53.1387 43.9457 51.5566L56.6737 39.1566L74.0297 56.4926C73.7803 57.1353 73.7232 57.8368 73.8652 58.5114C74.0072 59.1861 74.3423 59.8049 74.8297 60.2926L79.0177 64.4806L84.0417 59.4526L79.8537 55.2686C79.366 54.7812 78.7472 54.4461 78.0725 54.3041C77.3979 54.162 76.6965 54.2192 76.0537 54.4686L58.7257 37.1406L74.0897 22.1606C75.8048 22.8279 77.6769 22.982 79.478 22.6041C81.279 22.2263 82.9314 21.3328 84.2337 20.0326V20.0326Z" fill="#24292E" stroke="#29134E" stroke-width="1.09543" stroke-linecap="round" stroke-linejoin="round"/>
<path d="M42.8897 49.4246L73.0217 20.0286C74.6045 20.6451 76.3239 20.8253 78.0001 20.5501C79.6764 20.275 81.2479 19.5548 82.5506 18.4646C83.8533 17.3745 84.8393 15.9544 85.4056 14.3529C85.9719 12.7515 86.0976 11.0273 85.7697 9.36055L79.8257 15.3046C79.6585 15.4721 79.4599 15.605 79.2413 15.6956C79.0227 15.7863 78.7884 15.833 78.5517 15.833C78.315 15.833 78.0807 15.7863 77.8621 15.6956C77.6435 15.605 77.4449 15.4721 77.2777 15.3046L72.3337 10.3605C72.1663 10.1937 72.0335 9.99546 71.9429 9.77718C71.8523 9.55891 71.8056 9.32489 71.8056 9.08855C71.8056 8.85221 71.8523 8.61819 71.9429 8.39992C72.0335 8.18164 72.1663 7.9834 72.3337 7.81655L78.2777 1.86855C76.611 1.54373 74.8877 1.67233 73.2877 2.24092C71.6878 2.80951 70.2697 3.79724 69.1818 5.10096C68.0939 6.40468 67.3759 7.97658 67.1029 9.65251C66.8299 11.3284 67.0118 13.0469 67.6297 14.6286L37.4977 44.0246C35.916 43.409 34.198 43.2291 32.5231 43.5038C30.8481 43.7785 29.2776 44.4976 27.9753 45.5861C26.6731 46.6747 25.6868 48.0928 25.1194 49.6925C24.5521 51.2921 24.4244 53.0147 24.7497 54.6806L30.6937 48.7366C30.8609 48.5691 31.0595 48.4362 31.2781 48.3455C31.4967 48.2548 31.731 48.2082 31.9677 48.2082C32.2044 48.2082 32.4387 48.2548 32.6573 48.3455C32.8759 48.4362 33.0745 48.5691 33.2417 48.7366L38.1857 53.6806C38.3531 53.8474 38.4859 54.0457 38.5765 54.2639C38.6671 54.4822 38.7138 54.7162 38.7138 54.9526C38.7138 55.1889 38.6671 55.4229 38.5765 55.6412C38.4859 55.8595 38.3531 56.0577 38.1857 56.2246L32.2297 62.1606C33.8956 62.4854 35.6181 62.3574 37.2176 61.79C38.8172 61.2225 40.2353 60.2364 41.324 58.9344C42.4128 57.6323 43.1324 56.0621 43.4078 54.3874C43.6831 52.7126 43.5042 50.9947 42.8897 49.4126V49.4246Z" fill="white" stroke="#29134E" stroke-miterlimit="10"/>
<path d="M40.5697 46.3405C40.3394 46.1096 40.21 45.7967 40.21 45.4705C40.21 45.1443 40.3394 44.8315 40.5697 44.6005L67.6617 18.2445C67.8933 18.014 68.2069 17.8845 68.5337 17.8845C68.8606 17.8845 69.1741 18.014 69.4057 18.2445V18.2445C69.6363 18.4762 69.7657 18.7897 69.7657 19.1165C69.7657 19.4434 69.6363 19.7569 69.4057 19.9885L42.3137 46.3405C42.0821 46.5711 41.7685 46.7005 41.4417 46.7005C41.1149 46.7005 40.8013 46.5711 40.5697 46.3405V46.3405Z" fill="white" stroke="#29134E" stroke-miterlimit="10"/>
<path d="M48.6046 25.9423L46.5795 27.9675L75.8 57.1879L77.8251 55.1628L48.6046 25.9423Z" fill="white" stroke="#29134E" stroke-miterlimit="10"/>
<path d="M82.9817 57.3205L77.9577 62.3445L73.7697 58.1606C73.1031 57.4937 72.7286 56.5894 72.7286 55.6466C72.7286 54.7037 73.1031 53.7994 73.7697 53.1326V53.1326C74.0995 52.8026 74.4912 52.5409 74.9222 52.3623C75.3532 52.1837 75.8152 52.0918 76.2817 52.0918C76.7482 52.0918 77.2102 52.1837 77.6412 52.3623C78.0722 52.5409 78.4638 52.8026 78.7937 53.1326L82.9817 57.3205Z" fill="white" stroke="#29134E" stroke-miterlimit="10"/>
<path d="M45.8789 20.2559L40.8924 25.2424L44.9427 29.2927L49.9292 24.3062L45.8789 20.2559Z" fill="white" stroke="#29134E" stroke-miterlimit="10"/>
<path d="M23.6749 4.75175L25.389 3.03773C25.7879 2.63881 26.2615 2.32237 26.7827 2.10647C27.3039 1.89058 27.8625 1.77946 28.4267 1.77946C28.9909 1.77946 29.5495 1.89058 30.0707 2.10647C30.5919 2.32236 31.0655 2.63881 31.4644 3.03773L48.2143 19.7877C48.3794 19.9527 48.4721 20.1765 48.4721 20.4099C48.4721 20.6433 48.3794 20.8672 48.2143 21.0322L41.6694 27.5772C41.5043 27.7422 41.2805 27.8349 41.0471 27.8349C40.8137 27.8349 40.5899 27.7422 40.4249 27.5772L23.6749 10.8272C22.8693 10.0216 22.4167 8.92886 22.4167 7.78949C22.4167 6.65012 22.8693 5.55741 23.6749 4.75175Z" fill="white" stroke="#29134E" stroke-miterlimit="10"/>
<path d="M50.3954 22.9076L43.5393 29.7637C43.2816 30.0215 43.2816 30.4394 43.5393 30.6971L45.4117 32.5695C45.6695 32.8273 46.0874 32.8273 46.3451 32.5695L53.2012 25.7134C53.459 25.4557 53.459 25.0378 53.2012 24.78L51.3288 22.9076C51.071 22.6498 50.6532 22.6498 50.3954 22.9076Z" fill="white" stroke="#29134E" stroke-miterlimit="10"/>
<path d="M42.6057 25.0886L41.2297 26.4686L24.7817 10.0205C24.5987 9.83751 24.496 9.58932 24.496 9.33054C24.496 9.07175 24.5987 8.82356 24.7817 8.64053V8.64053C24.8721 8.54946 24.9795 8.47719 25.098 8.42786C25.2164 8.37853 25.3434 8.35313 25.4717 8.35313C25.6 8.35313 25.727 8.37853 25.8454 8.42786C25.9639 8.47719 26.0713 8.54946 26.1617 8.64053L42.6057 25.0886Z" fill="white" stroke="#29134E" stroke-miterlimit="10"/>
<path d="M44.9537 22.7405L43.5697 24.1205L27.1217 7.67257C26.9388 7.48955 26.836 7.24136 26.836 6.98257C26.836 6.72379 26.9388 6.4756 27.1217 6.29258V6.29258C27.2121 6.20151 27.3196 6.12923 27.438 6.0799C27.5564 6.03057 27.6834 6.00518 27.8117 6.00518C27.94 6.00518 28.067 6.03057 28.1855 6.0799C28.3039 6.12923 28.4114 6.20151 28.5017 6.29258L44.9537 22.7405Z" fill="white" stroke="#29134E" stroke-miterlimit="10"/>
<path d="M47.3017 20.3925L45.9177 21.7605L29.4697 5.32457C29.2867 5.14155 29.184 4.89336 29.184 4.63457C29.184 4.37579 29.2867 4.1276 29.4697 3.94458V3.94458C29.56 3.85351 29.6675 3.78123 29.786 3.7319C29.9044 3.68257 30.0314 3.65718 30.1597 3.65718C30.288 3.65718 30.415 3.68257 30.5334 3.7319C30.6518 3.78123 30.7593 3.85351 30.8497 3.94458L47.3017 20.3925Z" fill="white" stroke="#29134E" stroke-miterlimit="10"/>
</svg>
