<svg width="360" height="151" viewBox="0 0 360 151" fill="none" xmlns="http://www.w3.org/2000/svg">
<rect x="-13.3596" y="0.640371" width="57.7704" height="165.603" rx="7.04408" stroke="#B392F0" stroke-width="1.28074"/>
<rect x="55.9612" y="77.6836" width="57.7704" height="136.057" rx="7.04408" stroke="#B392F0" stroke-width="1.28074" stroke-dasharray="3.84 3.84"/>
<rect x="66.0463" y="95.4153" width="37.1415" height="32.6589" rx="7.04408" stroke="#B392F0" stroke-width="1.28074"/>
<rect x="66.0463" y="133.838" width="37.1415" height="19.2111" rx="7.04408" stroke="#B392F0" stroke-width="1.28074"/>
<rect x="55.9613" y="0.640371" width="57.7704" height="67.3883" rx="7.04408" stroke="#B392F0" stroke-width="1.28074"/>
<rect x="120.64" y="1.64037" width="131.719" height="66.7193" rx="7.04408" stroke="#B392F0" stroke-width="1.28074"/>
<rect x="194.603" y="77.6838" width="57.7704" height="136.057" rx="7.04408" stroke="#B392F0" stroke-width="1.28074"/>
<rect x="201.805" y="85.1694" width="42.9049" height="106.942" rx="4.4826" fill="#29134E" stroke="#B392F0" stroke-width="1.28074"/>
<rect x="183.234" y="170.339" width="57.6334" height="92.8538" rx="7.04408" transform="rotate(-180 183.234 170.339)" stroke="#B392F0" stroke-width="1.28074"/>
<rect x="263.924" y="1.92406" width="109.119" height="101.417" rx="7.04408" stroke="#B392F0" stroke-width="1.28074"/>
<rect x="263.951" y="114.656" width="99.1978" height="99.1978" rx="7.37281" stroke="#B392F0" stroke-width="1.34051"/>
<path d="M278.338 123.592C275.327 123.592 272.886 126.032 272.886 129.043V199.467C272.886 202.478 275.327 204.919 278.338 204.919H294.019C297.029 204.919 299.47 202.478 299.47 199.467V162.976C299.47 159.085 302.624 155.931 306.515 155.932L348.762 155.939C351.773 155.939 354.213 156.38 354.213 153.369V129.043C354.213 126.032 351.773 123.592 348.762 123.592H278.338Z" fill="#29134E" stroke="#B392F0" stroke-width="1.36285" stroke-linejoin="round"/>
</svg>
