<svg width="20" height="20" viewBox="0 0 20 20" fill="none" xmlns="http://www.w3.org/2000/svg">
<path d="M17.2222 3H11.7778C11.3482 3 11 3.34822 11 3.77778V9.22222C11 9.65178 11.3482 10 11.7778 10H17.2222C17.6518 10 18 9.65178 18 9.22222V3.77778C18 3.34822 17.6518 3 17.2222 3Z" stroke="#484848" stroke-linecap="round" stroke-linejoin="round"/>
<path d="M15.5 13H11.5C11.2239 13 11 13.2239 11 13.5V17.5C11 17.7761 11.2239 18 11.5 18H15.5C15.7761 18 16 17.7761 16 17.5V13.5C16 13.2239 15.7761 13 15.5 13Z" stroke="#484848" stroke-linecap="round" stroke-linejoin="round"/>
<path d="M7.5 5H3.5C3.22386 5 3 5.22386 3 5.5V9.5C3 9.77614 3.22386 10 3.5 10H7.5C7.77614 10 8 9.77614 8 9.5V5.5C8 5.22386 7.77614 5 7.5 5Z" stroke="#484848" stroke-linecap="round" stroke-linejoin="round"/>
<path d="M7.5 13H3.5C3.22386 13 3 13.2239 3 13.5V17.5C3 17.7761 3.22386 18 3.5 18H7.5C7.77614 18 8 17.7761 8 17.5V13.5C8 13.2239 7.77614 13 7.5 13Z" stroke="#484848" stroke-linecap="round" stroke-linejoin="round"/>
</svg>
