<svg width="18" height="16" viewBox="0 0 18 16" fill="none" xmlns="http://www.w3.org/2000/svg">
<path d="M4.42857 4.5L7.85714 8L4.42857 11.5M9.57143 11.5H14.1429M2.14286 1H15.8571C16.1602 1 16.4509 1.12292 16.6653 1.34171C16.8796 1.5605 17 1.85725 17 2.16667V13.8333C17 14.1428 16.8796 14.4395 16.6653 14.6583C16.4509 14.8771 16.1602 15 15.8571 15H2.14286C1.83975 15 1.54906 14.8771 1.33474 14.6583C1.12041 14.4395 1 14.1428 1 13.8333V2.16667C1 1.85725 1.12041 1.5605 1.33474 1.34171C1.54906 1.12292 1.83975 1 2.14286 1Z" stroke="#5E5EDD"/>
</svg>
